<?xml version="1.0" standalone="no"?>
<!DOCTYPE svg PUBLIC "-//W3C//DTD SVG 20010904//EN"
 "http://www.w3.org/TR/2001/REC-SVG-20010904/DTD/svg10.dtd">
<svg version="1.0" xmlns="http://www.w3.org/2000/svg"
 width="736.000000pt" height="736.000000pt" viewBox="0 0 736.000000 736.000000"
 preserveAspectRatio="xMidYMid meet">

<g transform="translate(0.000000,736.000000) scale(0.100000,-0.100000)"
fill="#000000" stroke="none">
<path d="M0 7145 c0 -118 2 -215 5 -215 2 0 14 18 25 40 12 23 27 43 35 46 10
4 12 15 9 33 -5 23 -2 29 15 34 11 3 25 16 30 30 5 14 16 28 23 31 10 5 10 7
0 12 -21 10 -13 22 23 35 27 10 34 17 29 31 -4 13 2 21 20 30 14 6 26 15 26
20 0 4 7 8 16 8 9 0 23 9 33 21 9 11 32 24 50 28 19 3 36 12 39 19 3 9 -41 12
-187 12 l-191 0 0 -215z"/>
<path d="M440 7352 c0 -20 28 -32 71 -32 38 0 48 -4 52 -20 3 -12 14 -20 26
-20 18 0 21 -6 21 -41 0 -36 2 -41 20 -36 24 6 25 3 4 -17 -8 -9 -11 -16 -5
-16 16 0 13 -40 -3 -46 -19 -7 -33 -153 -16 -164 7 -4 10 -16 7 -26 -4 -17 -6
-17 -12 4 -11 32 -23 27 -30 -12 -5 -26 -11 -33 -25 -29 -10 3 -21 0 -24 -6
-4 -7 1 -11 13 -11 12 0 21 -3 21 -7 0 -11 -67 -53 -84 -53 -8 0 -18 -4 -21
-10 -3 -5 1 -10 9 -10 8 0 17 -4 20 -9 3 -4 -6 -6 -20 -3 -20 3 -26 0 -31 -17
-3 -11 -11 -21 -18 -21 -7 0 -15 -7 -19 -15 -3 -8 -12 -15 -21 -15 -11 0 -15
-11 -15 -40 0 -32 -4 -40 -18 -40 -10 0 -24 -14 -34 -37 -16 -38 -16 -38 9
-41 25 -4 26 -15 7 -66 -4 -12 0 -16 15 -16 18 0 21 -6 21 -40 0 -33 3 -40 20
-40 11 0 20 -7 20 -15 0 -18 47 -65 65 -65 8 0 15 -4 15 -10 0 -5 11 -10 25
-10 18 0 25 -5 25 -20 0 -15 -7 -20 -25 -20 -14 0 -25 -4 -25 -10 0 -5 -12
-10 -26 -10 -26 0 -27 -1 -21 -54 3 -33 1 -58 -6 -65 -17 -17 -25 -13 -30 17
-3 19 -4 15 -6 -15 -1 -37 1 -41 19 -38 18 3 20 -2 20 -41 0 -32 -4 -44 -15
-44 -8 0 -15 5 -15 10 0 15 -77 12 -83 -2 -3 -7 -6 6 -6 30 -1 40 -2 42 -31
42 -22 0 -33 6 -40 23 l-9 22 -7 -22 c-8 -28 -40 -30 -47 -3 -3 11 -17 24 -31
30 -21 8 -26 16 -26 45 0 28 -4 35 -20 35 -11 0 -20 7 -20 15 0 18 -11 19 -29
3 -11 -11 -13 -10 -7 5 3 10 6 34 6 53 0 24 5 34 15 34 8 0 15 9 15 20 0 21
-15 27 -25 10 -12 -20 -23 -9 -30 30 -19 115 -25 18 -25 -429 0 -265 3 -481 8
-481 7 0 207 34 297 50 226 40 306 54 415 70 69 11 219 35 335 55 116 20 235
40 265 45 73 11 491 86 610 110 181 36 365 70 393 72 15 1 27 6 27 9 0 4 -18
35 -41 69 -95 143 -118 241 -79 342 25 67 68 108 147 144 45 19 62 22 89 15
36 -10 115 -72 244 -193 67 -63 100 -86 155 -108 l69 -27 39 40 c35 37 41 39
80 34 43 -6 91 11 93 32 1 6 2 16 3 22 0 5 6 7 12 4 6 -4 8 -13 5 -21 -3 -8 1
-17 9 -20 8 -4 15 -13 15 -21 0 -8 4 -11 10 -8 6 3 10 0 10 -8 0 -8 6 -17 13
-20 7 -3 32 -30 56 -61 50 -64 54 -91 27 -179 -10 -32 -16 -61 -13 -64 3 -2
54 -6 114 -7 117 -2 166 -18 275 -87 120 -77 120 -201 1 -231 -36 -9 -41 -13
-32 -25 22 -26 49 -35 65 -22 20 16 95 6 128 -17 34 -25 66 -90 69 -142 2 -35
7 -43 40 -64 20 -12 40 -30 42 -39 3 -10 17 -20 31 -23 14 -4 45 -25 68 -46
24 -22 50 -40 58 -40 8 0 23 -9 33 -20 10 -11 24 -20 32 -20 27 0 464 -236
601 -324 93 -61 325 -170 441 -208 115 -37 163 -60 216 -102 22 -18 78 -59
125 -91 102 -70 140 -99 246 -190 45 -38 119 -99 164 -135 112 -88 207 -191
395 -426 175 -219 307 -362 342 -370 13 -4 23 -10 23 -15 0 -5 17 -9 38 -9 21
0 42 -3 46 -7 3 -4 15 -8 25 -10 10 -1 31 -8 47 -14 16 -7 39 -14 51 -16 32
-5 305 -89 346 -107 l37 -15 0 404 c0 389 -1 405 -19 415 -27 14 -58 13 -64
-2 -4 -10 -6 -10 -6 0 -1 19 -51 15 -51 -4 0 -13 -6 -15 -27 -9 -16 4 -44 8
-63 9 -19 1 -52 7 -73 15 -21 7 -41 10 -44 7 -3 -3 -18 3 -32 12 -14 10 -37
19 -51 20 -61 3 -70 10 -70 55 0 23 -7 56 -16 72 -10 19 -17 65 -20 121 -4 85
-2 95 23 145 25 48 34 55 88 75 54 21 71 22 167 17 71 -4 132 -1 182 8 l76 13
0 1462 c0 804 -3 1469 -6 1478 -5 14 -34 16 -215 16 l-209 0 0 -32 c-1 -18 -3
-54 -5 -80 -2 -27 -1 -48 4 -48 14 0 20 -39 7 -48 -6 -5 -31 -7 -54 -4 -33 3
-48 10 -60 31 -10 14 -24 27 -32 29 -20 5 -72 61 -65 72 3 5 -4 14 -15 20 -12
6 -19 17 -17 25 3 7 0 18 -6 24 -12 12 -117 15 -117 4 0 -5 18 -59 40 -121
164 -463 183 -618 82 -663 -17 -7 -35 -27 -45 -49 -43 -100 -104 -130 -212
-105 -77 18 -115 36 -172 82 -38 31 -50 35 -118 40 -93 6 -120 0 -141 -32 -15
-23 -15 -27 6 -69 12 -26 47 -67 81 -97 81 -70 95 -98 80 -163 -16 -71 -60
-101 -146 -101 -57 0 -66 3 -109 39 -46 37 -47 39 -45 90 1 32 -4 65 -13 84
-14 27 -14 37 -3 76 30 99 -14 132 -109 81 -26 -14 -54 -25 -61 -25 -24 0 -62
70 -89 163 -31 109 -60 161 -109 201 -35 27 -46 31 -100 30 -74 -1 -126 -25
-177 -80 -95 -102 -98 -104 -130 -104 -48 0 -136 -48 -183 -100 -61 -69 -97
-113 -97 -122 0 -4 -6 -8 -13 -8 -15 0 -33 -47 -43 -110 -4 -25 -11 -50 -16
-57 -5 -7 -7 -17 -3 -24 5 -7 1 -10 -11 -7 -34 6 -41 40 -28 125 6 43 16 91
23 106 6 16 11 41 11 57 0 16 4 31 9 34 5 3 12 18 15 32 10 40 40 104 48 104
5 0 8 4 8 10 0 13 57 107 87 144 13 16 27 41 30 57 3 17 13 30 27 33 11 3 34
16 51 30 l30 24 -19 51 c-21 60 -18 76 21 84 15 3 39 15 52 26 13 12 35 22 48
22 12 1 36 2 53 3 16 0 36 8 45 17 19 18 64 14 72 -7 8 -21 116 -18 182 5 84
30 262 59 389 65 119 6 175 24 199 64 20 34 -6 44 -124 48 -60 3 -144 9 -188
14 -76 10 -3105 15 -3105 6 0 -10 74 -144 95 -171 32 -43 115 -217 115 -242 0
-12 5 -25 11 -29 6 -3 18 -22 26 -41 13 -32 12 -37 -3 -54 -16 -18 -16 -19 4
-19 16 0 24 -9 30 -32 6 -22 5 -36 -2 -40 -21 -15 -44 -8 -50 15 -3 13 -15 34
-27 48 -12 13 -45 56 -73 94 -29 39 -66 84 -82 101 -16 18 -33 38 -39 45 -10
15 -169 199 -202 234 -10 11 -31 37 -46 58 l-28 37 -970 0 c-533 0 -969 -4
-969 -8z m3873 -329 c12 -15 25 -38 29 -52 13 -46 -3 -163 -30 -216 -47 -94
-53 -105 -61 -105 -8 0 -32 -141 -33 -197 -1 -18 6 -42 14 -55 8 -13 18 -36
22 -51 7 -29 -11 -107 -26 -107 -4 0 -8 -8 -8 -19 0 -27 -39 -49 -76 -44 -37
6 -125 69 -139 101 -13 30 -24 28 -65 -14 -50 -51 -86 -67 -155 -68 -77 -1
-119 23 -150 84 -35 70 -38 107 -14 156 18 38 26 45 74 58 63 19 132 20 161 3
46 -27 103 -81 114 -108 16 -37 26 -37 45 4 9 17 22 43 30 57 11 18 15 58 15
141 0 64 -3 119 -6 122 -4 4 -7 51 -6 104 1 117 15 159 69 195 68 46 77 49
126 44 37 -4 54 -12 70 -33z m-1014 -110 c17 -15 31 -32 31 -38 0 -11 31 -54
63 -87 20 -21 24 -138 7 -197 -5 -19 -6 -41 -1 -50 5 -9 6 -42 4 -73 -5 -48
-11 -64 -39 -93 -18 -19 -41 -35 -51 -35 -10 0 -27 -6 -38 -13 -11 -7 -27 -13
-35 -12 -8 0 -18 -3 -21 -8 -3 -4 -23 2 -43 14 l-38 22 4 -38 c1 -21 -1 -39
-7 -41 -10 -3 -65 103 -65 124 0 6 -7 18 -16 27 -10 9 -17 30 -18 46 -1 16 -6
29 -13 29 -17 0 -27 20 -16 31 7 7 0 21 -17 39 -32 34 -46 78 -31 93 8 8 11 8
11 0 0 -6 18 -34 40 -62 22 -28 43 -65 47 -81 10 -51 19 -34 32 58 18 136 34
227 41 232 4 3 15 27 25 53 32 86 88 109 144 60z m-2922 -425 c-3 -7 -5 -2 -5
12 0 14 2 19 5 13 2 -7 2 -19 0 -25z m51 -20 c-6 -18 -28 -21 -28 -4 0 9 7 16
16 16 9 0 14 -5 12 -12z m92 -248 c0 -29 37 -27 42 3 3 12 4 -15 4 -60 -1 -62
-4 -83 -14 -83 -10 0 -13 13 -10 50 2 35 -1 50 -9 50 -7 0 -13 5 -13 10 0 6
-9 10 -20 10 -13 0 -20 7 -20 20 0 13 7 20 20 20 13 0 20 -7 20 -20z m-20 -99
c0 -31 4 -41 20 -46 15 -5 20 -15 20 -41 0 -19 -4 -34 -9 -34 -6 0 -11 -19
-13 -42 -6 -76 -25 -55 -33 37 -6 78 -9 85 -28 86 l-22 0 23 11 c15 8 22 20
22 40 0 15 5 28 10 28 6 0 10 -18 10 -39z m-340 -31 c0 -5 -4 -10 -10 -10 -5
0 -10 5 -10 10 0 6 5 10 10 10 6 0 10 -4 10 -10z m319 -172 c-1 -18 -3 -25 -6
-15 -3 12 -15 17 -39 17 -24 0 -34 5 -34 15 0 11 11 15 40 15 39 0 40 -1 39
-32z"/>
<path d="M0 6789 c0 -5 5 -7 10 -4 5 3 10 8 10 11 0 2 -4 4 -10 4 -5 0 -10 -5
-10 -11z"/>
<path d="M408 6793 c7 -3 16 -2 19 1 4 3 -2 6 -13 5 -11 0 -14 -3 -6 -6z"/>
<path d="M225 6470 c3 -5 8 -10 11 -10 2 0 4 5 4 10 0 6 -5 10 -11 10 -5 0 -7
-4 -4 -10z"/>
<path d="M200 6330 c0 -5 5 -10 11 -10 5 0 7 5 4 10 -3 6 -8 10 -11 10 -2 0
-4 -4 -4 -10z"/>
<path d="M120 6230 c0 -5 9 -10 20 -10 11 0 20 5 20 10 0 6 -9 10 -20 10 -11
0 -20 -4 -20 -10z"/>
<path d="M2861 5826 c-12 -13 -19 -26 -14 -29 5 -3 16 8 25 24 21 35 18 36
-11 5z"/>
<path d="M2996 5785 c-9 -9 -28 -22 -43 -30 -16 -8 -21 -15 -13 -15 15 0 90
46 90 55 0 10 -19 4 -34 -10z"/>
<path d="M1755 5485 c-5 -3 -199 -32 -430 -65 -438 -63 -678 -101 -805 -125
-41 -8 -97 -17 -125 -20 -27 -3 -95 -14 -150 -25 -55 -10 -133 -24 -172 -30
l-73 -12 0 -44 c0 -24 4 -44 9 -44 75 0 1735 341 1756 361 9 9 7 10 -10 4z"/>
<path d="M3750 5300 c-14 -10 -21 -22 -17 -26 4 -4 20 4 35 19 31 31 19 36
-18 7z"/>
<path d="M2545 5238 c-38 -10 -115 -25 -170 -33 -55 -8 -192 -35 -305 -59
-113 -24 -270 -58 -350 -75 -80 -18 -163 -36 -185 -41 -22 -5 -103 -21 -180
-36 -369 -69 -617 -126 -925 -209 -186 -50 -255 -77 -269 -104 -21 -40 -22
-126 -2 -181 41 -118 72 -194 117 -287 85 -178 111 -252 215 -595 4 -16 6 -28
4 -28 -8 0 -64 117 -81 167 -32 94 -87 205 -95 191 -12 -19 -11 -108 1 -108
15 0 12 -26 -5 -40 -17 -14 -20 -40 -5 -40 6 0 11 10 11 23 1 18 2 18 6 4 3
-10 -3 -27 -12 -37 -13 -15 -14 -22 -5 -37 10 -15 8 -26 -9 -58 -13 -24 -21
-58 -21 -86 0 -29 -6 -51 -15 -59 -8 -7 -15 -9 -15 -5 0 12 -43 -39 -69 -83
-15 -25 -29 -38 -38 -35 -17 7 -45 -16 -36 -30 3 -6 1 -7 -6 -3 -6 4 -14 0
-18 -11 -9 -25 -25 -34 -39 -22 -7 6 -16 4 -25 -7 -11 -14 -15 -93 -17 -404
l-3 -388 83 28 c46 15 97 34 113 43 40 20 136 44 203 50 58 5 56 2 -28 -45
-61 -34 -128 -55 -232 -72 -48 -9 -98 -18 -113 -22 l-25 -6 0 -1249 0 -1249
3680 0 3680 0 0 60 c0 41 -4 60 -12 61 -7 1 -20 2 -28 3 -26 2 -163 83 -197
116 -32 32 -35 50 -8 50 7 0 16 -7 19 -16 5 -13 9 -14 21 -4 11 9 16 7 26 -9
10 -15 17 -17 31 -10 22 12 24 29 3 29 -8 0 -15 5 -15 10 0 6 -6 10 -12 10 -7
0 -24 14 -37 31 -13 16 -37 37 -53 45 -16 8 -26 19 -23 24 3 5 -3 11 -14 15
-10 3 -47 32 -81 65 -35 33 -71 60 -82 60 -10 0 -18 5 -18 10 0 6 5 10 10 10
17 0 -11 36 -42 54 -16 10 -28 26 -28 38 0 14 -5 18 -15 14 -11 -4 -20 3 -28
22 -13 28 -51 69 -83 88 -10 6 -29 31 -43 55 -33 60 -66 89 -101 89 -17 0 -33
7 -39 18 -10 16 -10 16 -11 -1 0 -10 -4 -15 -10 -12 -5 3 -10 -1 -10 -9 0 -9
-4 -16 -10 -16 -5 0 -10 7 -10 15 0 28 -45 18 -57 -13 -10 -26 -11 -25 -12 18
-2 55 -21 36 -21 -21 0 -29 29 -93 30 -65 0 5 8 -1 19 -12 10 -12 20 -21 22
-19 2 1 1 -2 -3 -7 -13 -16 -9 -74 5 -79 9 -3 9 -7 -1 -19 -10 -13 -9 -18 3
-28 8 -7 15 -19 15 -26 0 -8 6 -14 14 -14 8 0 17 -7 20 -16 4 -10 13 -13 25
-9 15 4 22 -1 29 -22 6 -15 11 -23 11 -16 2 23 72 -10 107 -50 26 -32 31 -43
23 -58 -5 -11 -21 -19 -35 -19 -14 0 -39 -7 -55 -16 -33 -17 -93 -12 -139 11
-14 7 -51 18 -83 25 -32 6 -56 14 -54 16 3 3 -8 19 -24 37 -16 17 -29 41 -29
54 0 31 -21 73 -37 73 -16 0 -17 16 0 27 14 9 -60 21 -144 22 -55 1 -148 29
-104 31 18 1 18 2 -3 11 -13 5 -32 19 -43 32 -17 21 -18 21 -19 3 0 -20 0 -20
-16 0 -11 13 -17 15 -20 6 -9 -20 -21 -14 -34 18 -7 16 -16 30 -21 30 -5 0 -9
9 -9 20 0 11 5 20 10 20 6 0 10 10 10 23 1 21 2 21 22 -6 11 -16 31 -33 44
-38 33 -12 30 -24 -8 -27 -47 -4 -48 -12 0 -12 22 0 44 -4 47 -10 3 -5 18 -10
32 -10 19 0 24 4 19 15 -9 24 61 11 118 -21 30 -17 46 -21 46 -13 0 8 6 7 18
-4 25 -23 75 -21 97 3 10 11 24 20 32 20 17 0 17 40 1 40 -7 0 -26 12 -42 26
-22 19 -26 28 -16 34 15 9 5 30 -15 30 -19 0 -75 49 -75 66 0 7 -9 18 -20 24
-14 7 -20 21 -20 45 0 42 -9 65 -25 65 -7 0 -19 7 -26 17 -13 15 -6 16 96 7
61 -4 211 -8 335 -9 241 0 287 -6 508 -70 49 -14 98 -27 108 -29 16 -3 197
-60 232 -73 9 -4 12 14 12 71 l0 76 -48 0 c-26 0 -52 4 -57 9 -11 9 -96 32
-130 34 -11 0 -24 6 -30 13 -5 7 -32 14 -60 17 -27 2 -61 8 -75 12 -14 4 -37
9 -52 12 -16 3 -28 9 -28 13 0 4 -23 10 -50 12 -31 3 -55 12 -63 22 -10 14
-20 15 -72 6 -42 -7 -77 -6 -118 1 -45 9 -68 9 -99 -1 -37 -11 -43 -10 -55 6
-7 10 -13 22 -13 27 0 6 -5 5 -12 0 -19 -15 -78 -24 -78 -13 0 6 -9 10 -20 10
-11 0 -20 -4 -20 -10 0 -5 -9 -10 -21 -10 -13 0 -23 -8 -26 -21 -5 -18 -12
-20 -57 -18 -28 1 -61 9 -73 16 -15 10 -23 11 -28 3 -5 -7 -12 -5 -23 7 -11
11 -28 17 -47 15 -21 -2 -26 0 -16 6 19 13 -44 44 -74 36 -15 -4 -31 2 -50 20
-15 14 -34 26 -41 26 -8 0 -14 6 -14 13 -1 6 -28 25 -60 40 -33 15 -60 31 -60
36 0 5 -11 12 -25 15 -14 4 -25 11 -25 16 0 5 -16 16 -34 25 -19 9 -71 49
-115 88 -66 58 -78 73 -68 85 10 13 8 14 -12 7 -20 -6 -23 -4 -18 9 5 12 -1
19 -19 26 -13 5 -29 9 -35 7 -6 -1 -16 7 -22 18 -7 11 -36 44 -66 75 -29 30
-60 71 -70 90 -10 21 -24 36 -37 38 -12 2 -32 17 -45 35 -13 17 -36 43 -50 57
-15 14 -54 59 -87 100 -33 41 -68 84 -78 95 -99 106 -197 265 -163 265 21 0 7
38 -18 49 -45 19 -129 115 -208 236 -21 33 -50 76 -65 95 -15 19 -35 51 -46
70 -10 19 -43 70 -72 113 l-53 80 35 -6 c20 -3 36 -4 36 -1 0 2 -33 20 -73 38
-124 59 -420 332 -468 434 -13 29 -29 52 -35 52 -14 0 -181 162 -253 245 l-51
59 -106 -53 c-58 -29 -103 -55 -100 -58 2 -2 13 0 24 6 29 15 52 14 31 -2 -9
-7 -14 -18 -11 -26 3 -8 0 -11 -6 -8 -5 4 -15 0 -22 -8 -7 -8 -18 -15 -25 -15
-7 0 -18 -7 -25 -15 -7 -8 -18 -15 -24 -14 -7 0 -6 2 2 6 6 2 12 10 12 16 -1
7 -8 3 -18 -8 -9 -11 -38 -31 -64 -43 -45 -20 -72 -33 -187 -84 -127 -56 -567
-226 -721 -277 -30 -10 -134 -46 -230 -80 -342 -120 -932 -299 -1064 -322 -67
-11 -133 -1 -154 24 -8 9 6 11 68 8 67 -3 105 3 244 38 90 23 238 65 328 95
256 85 725 263 715 272 -1 2 -81 -26 -177 -62 -191 -71 -511 -176 -517 -170
-2 2 37 18 87 36 146 53 113 51 -58 -2 -86 -27 -255 -74 -375 -105 -223 -56
-261 -60 -302 -29 -28 20 -5 42 53 50 26 3 60 13 76 21 15 8 36 15 45 15 9 0
21 4 27 9 12 11 99 41 329 111 299 92 638 214 880 318 77 33 169 71 205 85 93
35 270 111 327 141 46 24 123 57 398 172 137 57 211 98 229 126 8 14 1 26 -41
65 -57 54 -125 133 -205 240 -30 39 -75 94 -99 121 -32 35 -58 81 -89 153 -41
101 -42 106 -37 187 3 60 1 91 -9 110 -8 15 -11 35 -8 45 3 10 0 17 -8 17 -8
0 -30 21 -50 48 -21 26 -59 71 -85 100 -55 59 -60 60 -168 30z m-440 -137
c-19 -16 -168 -54 -635 -161 -124 -29 -232 -54 -240 -56 -192 -48 -343 -84
-375 -88 -22 -3 1 5 50 18 88 24 189 63 135 52 -50 -9 -105 -16 -95 -11 9 4
352 86 820 197 194 45 362 70 340 49z m-615 -915 c9 -12 5 -16 -27 -22 -21 -4
-53 -13 -70 -21 -18 -7 -36 -13 -40 -14 -23 -1 -53 -12 -53 -20 0 -5 -5 -9
-11 -9 -5 0 -7 5 -4 10 3 6 1 10 -4 10 -6 0 -11 -4 -11 -8 0 -5 -13 -9 -30
-10 -16 0 -35 -4 -42 -9 -7 -4 -29 -9 -48 -10 -19 -2 -53 -9 -75 -17 -22 -8
-43 -12 -47 -9 -20 12 -2 23 75 47 315 98 364 108 387 82z m30 -54 c0 -5 -25
-16 -55 -26 -30 -9 -55 -21 -55 -26 0 -14 -103 -42 -110 -31 -3 6 -42 0 -95
-14 -131 -34 -135 -36 -135 -51 0 -8 -4 -14 -10 -14 -5 0 -10 -7 -10 -15 0 -8
-4 -15 -10 -15 -5 0 -10 13 -10 29 0 35 1 35 255 111 94 29 175 53 180 55 20
7 55 5 55 -3z m-54 -87 c-11 -8 -36 -17 -55 -21 -54 -9 -101 -25 -101 -34 0
-4 -9 -6 -21 -3 -19 5 -19 7 9 18 16 7 33 18 36 24 4 6 28 11 54 11 26 0 54 5
62 10 24 15 37 11 16 -5z m-469 -77 c-3 -8 -6 -5 -6 6 -1 11 2 17 5 13 3 -3 4
-12 1 -19z m735 -34 c-12 -8 -50 -23 -85 -33 -34 -10 -126 -39 -204 -63 -79
-25 -143 -41 -143 -36 0 11 2 12 235 85 218 68 230 71 197 47z m-182 -333
c-21 -13 -125 -42 -116 -34 12 12 89 41 111 42 16 0 17 -1 5 -8z m-940 -16
c-14 -8 -36 -14 -50 -14 -22 0 -21 2 10 14 47 18 71 18 40 0z m790 -30 c0 -8
-52 -26 -58 -20 -3 2 6 9 19 14 28 11 39 13 39 6z m-70 -24 c0 -5 -15 -13 -32
-16 -18 -4 -37 -11 -43 -15 -17 -12 -77 -21 -70 -10 3 6 14 10 23 11 13 0 101
28 120 38 1 0 2 -3 2 -8z m65 -371 c-27 -12 -43 -12 -25 0 8 5 22 9 30 9 10 0
8 -3 -5 -9z m2218 -127 c25 -23 21 -62 -13 -112 -24 -36 -30 -54 -30 -99 0
-76 -19 -180 -41 -223 -10 -20 -23 -67 -29 -104 -6 -37 -15 -76 -20 -86 -6
-10 -10 -33 -10 -52 0 -61 -77 -109 -130 -82 -57 30 -146 183 -127 219 5 11
10 67 11 125 2 96 5 113 34 178 18 39 32 76 32 81 0 24 54 71 97 86 26 9 59
27 73 40 58 56 111 66 153 29z m-1354 -480 c-6 -16 -16 -35 -23 -43 -8 -8 -16
-32 -20 -52 -9 -51 -36 -52 -36 -2 0 36 24 99 42 110 6 4 14 0 19 -7 7 -11 9
-10 9 4 0 9 4 17 10 17 6 0 6 -10 -1 -27z m-1175 -81 c6 -10 -23 -43 -61 -70
-35 -25 -144 -34 -151 -13 -3 8 -9 6 -17 -6 -13 -17 -14 -17 -21 0 -12 32 27
71 82 83 59 13 161 17 168 6z m616 -371 c0 -11 -31 -24 -39 -16 -3 3 1 10 9
15 19 12 30 12 30 1z m-414 -182 c4 -7 10 -7 16 -1 6 6 27 6 56 0 26 -6 81
-11 122 -11 70 -2 75 -4 78 -24 2 -14 10 -23 21 -23 10 0 24 -7 31 -15 7 -9
29 -15 51 -15 35 0 40 -4 59 -41 27 -51 20 -59 -17 -21 -73 76 -147 70 -226
-17 -88 -98 -136 -254 -138 -450 -1 -97 -3 -116 -10 -81 -4 25 -8 67 -8 95 -1
44 -2 47 -14 30 -10 -16 -11 -51 -6 -160 7 -126 4 -172 -8 -137 -3 6 -9 12
-14 12 -4 0 -6 -7 -3 -15 11 -27 -4 -16 -25 20 l-20 35 -141 0 c-105 0 -140 3
-141 13 -1 6 -1 32 0 57 3 51 -16 181 -28 193 -4 4 -2 33 4 65 l12 57 135 -1
136 -1 -3 48 c-1 27 2 46 6 43 16 -9 10 13 -7 27 -8 7 -13 20 -11 29 9 34 -19
52 -102 64 -89 12 -122 30 -47 24 47 -3 50 -2 68 32 28 50 110 131 126 125 10
-4 12 0 8 12 -6 16 -6 16 11 0 18 -15 19 -15 19 3 0 10 -4 18 -9 17 -5 -1 -12
4 -14 11 -6 15 23 16 33 1z m4015 -221 c53 -54 93 -98 88 -98 -5 0 -9 -5 -9
-11 0 -5 5 -7 12 -3 6 4 17 -1 25 -11 7 -11 13 -15 13 -10 0 5 20 -11 45 -35
25 -24 45 -50 45 -57 0 -6 8 -16 18 -22 12 -7 5 -8 -28 -5 -32 4 -41 3 -30 -5
20 -14 5 -26 -32 -26 -21 0 -36 7 -46 23 -15 23 -52 30 -52 10 0 -9 -4 -8 -10
2 -7 11 -5 19 7 28 21 15 9 16 -16 0 -15 -9 -29 -9 -63 2 -23 7 -49 13 -55 11
-12 -2 -20 70 -14 117 1 6 -3 12 -9 12 -6 0 -9 4 -6 9 4 5 2 11 -4 13 -5 1
-11 17 -13 33 -2 17 -10 41 -16 54 -11 19 -11 25 0 33 10 6 7 7 -8 3 -14 -4
-23 -2 -23 4 0 6 3 11 8 11 4 0 13 9 19 20 14 22 7 53 -11 47 -6 -3 -12 6 -12
19 -2 21 3 18 40 -23 22 -25 84 -91 137 -145z m-4331 25 c0 -25 -59 -205 -69
-216 -11 -10 -13 -1 -8 50 5 63 47 173 66 173 6 0 11 -3 11 -7z m838 -286 c3
-79 0 -131 -14 -197 -10 -50 -21 -87 -25 -83 -4 5 -1 33 7 63 11 42 13 91 9
210 -5 125 -3 151 6 135 7 -11 15 -68 17 -128z m254 -152 c-2 -14 -8 -23 -12
-20 -10 6 -1 45 10 45 4 0 5 -11 2 -25z m4185 -57 c-3 -8 -6 -5 -6 6 -1 11 2
17 5 13 3 -3 4 -12 1 -19z m-4900 -90 c-3 -7 -5 -2 -5 12 0 14 2 19 5 13 2 -7
2 -19 0 -25z m4728 22 c13 -5 14 -9 5 -9 -8 0 -24 4 -35 9 -13 5 -14 9 -5 9 8
0 24 -4 35 -9z m-4352 -137 c-23 -63 -98 -133 -143 -133 -24 0 29 66 87 107
32 22 59 42 60 42 1 1 0 -7 -4 -16z m4094 -39 c-9 -9 -28 6 -21 18 4 6 10 6
17 -1 6 -6 8 -13 4 -17z m-4582 -130 l24 -31 -24 2 c-13 2 -29 6 -34 10 -6 3
-11 0 -11 -7 -1 -13 -18 5 -50 51 -11 16 -25 21 -65 22 -40 1 -45 3 -25 9 14
4 39 8 56 9 26 1 34 -4 44 -29 7 -16 19 -35 28 -42 13 -11 14 -10 8 12 -7 24
-7 24 18 -5 14 -16 25 -25 26 -19 0 6 -7 17 -16 24 -22 19 -36 49 -28 62 5 7
11 3 16 -12 5 -14 20 -39 33 -56z m-5 66 c0 -5 9 -24 21 -42 17 -28 19 -29 14
-8 -7 24 -7 25 11 6 14 -13 16 -20 6 -23 -6 -3 -9 -10 -6 -16 3 -7 -10 5 -30
25 -35 36 -47 68 -26 68 6 0 10 -4 10 -10z m59 3 c-3 -21 4 -35 34 -70 17 -21
25 -32 16 -25 -9 7 -23 11 -30 10 -8 -2 -13 3 -11 10 3 15 -28 72 -40 72 -4 0
-4 -7 -1 -17 4 -11 3 -14 -5 -9 -22 13 -13 36 13 36 14 0 24 -3 24 -7z m-115
-19 c9 -24 7 -28 -9 -14 -17 14 -20 30 -6 30 5 0 12 -7 15 -16z m2030 -38 c55
-23 80 -68 80 -145 1 -77 -18 -113 -66 -130 -79 -28 -144 3 -166 77 -24 80 -9
143 42 182 44 33 63 36 110 16z m3296 0 c0 -8 -4 -18 -10 -21 -5 -3 -10 -4
-10 -1 0 2 -3 11 -6 20 -4 11 -1 16 10 16 9 0 16 -6 16 -14z m-262 -58 c-3 -7
-13 -15 -23 -16 -15 -4 -16 -2 -4 12 17 19 32 21 27 4z m262 -128 c0 -5 -4
-10 -10 -10 -5 0 -10 5 -10 10 0 6 5 10 10 10 6 0 10 -4 10 -10z"/>
<path d="M1330 1790 c-6 -11 -8 -20 -6 -20 3 0 10 9 16 20 6 11 8 20 6 20 -3
0 -10 -9 -16 -20z"/>
<path d="M1389 1784 c-21 -11 -28 -24 -33 -59 -4 -25 -5 -49 -1 -54 3 -5 1
-29 -4 -53 -5 -24 -12 -74 -15 -113 l-5 -70 19 82 c10 45 34 117 53 161 24 56
32 84 26 100 -5 12 -10 22 -11 21 -2 -1 -15 -7 -29 -15z"/>
<path d="M1268 1665 c-3 -6 -8 -23 -12 -40 -18 -78 -28 -105 -35 -101 -4 3 -6
-6 -3 -19 2 -14 6 -25 8 -25 7 0 56 170 52 181 -2 7 -7 9 -10 4z"/>
<path d="M1292 1450 c0 -14 2 -19 5 -12 2 6 2 18 0 25 -3 6 -5 1 -5 -13z"/>
<path d="M5393 1545 c-19 -21 -16 -26 15 -19 18 4 23 3 13 -4 -10 -7 -10 -11
-1 -17 14 -8 15 -7 25 24 5 15 4 21 -3 17 -6 -3 -13 -2 -17 4 -8 13 -17 12
-32 -5z"/>
<path d="M5449 1518 c0 -7 -2 -23 -5 -35 -2 -13 1 -23 6 -23 6 0 10 5 10 10 0
6 11 8 26 4 19 -5 25 -4 20 5 -4 6 -14 11 -22 11 -8 0 -14 9 -14 20 0 21 -19
28 -21 8z"/>
<path d="M3720 5085 c-10 -12 -10 -15 3 -15 19 0 31 16 18 24 -5 3 -14 -1 -21
-9z"/>
<path d="M3788 5083 c7 -3 16 -2 19 1 4 3 -2 6 -13 5 -11 0 -14 -3 -6 -6z"/>
<path d="M3759 4829 c-10 -19 -9 -20 11 -14 12 4 28 1 38 -6 9 -8 6 -1 -7 14
-14 15 -26 27 -27 27 -2 0 -8 -9 -15 -21z"/>
<path d="M3740 4780 c0 -11 2 -20 5 -20 2 0 9 9 15 20 9 16 8 20 -5 20 -8 0
-15 -9 -15 -20z"/>
<path d="M3840 4770 c0 -5 5 -10 11 -10 5 0 7 5 4 10 -3 6 -8 10 -11 10 -2 0
-4 -4 -4 -10z"/>
<path d="M3795 4750 c-4 -6 -16 -8 -27 -4 -18 5 -19 4 -8 -18 26 -49 64 -91
96 -104 46 -19 51 -18 63 17 18 52 11 67 -9 22 -11 -24 -22 -43 -26 -43 -4 0
-4 3 -1 7 4 3 0 17 -8 29 -15 23 -11 53 8 65 10 7 1 29 -12 29 -5 0 -12 -21
-16 -47 -4 -30 -10 -42 -15 -33 -4 7 -6 19 -3 26 3 9 -2 11 -18 7 -18 -5 -21
-3 -16 10 4 10 10 24 13 32 7 17 -11 21 -21 5z"/>
<path d="M3670 4561 c0 -11 5 -23 10 -26 6 -3 10 3 10 14 0 11 -4 23 -10 26
-5 3 -10 -3 -10 -14z"/>
<path d="M3745 4540 c-3 -5 7 -8 25 -7 16 1 30 5 30 10 0 11 -48 9 -55 -3z"/>
<path d="M3815 4430 c-19 -7 -19 -8 -2 -15 12 -5 24 -2 35 9 13 13 14 16 2 15
-8 0 -24 -4 -35 -9z"/>
<path d="M4110 4030 c0 -5 5 -10 10 -10 6 0 10 5 10 10 0 6 -4 10 -10 10 -5 0
-10 -4 -10 -10z"/>
<path d="M4056 3884 c-9 -22 -8 -24 9 -24 8 0 15 9 15 20 0 24 -15 27 -24 4z"/>
<path d="M2278 3473 c7 -3 16 -2 19 1 4 3 -2 6 -13 5 -11 0 -14 -3 -6 -6z"/>
<path d="M2190 3440 c-8 -5 -10 -10 -5 -10 6 0 17 5 25 10 8 5 11 10 5 10 -5
0 -17 -5 -25 -10z"/>
<path d="M5325 1740 c-3 -5 -1 -10 4 -10 6 0 11 5 11 10 0 6 -2 10 -4 10 -3 0
-8 -4 -11 -10z"/>
<path d="M6400 970 c0 -5 5 -10 11 -10 5 0 7 5 4 10 -3 6 -8 10 -11 10 -2 0
-4 -4 -4 -10z"/>
<path d="M6305 901 c-5 -10 -4 -16 3 -19 7 -2 12 -16 12 -30 1 -26 1 -26 15
-8 19 25 19 36 1 36 -8 0 -16 8 -18 18 -3 14 -5 15 -13 3z"/>
<path d="M7336 415 c-3 -9 0 -15 9 -15 8 0 15 7 15 15 0 8 -4 15 -9 15 -5 0
-11 -7 -15 -15z"/>
<path d="M7258 243 c7 -3 16 -2 19 1 4 3 -2 6 -13 5 -11 0 -14 -3 -6 -6z"/>
</g>
</svg>
