<?xml version="1.0" standalone="no"?>
<!DOCTYPE svg PUBLIC "-//W3C//DTD SVG 20010904//EN"
 "http://www.w3.org/TR/2001/REC-SVG-20010904/DTD/svg10.dtd">
<svg version="1.0" xmlns="http://www.w3.org/2000/svg"
 width="736.000000pt" height="491.000000pt" viewBox="0 0 736.000000 491.000000"
 preserveAspectRatio="xMidYMid meet">

<g transform="translate(0.000000,491.000000) scale(0.100000,-0.100000)"
fill="#000000" stroke="none">
<path d="M2203 4843 c21 -225 29 -438 25 -651 l-5 -244 38 -24 c68 -43 57 -57
-107 -140 -66 -32 -121 -62 -124 -65 -3 -4 -30 -14 -60 -24 -30 -9 -70 -24
-89 -33 -19 -9 -37 -16 -40 -15 -3 1 -11 -3 -17 -8 -14 -12 -127 -69 -136 -69
-7 0 -74 -36 -218 -117 -19 -11 -47 -23 -62 -26 -26 -7 -26 -7 -12 23 9 16 14
40 12 52 -4 32 -38 35 -318 31 -222 -4 -239 -6 -303 -30 -56 -20 -66 -28 -56
-39 6 -8 16 -14 22 -14 18 0 191 -87 247 -124 30 -20 83 -51 117 -69 52 -26
62 -35 57 -52 -7 -26 -51 -65 -72 -65 -9 0 -66 30 -127 66 -175 105 -217 122
-334 140 -129 19 -168 34 -177 68 -8 33 8 53 49 61 57 11 87 27 87 45 0 22
-17 36 -52 45 -15 4 -34 15 -43 25 -20 22 -9 48 30 74 19 13 25 25 25 54 0 59
-32 70 -272 88 -109 8 -210 19 -224 24 -14 6 -34 10 -45 10 -19 0 -19 -21 -19
-1318 l0 -1319 83 22 c45 13 192 55 327 93 135 39 313 89 395 112 367 100 891
287 1090 387 96 49 220 141 273 204 60 71 80 106 111 201 12 36 29 72 37 78 8
7 14 18 14 24 0 6 -5 4 -11 -4 -9 -13 -10 -13 -6 0 2 8 9 15 15 15 11 0 54 52
74 90 8 16 8 18 -2 8 -11 -10 -16 -8 -24 9 -6 11 -20 26 -31 32 -11 6 -24 17
-28 24 -4 6 -16 12 -25 12 -28 0 -81 75 -59 83 7 3 5 8 -7 13 -14 5 -24 1 -36
-13 -25 -32 -116 -56 -157 -42 -18 6 -33 15 -33 20 0 17 -24 35 -53 41 -15 3
-27 1 -27 -4 0 -13 -70 2 -110 24 -50 27 -98 52 -154 79 -75 36 -86 43 -86 51
0 5 -11 8 -23 8 -13 0 -34 9 -47 20 -23 20 -23 21 -4 35 54 41 118 43 195 6
23 -12 49 -21 56 -21 7 0 13 -4 13 -10 0 -5 12 -10 28 -10 24 0 71 -19 48 -20
-6 0 5 -16 24 -35 23 -24 41 -33 55 -31 13 3 26 -3 33 -15 8 -13 9 -19 1 -19
-6 0 -5 -5 3 -13 17 -17 88 -21 154 -7 38 8 59 8 73 0 24 -12 61 6 61 30 0 9
14 21 32 28 24 9 29 15 21 23 -12 12 -6 42 7 34 5 -3 6 3 3 14 -3 10 0 22 6
25 6 4 11 2 11 -4 0 -6 4 -8 10 -5 13 8 13 55 1 55 -6 0 -11 15 -13 33 -3 27
3 37 37 63 28 22 41 40 43 59 3 41 11 43 37 13 13 -16 31 -28 41 -28 10 0 14
-5 11 -14 -4 -9 0 -13 10 -12 21 3 63 142 63 208 0 34 4 50 15 54 10 4 13 13
10 25 -4 12 -1 21 10 25 9 4 14 13 11 20 -4 9 2 14 15 14 11 0 17 5 14 10 -3
6 -2 10 4 10 6 0 14 12 17 28 4 15 11 29 15 32 5 3 9 30 10 60 2 73 17 106 72
159 60 58 83 70 133 71 43 0 74 22 74 52 0 23 -49 107 -68 117 -10 5 -46 17
-82 26 -63 17 -120 56 -120 81 0 6 -7 17 -15 24 -9 7 -15 29 -15 51 0 38 -19
57 -21 22 -1 -10 -4 -3 -8 16 -7 40 -31 55 -31 19 0 -40 -16 -53 -23 -19 -4
17 -4 36 -2 43 3 7 1 71 -4 142 -7 103 -6 133 5 155 8 14 14 35 14 47 0 11 6
26 13 33 9 10 9 15 0 18 -9 3 -9 12 -2 30 5 14 11 84 13 156 2 86 7 132 15
135 6 2 11 21 11 43 l0 39 -221 0 -222 0 6 -67z m-1681 -1690 c73 -60 237
-227 248 -254 7 -15 10 -36 8 -46 -3 -14 -43 21 -169 142 -93 89 -164 165
-162 172 8 21 39 15 75 -14z m568 -654 c0 -5 -4 -9 -10 -9 -5 0 -10 7 -10 16
0 8 5 12 10 9 6 -3 10 -10 10 -16z m875 -19 c9 -14 -13 -50 -30 -50 -8 0 -15
-4 -15 -10 0 -13 -23 -13 -55 2 -35 16 -31 32 13 54 20 10 38 22 40 26 4 9 38
-7 47 -22z m195 -46 c0 -14 7 -32 15 -40 21 -21 19 -41 -5 -54 -26 -14 -60 7
-60 38 0 28 27 82 40 82 6 0 10 -12 10 -26z"/>
<path d="M2905 4818 c4 -51 14 -112 22 -136 13 -34 15 -67 10 -160 -6 -117 -4
-136 34 -271 9 -33 9 -48 1 -62 -7 -10 -12 -32 -12 -48 0 -16 -5 -31 -11 -33
-5 -2 -13 -38 -16 -81 l-6 -77 59 0 c75 -1 178 -23 198 -43 12 -12 16 -45 18
-158 l3 -142 30 -10 c17 -5 48 -23 69 -38 l40 -29 21 37 c11 21 45 55 75 76
86 60 73 87 -51 112 -35 6 -42 37 -24 105 10 37 13 83 9 145 -3 49 -6 123 -6
164 -1 41 -8 96 -15 122 -14 48 -13 213 3 512 l5 107 -231 0 -232 0 7 -92z"/>
<path d="M4087 4875 c15 -31 15 -43 5 -93 -8 -38 -12 -165 -12 -359 0 -295 -8
-395 -33 -420 -16 -17 -117 -43 -165 -43 -52 0 -64 -11 -69 -61 -5 -54 3 -67
53 -84 31 -10 45 -23 66 -61 34 -63 34 -73 -2 -107 -37 -35 -50 -82 -49 -177
1 -93 7 -109 50 -129 33 -16 35 -16 62 8 17 15 27 34 27 52 0 15 6 29 14 32
10 4 15 35 18 119 4 107 7 119 42 195 38 80 69 109 79 74 3 -9 23 -62 45 -119
l40 -103 -50 -53 c-35 -38 -55 -52 -69 -49 -13 4 -21 -2 -29 -22 -15 -38 -14
-38 38 -12 26 14 69 34 95 46 34 15 47 26 43 36 -3 9 0 15 8 15 28 0 146 61
156 81 13 23 6 69 -10 69 -6 0 -10 -6 -10 -12 0 -10 -3 -9 -9 1 -5 7 -4 25 2
42 7 18 14 24 19 17 4 -7 10 -9 14 -5 4 3 2 13 -4 20 -21 24 -70 157 -61 163
5 3 9 32 9 65 0 63 6 71 35 39 13 -14 16 -30 13 -58 -6 -38 -5 -39 49 -68 68
-36 153 -128 193 -207 l30 -60 0 120 0 121 35 16 c69 33 96 -12 77 -126 -7
-38 -12 -92 -12 -121 -1 -57 -17 -87 -47 -87 -23 0 -43 -18 -43 -41 0 -20
-157 -291 -195 -335 -17 -21 -68 -50 -153 -89 -114 -51 -185 -95 -156 -95 6 0
9 -14 7 -32 -2 -18 -5 -138 -7 -265 -4 -187 -2 -233 9 -233 7 0 16 8 20 17 6
16 8 16 25 -5 13 -16 26 -22 39 -17 11 3 22 1 26 -5 3 -5 11 -10 16 -10 6 0 7
4 4 10 -3 5 -2 17 3 26 8 14 11 11 20 -15 6 -17 17 -31 24 -31 7 0 23 -3 35
-6 l22 -6 -5 204 c-3 111 -2 232 2 268 8 59 9 52 15 -88 4 -93 11 -158 18
-165 6 -6 41 -12 79 -14 37 -2 62 0 56 3 -8 3 -9 17 -3 42 4 21 9 61 11 90 2
28 6 52 11 52 4 0 7 8 7 18 0 10 14 32 30 50 36 39 36 45 9 88 -25 41 -21 121
8 142 14 10 15 15 5 21 -15 9 0 61 17 61 17 0 33 -40 27 -65 -4 -15 3 -39 20
-69 14 -25 23 -50 19 -56 -19 -31 -23 -102 -6 -108 21 -7 12 -73 -14 -104 -45
-53 -36 -63 55 -59 26 2 64 -6 90 -17 41 -17 46 -18 62 -3 12 12 15 27 11 56
-3 25 3 70 17 120 26 92 25 83 11 156 -10 48 -9 64 9 118 11 35 20 77 20 92 0
28 30 69 50 69 34 0 29 152 -9 250 -29 75 -36 145 -22 225 7 37 14 183 17 325
l5 257 -25 17 c-36 23 -132 21 -172 -3 l-32 -19 -6 -129 c-6 -123 -16 -183
-35 -212 -7 -11 -15 -11 -47 -1 -22 7 -43 16 -48 20 -10 10 -12 407 -1 471 11
75 0 81 -161 75 l-134 -5 0 24 c0 13 5 35 11 48 11 25 -4 69 -48 139 -17 26
-17 29 0 58 l18 30 -170 0 -171 0 17 -35z m365 -359 c13 -29 5 -56 -17 -56
-15 0 -17 4 -17 40 0 34 2 40 12 40 6 0 15 -11 22 -24z m111 -541 c-3 -8 -10
-15 -15 -15 -6 0 -5 -7 2 -15 11 -13 10 -14 -4 -9 -19 7 -21 35 -4 52 14 14
29 6 21 -13z m215 -621 c32 -9 30 -56 -4 -79 -20 -13 -28 -14 -40 -4 -8 6 -14
18 -14 25 0 8 -4 14 -9 14 -5 0 -7 9 -4 19 4 17 14 24 43 30 3 0 15 -2 28 -5z
m117 -461 c15 -38 22 -82 14 -94 -8 -13 -59 -21 -59 -9 0 3 -9 16 -20 28 l-21
22 33 34 c38 40 43 42 53 19z"/>
<path d="M6267 4896 c-15 -38 -52 -47 -264 -61 -275 -18 -407 -37 -367 -52 7
-2 10 -12 7 -21 -8 -31 31 -54 91 -56 34 -1 61 -8 73 -18 15 -13 49 -16 183
-19 273 -5 538 0 581 11 23 6 95 11 162 11 66 1 145 5 175 10 58 9 189 -4 228
-23 12 -5 31 -30 43 -54 20 -40 22 -59 22 -192 -1 -94 -6 -163 -15 -192 -7
-25 -19 -64 -26 -87 -7 -24 -19 -43 -27 -43 -7 0 -13 -6 -13 -14 0 -19 -19
-25 -101 -32 -75 -7 -119 -31 -119 -64 0 -10 -5 -22 -10 -25 -6 -3 -8 -16 -4
-29 4 -19 -1 -25 -33 -39 -21 -9 -47 -16 -57 -14 -14 1 -27 -13 -48 -53 -16
-30 -37 -58 -46 -62 -9 -4 -45 -7 -79 -7 -66 -1 -67 -1 -63 52 1 15 -3 27 -9
27 -6 0 -11 6 -11 14 0 32 -30 46 -101 46 l-69 0 -17 -37 c-32 -76 -38 -86
-60 -100 -14 -10 -33 -13 -49 -9 -23 6 -25 11 -19 34 4 15 9 44 12 64 5 36 4
37 -32 44 -50 9 -196 -1 -223 -15 -12 -7 -22 -17 -22 -24 0 -7 -7 -23 -16 -36
l-17 -24 -18 24 c-10 13 -19 32 -19 41 0 29 -34 38 -135 38 -96 0 -96 0 -126
-32 -16 -18 -29 -36 -29 -40 0 -5 -9 -17 -20 -28 -19 -19 -32 -21 -148 -19
-97 1 -140 -3 -179 -16 l-53 -17 0 -50 c0 -27 -7 -62 -15 -77 -10 -21 -12 -37
-5 -60 4 -17 11 -122 15 -233 4 -111 9 -206 11 -210 11 -17 30 -7 42 21 16 36
32 43 63 27 21 -10 24 -19 24 -64 l0 -52 55 -15 c62 -18 153 -56 158 -68 2 -4
9 -4 14 -1 6 4 8 2 5 -3 -8 -13 16 -35 33 -31 7 2 14 -5 15 -14 2 -12 -3 -18
-16 -18 -10 0 -19 -4 -19 -10 0 -5 5 -10 11 -10 5 0 7 -5 4 -10 -4 -6 -10 -8
-15 -5 -5 3 -15 -9 -24 -25 -15 -30 -15 -31 15 -37 16 -3 29 -11 29 -18 0 -18
-52 -26 -92 -14 -47 14 -128 -24 -128 -61 0 -41 12 -48 86 -53 39 -3 80 -9 90
-14 10 -5 46 -15 79 -22 33 -7 70 -19 82 -27 12 -8 29 -14 38 -14 8 0 15 -5
15 -10 0 -6 3 -9 8 -8 4 2 22 -11 40 -27 34 -30 62 -82 62 -115 0 -9 9 -29 20
-43 11 -14 20 -32 20 -39 0 -8 -27 -30 -59 -49 l-59 -34 31 -32 c17 -18 28
-35 26 -38 -3 -2 -31 -18 -63 -34 -36 -18 -53 -32 -46 -36 9 -6 9 -9 -1 -15
-9 -6 -10 -12 -2 -22 11 -13 16 -44 14 -85 -1 -13 -25 -46 -56 -77 -48 -49
-53 -56 -37 -65 22 -13 11 -14 -22 -1 -45 17 -28 3 32 -27 179 -90 285 -170
296 -224 7 -34 12 -41 81 -91 51 -36 479 -254 615 -313 41 -18 167 -74 280
-125 160 -72 383 -160 407 -160 2 0 3 711 3 1581 0 1447 -1 1581 -16 1575 -25
-10 -91 14 -103 38 -17 31 -16 71 2 174 9 50 17 107 17 125 0 18 4 37 8 43 5
5 15 36 22 69 7 33 25 94 41 135 24 62 29 90 29 162 l0 88 -84 0 c-47 0 -87
-4 -90 -9 -10 -16 -64 -20 -352 -26 -159 -3 -326 -8 -372 -11 -67 -4 -88 -2
-112 13 -17 9 -30 21 -30 25 0 14 -48 8 -53 -6z m-907 -1496 c0 -5 -7 -10 -16
-10 -8 0 -12 5 -9 10 3 6 10 10 16 10 5 0 9 -4 9 -10z m28 -117 c3 -21 -30
-53 -55 -53 -18 0 -33 33 -26 59 5 18 12 22 42 19 28 -2 37 -8 39 -25z m1134
-798 c6 -28 -8 -55 -27 -55 -11 0 -15 12 -15 38 0 21 3 41 6 45 11 11 32 -4
36 -28z"/>
<path d="M4420 3912 c0 -8 68 -72 77 -72 13 0 107 -90 126 -120 12 -19 30 -44
40 -55 17 -17 16 -14 -3 25 -36 72 -80 128 -134 170 -52 39 -106 66 -106 52z"/>
<path d="M4143 3798 c-15 -20 -23 -48 -14 -48 5 0 14 14 20 30 11 32 9 37 -6
18z"/>
<path d="M4526 3785 c9 -38 12 -42 20 -21 4 11 0 24 -10 34 -16 16 -17 15 -10
-13z"/>
<path d="M816 3736 c9 -23 32 -26 37 -5 4 15 0 19 -19 19 -16 0 -22 -4 -18
-14z"/>
<path d="M4632 3598 c-15 -19 -19 -61 -5 -65 16 -6 45 41 37 61 -7 19 -18 20
-32 4z"/>
<path d="M4682 3590 c0 -14 2 -19 5 -12 2 6 2 18 0 25 -3 6 -5 1 -5 -13z"/>
<path d="M4484 3575 c-4 -8 -13 -15 -21 -15 -11 0 -13 -11 -11 -42 2 -30 7
-43 18 -43 15 1 80 32 80 39 0 2 -7 20 -15 40 -16 37 -41 48 -51 21z"/>
<path d="M4354 3541 c-23 -10 -44 -26 -47 -35 -4 -9 -40 -33 -82 -52 -52 -26
-81 -47 -95 -69 -25 -41 -25 -53 1 -57 24 -3 27 -8 64 -88 28 -62 47 -90 63
-90 5 0 34 12 64 26 29 15 63 31 76 37 29 14 28 39 -4 127 -26 70 -27 71 -58
64 -29 -6 -38 -10 -86 -34 -11 -5 -26 -10 -34 -10 -8 0 -19 -7 -23 -15 -10
-17 -53 -9 -53 10 0 21 36 45 110 76 64 26 77 28 111 19 43 -12 63 -6 55 16
-3 7 2 17 10 22 10 6 14 19 12 38 -4 36 -28 41 -84 15z m46 -55 c0 -8 -4 -18
-10 -21 -5 -3 -10 3 -10 14 0 12 5 21 10 21 6 0 10 -6 10 -14z m-55 -122 c14
-9 25 -22 25 -29 0 -7 9 -32 19 -56 11 -24 19 -45 17 -46 -2 -2 -16 3 -32 11
-32 17 -43 13 -24 -9 17 -21 7 -29 -20 -15 -26 14 -38 6 -22 -13 17 -21 2 -28
-22 -12 -11 8 -28 15 -38 15 -26 0 -54 59 -39 82 6 10 9 23 6 28 -4 6 1 10 9
10 9 0 16 -4 16 -10 0 -5 7 -7 16 -3 8 3 13 12 10 20 -5 12 0 13 25 8 28 -6
30 -5 24 14 -8 25 -2 26 30 5z m-85 -185 c0 -6 -4 -7 -10 -4 -5 3 -10 11 -10
16 0 6 5 7 10 4 6 -3 10 -11 10 -16z"/>
<path d="M4320 3284 c0 -8 5 -12 10 -9 6 4 8 11 5 16 -9 14 -15 11 -15 -7z"/>
<path d="M4560 3537 c0 -27 13 -36 26 -16 3 6 -1 18 -10 27 -15 15 -16 14 -16
-11z"/>
<path d="M3015 3502 l-70 -3 -20 -42 c-13 -26 -32 -47 -50 -55 -32 -15 -88
-79 -80 -93 3 -4 26 -11 51 -15 54 -8 69 -27 78 -101 5 -37 2 -63 -9 -89 -12
-30 -13 -39 -3 -46 10 -6 10 -10 -2 -17 -10 -7 -17 -6 -22 2 -6 9 -8 9 -8 0 0
-6 -19 -14 -42 -18 -66 -10 -118 -36 -118 -61 0 -17 10 -22 64 -32 35 -7 72
-9 82 -5 14 5 16 3 10 -13 -6 -16 -4 -16 14 4 12 12 18 27 14 34 -4 6 -3 8 4
4 15 -9 79 109 108 198 26 83 77 321 72 339 -2 8 -25 11 -73 9z"/>
<path d="M3750 3300 c0 -24 -8 -34 -67 -94 -24 -23 -43 -50 -43 -59 0 -9 -9
-26 -20 -37 -11 -11 -20 -26 -20 -34 0 -14 -41 -46 -60 -46 -6 0 -19 -7 -28
-16 -19 -19 -129 -15 -141 5 -6 8 -25 -19 -58 -81 -73 -135 -113 -217 -129
-259 -14 -43 -18 -40 68 -59 39 -8 55 -7 89 6 22 9 37 20 32 23 -13 10 -14 32
-2 47 17 21 38 17 49 -10 8 -22 12 -23 47 -15 22 4 58 17 82 27 50 23 114 15
161 -18 42 -30 86 -90 95 -127 3 -18 11 -36 17 -39 7 -5 9 1 5 15 -4 18 -2 21
14 16 10 -4 19 -2 19 2 0 5 14 9 32 8 37 0 48 29 17 45 -24 13 -47 59 -42 85
11 55 23 65 84 65 55 0 59 -2 74 -31 9 -17 17 -43 17 -59 l1 -28 61 29 c34 16
69 29 79 29 15 0 17 14 17 158 0 98 -6 183 -15 225 -18 85 -90 210 -124 215
-34 5 -54 -17 -47 -51 9 -43 -10 -105 -34 -112 -15 -5 -30 4 -58 32 -21 21
-58 47 -82 58 -56 25 -81 53 -73 83 3 13 1 22 -6 22 -6 0 -11 -9 -11 -20z"/>
<path d="M3198 3093 c6 -2 18 -2 25 0 6 3 1 5 -13 5 -14 0 -19 -2 -12 -5z"/>
<path d="M2380 2900 c0 -5 5 -10 11 -10 5 0 7 5 4 10 -3 6 -8 10 -11 10 -2 0
-4 -4 -4 -10z"/>
<path d="M3840 2283 c0 -17 6 -23 23 -23 16 0 18 3 8 9 -7 5 -17 15 -22 22 -6
10 -9 8 -9 -8z"/>
<path d="M3860 2227 c0 -8 14 -34 32 -58 l32 -44 7 30 c4 22 1 34 -13 47 -10
9 -18 21 -18 27 0 6 -9 11 -20 11 -11 0 -20 -6 -20 -13z"/>
<path d="M3637 2192 c20 -13 -7 -61 -31 -59 -13 1 -22 -6 -27 -23 -7 -25 -7
-24 -14 8 -4 17 -11 32 -15 32 -11 0 -23 -31 -22 -55 1 -16 0 -17 -4 -2 -3 9
-10 15 -15 12 -5 -4 -9 -1 -9 4 0 6 -4 11 -10 11 -5 0 -10 -9 -10 -20 0 -10
-7 -23 -17 -28 -10 -6 -14 -16 -10 -26 4 -9 2 -16 -3 -16 -6 0 -10 5 -10 10 0
19 -17 10 -28 -15 -7 -14 -20 -25 -31 -25 -11 0 -22 -8 -24 -17 -4 -16 -5 -16
-6 1 -1 17 -4 16 -35 -8 -19 -14 -39 -26 -44 -26 -6 0 -12 -4 -14 -9 -5 -14
-58 -25 -58 -13 0 8 -9 8 -30 1 -16 -6 -30 -17 -30 -25 0 -8 -10 -14 -25 -14
-14 0 -33 -9 -42 -20 -13 -15 -30 -20 -65 -20 -36 0 -48 -4 -48 -15 0 -15 -16
-20 -60 -16 -24 2 -24 1 5 -14 43 -23 44 -28 6 -20 -33 7 -92 -14 -116 -41
-19 -21 -77 -35 -92 -23 -7 7 -17 9 -20 5 -4 -4 -2 -10 5 -15 8 -5 5 -12 -10
-25 -17 -15 -25 -17 -41 -7 -16 10 -22 9 -38 -10 -22 -26 -24 -35 -6 -42 7 -3
5 -6 -6 -6 -10 -1 -22 -12 -27 -26 -10 -27 -50 -35 -50 -10 0 8 -4 15 -9 15
-13 0 -22 -28 -11 -35 13 -8 13 -25 0 -25 -5 0 -10 7 -10 15 0 24 -26 17 -27
-7 -1 -57 -2 -59 -22 -46 -25 15 -68 -5 -84 -39 -5 -12 -23 -25 -39 -28 -19
-5 -28 -12 -26 -23 2 -12 -3 -16 -17 -13 -39 7 -50 6 -48 -6 3 -14 -32 -27
-47 -18 -6 4 -16 2 -23 -3 -24 -19 -64 -22 -77 -7 -7 8 -18 15 -24 15 -6 0 -2
-8 9 -17 19 -15 19 -15 -5 -9 -14 3 -35 9 -47 12 -27 8 -31 -10 -5 -26 16 -11
16 -11 -1 -6 -48 15 -67 17 -67 8 0 -6 9 -13 19 -17 12 -4 18 -12 14 -20 -3
-8 -9 -12 -14 -9 -5 3 -7 9 -5 13 3 4 -15 8 -39 9 -24 0 -50 4 -57 8 -18 11
-58 14 -58 4 0 -5 9 -14 20 -20 25 -13 16 -34 -11 -27 -12 3 -19 0 -19 -8 0
-22 -17 -27 -33 -10 -18 17 -37 20 -37 5 0 -5 7 -10 15 -10 22 0 18 -17 -5
-23 -13 -3 -20 0 -20 9 0 18 -14 18 -30 -1 -7 -8 -20 -15 -28 -15 -12 0 -9 -5
8 -17 14 -10 34 -16 45 -14 16 2 17 1 6 -12 -14 -18 -52 -9 -83 20 -20 18 -20
18 -23 -14 -1 -15 2 -20 12 -16 8 3 13 0 11 -8 -2 -8 7 -15 20 -17 27 -4 29
-22 2 -22 -11 0 -20 4 -20 9 0 5 -19 7 -41 4 -39 -6 -41 -5 -34 15 6 21 4 22
-43 18 -32 -3 -57 0 -68 9 -16 12 -17 16 -4 41 8 16 16 33 19 38 2 5 -11 -1
-28 -13 -18 -13 -40 -21 -51 -18 -28 7 -12 -24 30 -59 63 -52 84 -73 78 -79
-3 -3 -13 2 -23 11 -17 17 -18 17 -31 -1 -7 -10 -11 -22 -8 -26 10 -17 -6 -9
-28 13 -24 24 -39 9 -17 -18 10 -12 9 -20 -2 -40 -11 -22 -19 -25 -49 -21 -19
3 -46 2 -58 -2 l-24 -6 21 -19 c20 -18 29 -46 14 -46 -3 0 -21 11 -39 25 -18
14 -41 25 -51 25 -15 0 -15 -3 6 -19 14 -11 19 -21 13 -25 -5 -3 -13 1 -16 9
-4 11 -13 14 -31 9 -18 -4 -25 -2 -25 8 0 7 -9 14 -21 15 -20 2 -20 2 2 -18
16 -13 19 -23 12 -30 -7 -7 -21 -1 -44 21 -24 22 -35 27 -37 16 -2 -8 -11 -12
-23 -9 -20 6 -27 -13 -7 -19 7 -3 8 -9 3 -19 -10 -14 -11 -19 -13 -54 -2 -15
-5 -16 -14 -7 -20 20 -29 14 -23 -15 3 -16 2 -22 -1 -15 -8 17 -34 15 -34 -3
0 -19 -24 -19 -40 0 -14 16 -40 20 -40 6 0 -5 7 -14 15 -21 19 -16 19 -34 0
-26 -8 3 -22 9 -30 12 -11 4 -15 0 -15 -15 0 -24 -25 -29 -34 -6 -3 8 -12 12
-21 9 -8 -4 -22 0 -31 7 -13 11 -17 10 -25 -4 -6 -9 -17 -17 -26 -17 -9 0 -13
-6 -10 -14 3 -8 -2 -16 -13 -19 -11 -3 -21 1 -24 9 -6 16 -39 18 -66 4 -15 -8
-18 -17 -13 -41 6 -29 5 -30 -15 -18 -27 17 -37 7 -22 -20 9 -17 8 -21 -4 -21
-9 0 -20 9 -27 21 -8 15 -14 18 -22 10 -7 -7 -7 -14 0 -23 5 -7 13 -21 16 -31
8 -22 -11 -13 -31 15 -18 25 -31 23 -64 -14 -25 -28 -31 -31 -48 -20 -21 13
-24 10 -34 -31 -9 -38 -26 -24 -26 22 0 24 -8 47 -20 61 l-20 23 0 -36 c0 -20
-5 -39 -10 -42 -6 -3 -10 -15 -10 -26 0 -21 -15 -26 -25 -8 -4 6 -19 10 -33 9
-59 -4 -70 0 -81 28 -9 23 -9 21 -4 -15 4 -29 2 -43 -6 -43 -6 0 -11 6 -11 14
0 17 -24 27 -45 20 -13 -6 -15 -46 -15 -300 l1 -294 34 0 c24 0 35 5 38 18 4
16 5 16 6 0 1 -13 10 -18 31 -18 25 0 30 4 30 25 0 14 2 25 5 25 16 0 55 -26
55 -37 0 -11 595 -13 3580 -13 l3580 0 0 239 c0 258 2 251 -54 251 -13 0 -39
11 -59 24 -20 14 -57 28 -83 32 -26 4 -54 15 -62 25 -11 13 -30 19 -58 19 -25
0 -47 6 -54 15 -8 10 -31 15 -71 15 -34 0 -62 5 -69 13 -5 6 -18 23 -28 36
-16 21 -21 22 -40 10 -11 -7 -25 -9 -29 -5 -4 5 -2 11 5 13 15 6 16 33 1 33
-14 0 -39 -25 -39 -39 0 -6 -4 -11 -10 -11 -5 0 -10 7 -10 16 0 9 -13 21 -30
27 -17 7 -30 19 -30 28 0 10 -17 28 -37 40 -21 13 -40 26 -43 30 -9 13 -26 -4
-37 -36 -8 -24 -16 -30 -39 -30 -32 -1 -84 -23 -84 -37 0 -5 -7 -16 -15 -25
-14 -14 -14 -18 0 -39 8 -13 15 -30 15 -39 0 -8 6 -15 14 -15 8 0 17 -16 21
-37 4 -22 23 -57 46 -83 78 -90 80 -91 126 -89 35 3 48 -2 71 -24 33 -32 39
-33 45 -10 4 20 2 24 29 -49 7 -18 18 -28 30 -28 11 0 29 -11 40 -25 11 -14
26 -25 34 -25 9 0 22 -7 30 -15 9 -8 11 -15 5 -15 -6 0 -11 -18 -11 -40 0 -27
-6 -42 -17 -49 -10 -6 -13 -11 -6 -11 6 0 14 4 17 8 8 13 79 8 84 -6 2 -7 -1
-12 -7 -12 -6 0 -11 3 -11 8 0 8 -57 8 -66 -1 -4 -4 5 -11 19 -16 14 -5 28
-14 31 -19 3 -6 -17 1 -44 15 -29 14 -47 29 -43 35 4 7 -2 9 -15 6 -12 -4 -25
-2 -28 4 -3 5 -17 13 -31 19 -14 5 -21 14 -17 21 4 7 3 8 -4 4 -15 -9 -54 12
-47 24 3 6 0 7 -8 4 -13 -4 -62 15 -122 49 -11 6 -35 19 -54 29 -18 9 -49 31
-67 48 -18 16 -36 30 -38 30 -5 0 -89 49 -484 284 -85 50 -170 105 -190 122
l-35 30 29 29 c16 16 37 28 46 27 9 -2 30 4 47 12 28 15 39 37 67 143 1 6 17
14 35 18 31 7 32 8 13 22 -16 12 -17 15 -4 23 8 5 18 10 21 10 4 0 6 7 5 17 0
9 15 25 39 37 47 25 55 49 26 80 -12 13 -19 30 -16 38 4 9 -3 21 -18 31 -31
20 -46 78 -41 157 l4 65 -24 -29 c-14 -17 -23 -33 -21 -37 3 -3 -3 -21 -12
-39 -9 -18 -18 -47 -20 -64 -1 -17 -12 -43 -23 -58 -11 -15 -20 -30 -20 -34 0
-4 -8 -16 -17 -26 -14 -15 -15 -23 -6 -38 10 -14 9 -21 -2 -30 -7 -6 -16 -34
-20 -63 -4 -29 -12 -58 -17 -64 -6 -7 -11 -30 -12 -52 -1 -22 -10 -46 -20 -57
-10 -10 -27 -38 -38 -63 -17 -41 -69 -101 -86 -101 -4 0 -27 14 -52 30 -25 16
-49 30 -55 30 -5 0 -52 29 -104 65 -52 36 -119 73 -148 82 l-53 17 -43 -41
c-98 -94 -149 -105 -407 -92 -193 10 -274 24 -425 69 -49 15 -121 33 -160 40
-60 11 -75 19 -118 59 l-49 46 6 67 c5 58 3 73 -18 115 -14 26 -36 63 -50 82
-14 19 -26 44 -26 55 1 20 1 20 20 -3 19 -21 20 -22 27 -5 3 11 10 22 15 25 5
3 4 27 -2 54 -11 51 -8 114 10 159 5 15 8 32 4 37 -3 5 0 9 6 9 14 0 4 96 -18
167 -7 21 -7 35 -1 39 6 4 6 10 0 18 -6 7 -9 15 -6 17 9 9 12 80 4 85 -5 3
-16 -2 -25 -10 -8 -9 -12 -16 -8 -16 4 0 -11 -14 -35 -31 -36 -27 -46 -30 -67
-21 -27 13 -32 40 -9 48 8 4 15 14 15 24 0 10 6 20 13 23 10 4 10 7 0 18 -10
10 -13 10 -13 1 0 -28 -40 10 -50 47 -6 21 -17 42 -25 45 -8 3 -15 12 -15 20
0 9 -12 24 -27 33 -15 10 -37 28 -50 40 -12 13 -28 23 -35 23 -10 0 -10 -2 -1
-8z m163 -312 c0 -5 -4 -10 -10 -10 -5 0 -10 5 -10 10 0 6 5 10 10 10 6 0 10
-4 10 -10z m-1153 -266 c-3 -3 -12 -4 -19 -1 -8 3 -5 6 6 6 11 1 17 -2 13 -5z
m384 -34 c5 0 9 -4 9 -10 0 -16 -26 -12 -41 7 -12 15 -12 16 4 10 10 -4 23 -7
28 -7z m-141 -30 c0 -5 -2 -10 -4 -10 -3 0 -8 5 -11 10 -3 6 -1 10 4 10 6 0
11 -4 11 -10z m-527 -137 c-7 -2 -21 -2 -30 0 -10 3 -4 5 12 5 17 0 24 -2 18
-5z m-523 -93 c0 -5 -5 -10 -11 -10 -5 0 -7 5 -4 10 3 6 8 10 11 10 2 0 4 -4
4 -10z m70 -30 c12 -8 11 -10 -7 -10 -12 0 -25 5 -28 10 -8 13 15 13 35 0z
m-40 -21 c0 -14 -17 -10 -23 5 -4 10 -1 13 9 9 7 -3 14 -9 14 -14z m1950 -9
c0 -5 -5 -10 -11 -10 -5 0 -7 5 -4 10 3 6 8 10 11 10 2 0 4 -4 4 -10z m-865
-46 c26 -18 39 -18 31 1 -12 33 32 12 111 -52 78 -63 82 -68 66 -85 -10 -12
-29 -18 -52 -17 -20 1 -28 3 -18 6 18 5 21 25 8 58 -8 19 -8 19 -19 -1 -8 -16
-19 -20 -44 -17 -63 7 -73 7 -98 0 -14 -3 -51 -11 -82 -17 -34 -7 -58 -17 -58
-24 0 -8 -70 -33 -187 -65 -219 -62 -253 -73 -253 -81 0 -4 -18 -15 -40 -25
-32 -14 -43 -16 -53 -6 -9 9 -7 13 11 18 21 5 21 6 5 19 -16 12 -15 13 13 14
38 0 52 30 23 49 -11 6 -19 16 -19 22 0 16 62 0 77 -20 11 -14 14 -14 23 -1 9
14 7 29 -8 69 -4 11 -1 11 17 1 13 -6 30 -9 39 -5 14 5 11 9 -13 20 l-30 13
27 1 c15 1 33 8 42 16 16 17 30 20 22 6 -6 -9 26 -18 74 -20 14 -1 34 -3 45
-5 11 -1 27 5 36 16 10 10 23 16 32 12 12 -4 15 0 14 15 -1 23 -12 28 -21 9
-3 -7 -4 -4 -3 7 1 14 -7 23 -28 30 -16 5 -31 18 -33 27 -2 16 0 16 23 6 14
-6 25 -15 25 -20 0 -5 11 -1 26 8 19 13 28 14 37 5 6 -6 22 -11 35 -11 21 0
23 2 11 16 -11 14 -9 15 27 9 21 -4 63 -18 92 -31 65 -30 85 -30 52 -1 -14 12
-32 31 -40 41 -14 18 -13 18 10 11 14 -4 34 -14 45 -21z m-1215 4 c0 -4 -18
-8 -41 -8 -22 0 -38 4 -35 9 7 11 76 10 76 -1z m1137 6 c-3 -3 -12 -4 -19 -1
-8 3 -5 6 6 6 11 1 17 -2 13 -5z m247 -40 c5 -14 4 -15 -9 -4 -17 14 -19 20
-6 20 5 0 12 -7 15 -16z m85 -48 c-4 -5 -5 -15 -2 -24 4 -9 2 -13 -3 -9 -6 3
-9 25 -8 49 3 56 5 59 13 23 4 -16 4 -34 0 -39z m-614 24 c3 -5 14 -10 25 -10
19 0 34 -25 24 -41 -3 -5 -11 -9 -17 -8 -9 0 -8 2 1 6 19 7 4 23 -24 23 -13 0
-24 5 -24 10 0 6 -7 10 -15 10 -8 0 -15 5 -15 10 0 6 9 10 19 10 11 0 23 -4
26 -10z m665 -9 c0 -11 5 -23 10 -26 12 -8 13 -45 1 -45 -5 0 -12 12 -15 28
-4 15 -9 35 -12 45 -3 9 -1 17 5 17 6 0 11 -9 11 -19z m-1718 -44 c8 -16 7
-17 -9 -8 -25 15 -63 48 -63 56 0 12 62 -30 72 -48z m225 31 c-3 -8 -6 -5 -6
6 -1 11 2 17 5 13 3 -3 4 -12 1 -19z m1388 12 c3 -5 2 -10 -4 -10 -5 0 -13 5
-16 10 -3 6 -2 10 4 10 5 0 13 -4 16 -10z m315 -20 c0 -5 -4 -10 -10 -10 -5 0
-10 5 -10 10 0 6 5 10 10 10 6 0 10 -4 10 -10z m-873 -26 c-7 -7 -37 7 -37 17
0 6 9 5 21 -1 11 -7 19 -14 16 -16z m803 16 c0 -5 -4 -10 -10 -10 -5 0 -10 5
-10 10 0 6 5 10 10 10 6 0 10 -4 10 -10z m-51 -21 c-7 -4 -17 -5 -22 -2 -5 3
-3 9 4 14 7 4 17 5 22 2 5 -3 3 -9 -4 -14z m-119 -25 c0 -2 -12 -4 -26 -4 -14
0 -23 4 -20 9 6 8 46 4 46 -5z m-860 -29 c0 -8 -4 -15 -9 -15 -5 0 -11 7 -15
15 -3 9 0 15 9 15 8 0 15 -7 15 -15z m-140 -95 c0 -5 -2 -10 -4 -10 -3 0 -8 5
-11 10 -3 6 -1 10 4 10 6 0 11 -4 11 -10z m15 -61 c4 -6 5 -12 2 -15 -7 -7
-37 7 -37 17 0 13 27 11 35 -2z m-1180 -9 c3 -6 -1 -7 -9 -4 -18 7 -21 14 -7
14 6 0 13 -4 16 -10z m1111 -9 c36 -18 37 -19 14 -23 -14 -2 -37 -2 -51 0 -21
3 -25 8 -22 23 7 24 10 24 59 0z m-106 -1 c12 -8 9 -10 -12 -10 -16 0 -28 5
-28 10 0 13 20 13 40 0z m-26 -26 c18 4 47 3 65 0 28 -6 31 -8 16 -17 -26 -14
-89 -10 -124 8 -17 8 -31 18 -31 21 0 2 9 0 21 -7 12 -6 36 -8 53 -5z m-1299
-103 c-6 -5 -25 10 -25 20 0 5 6 4 14 -3 8 -7 12 -15 11 -17z m1022 -73 c-3
-8 -6 -5 -6 6 -1 11 2 17 5 13 3 -3 4 -12 1 -19z m-317 -74 c0 -8 -4 -12 -10
-9 -5 3 -10 10 -10 16 0 5 5 9 10 9 6 0 10 -7 10 -16z m5510 7 c0 -10 -50 -19
-68 -13 -27 9 -9 22 28 22 22 0 40 -4 40 -9z m-6580 -62 c0 -11 -4 -17 -10
-14 -5 3 -10 13 -10 21 0 8 5 14 10 14 6 0 10 -9 10 -21z m1060 -1 c0 -6 -6
-5 -15 2 -8 7 -15 14 -15 16 0 2 7 1 15 -2 8 -4 15 -11 15 -16z m-1140 -238
c0 -5 -7 -10 -15 -10 -8 0 -15 5 -15 10 0 6 7 10 15 10 8 0 15 -4 15 -10z
m-75 -58 c12 -23 41 -60 64 -83 33 -33 46 -40 65 -35 34 8 56 -17 56 -62 l-1
-37 -21 25 c-11 14 -25 24 -31 22 -5 -2 -16 6 -24 18 -22 31 -45 26 -37 -7 l6
-28 -17 24 c-14 19 -15 25 -4 31 11 7 10 13 -5 29 -11 12 -27 21 -36 21 -10 0
-23 7 -30 15 -7 8 -9 15 -6 15 4 0 0 10 -8 22 -11 15 -12 26 -5 40 6 12 6 18
-1 18 -5 0 -10 5 -10 11 0 22 23 2 45 -39z m370 28 c3 -5 2 -10 -4 -10 -5 0
-13 5 -16 10 -3 6 -2 10 4 10 5 0 13 -4 16 -10z m164 -26 c6 -14 11 -28 11
-31 0 -13 -38 29 -43 47 -7 27 18 14 32 -16z m-330 -2 c-14 -5 -39 6 -39 17 0
5 11 4 25 -2 13 -7 20 -14 14 -15z m-109 -38 c0 -8 -4 -14 -10 -14 -5 0 -10 2
-10 4 0 2 -3 12 -6 20 -5 12 -2 15 10 10 9 -3 16 -12 16 -20z m295 16 c3 -5 1
-10 -4 -10 -6 0 -11 5 -11 10 0 6 2 10 4 10 3 0 8 -4 11 -10z m123 -13 c5 -24
-15 -21 -21 4 -3 13 -1 19 6 16 7 -2 13 -11 15 -20z m-175 -34 c-3 -7 -9 -10
-14 -7 -14 8 -11 21 5 21 8 0 12 -6 9 -14z m-425 -28 c12 -13 32 -27 45 -31
24 -5 52 -46 40 -57 -12 -12 -123 78 -123 100 0 20 14 16 38 -12z m472 15 c0
-5 -2 -10 -4 -10 -3 0 -8 5 -11 10 -3 6 -1 10 4 10 6 0 11 -4 11 -10z m-572
-89 c3 -8 -1 -12 -9 -9 -7 2 -15 10 -17 17 -3 8 1 12 9 9 7 -2 15 -10 17 -17z
m512 15 c0 -3 -4 -8 -10 -11 -5 -3 -10 -1 -10 4 0 6 5 11 10 11 6 0 10 -2 10
-4z m-280 -46 c0 -5 -4 -10 -10 -10 -5 0 -10 5 -10 10 0 6 5 10 10 10 6 0 10
-4 10 -10z"/>
<path d="M2798 1183 c7 -3 16 -2 19 1 4 3 -2 6 -13 5 -11 0 -14 -3 -6 -6z"/>
<path d="M3580 2160 c0 -5 5 -10 11 -10 5 0 7 5 4 10 -3 6 -8 10 -11 10 -2 0
-4 -4 -4 -10z"/>
<path d="M3295 2000 c3 -5 8 -10 11 -10 2 0 4 5 4 10 0 6 -5 10 -11 10 -5 0
-7 -4 -4 -10z"/>
<path d="M5565 1890 c3 -5 8 -10 11 -10 2 0 4 5 4 10 0 6 -5 10 -11 10 -5 0
-7 -4 -4 -10z"/>
<path d="M4235 1830 c-3 -5 -1 -10 4 -10 6 0 11 5 11 10 0 6 -2 10 -4 10 -3 0
-8 -4 -11 -10z"/>
<path d="M4210 1760 c0 -5 5 -10 10 -10 6 0 10 5 10 10 0 6 -4 10 -10 10 -5 0
-10 -4 -10 -10z"/>
<path d="M4400 1629 c0 -5 5 -7 10 -4 6 3 10 8 10 11 0 2 -4 4 -10 4 -5 0 -10
-5 -10 -11z"/>
<path d="M1438 1373 c7 -3 16 -2 19 1 4 3 -2 6 -13 5 -11 0 -14 -3 -6 -6z"/>
<path d="M1480 1370 c0 -6 7 -10 15 -10 8 0 15 2 15 4 0 2 -7 6 -15 10 -8 3
-15 1 -15 -4z"/>
<path d="M1465 1330 c-24 -6 -27 -8 -12 -14 9 -5 24 -5 33 -2 9 4 23 1 30 -5
7 -6 19 -9 26 -7 26 9 -46 35 -77 28z"/>
<path d="M1720 1320 c0 -5 5 -10 10 -10 6 0 10 5 10 10 0 6 -4 10 -10 10 -5 0
-10 -4 -10 -10z"/>
<path d="M1183 1260 c-13 -5 -23 -13 -23 -19 0 -10 35 -21 70 -20 24 0 24 0
-5 14 l-30 15 48 -3 c32 -1 47 2 47 10 0 15 -73 17 -107 3z"/>
<path d="M1510 1265 c0 -6 5 -16 11 -22 9 -9 6 -10 -11 -6 -22 6 -22 6 -4 -16
19 -21 54 -29 54 -12 0 14 -49 68 -50 56z"/>
<path d="M1638 1263 c6 -2 18 -2 25 0 6 3 1 5 -13 5 -14 0 -19 -2 -12 -5z"/>
<path d="M6225 980 c3 -5 8 -10 11 -10 2 0 4 5 4 10 0 6 -5 10 -11 10 -5 0 -7
-4 -4 -10z"/>
<path d="M6340 905 c0 -11 34 -75 41 -75 8 0 19 36 19 63 0 12 -8 17 -30 17
-16 0 -30 -2 -30 -5z"/>
<path d="M6440 867 c0 -8 32 -67 36 -67 2 0 4 16 4 35 0 28 -4 35 -20 35 -11
0 -20 -2 -20 -3z"/>
<path d="M6720 739 c0 -5 5 -7 10 -4 6 3 10 8 10 11 0 2 -4 4 -10 4 -5 0 -10
-5 -10 -11z"/>
<path d="M6570 250 c8 -5 20 -10 25 -10 6 0 3 5 -5 10 -8 5 -19 10 -25 10 -5
0 -3 -5 5 -10z"/>
</g>
</svg>
