<?xml version="1.0" standalone="no"?>
<!DOCTYPE svg PUBLIC "-//W3C//DTD SVG 20010904//EN"
 "http://www.w3.org/TR/2001/REC-SVG-20010904/DTD/svg10.dtd">
<svg version="1.0" xmlns="http://www.w3.org/2000/svg"
 width="626.000000pt" height="388.000000pt" viewBox="0 0 626.000000 388.000000"
 preserveAspectRatio="xMidYMid meet">

<g transform="translate(0.000000,388.000000) scale(0.100000,-0.100000)"
fill="#000000" stroke="none">
<path d="M0 1940 l0 -1940 640 0 c516 0 640 3 640 13 0 7 -6 38 -14 68 -23 88
-39 188 -32 205 6 15 8 15 26 -1 17 -15 24 -16 45 -7 14 6 31 9 39 6 19 -7 62
-108 74 -174 14 -76 29 -110 47 -110 18 0 18 -2 -1 51 -31 89 -84 339 -71 339
12 0 107 -343 107 -387 0 -2 13 -3 29 -3 35 0 31 -18 57 270 9 102 26 250 39
330 55 341 60 360 91 360 7 0 28 18 46 40 18 23 43 53 55 67 26 32 21 41 -44
74 -26 13 -68 46 -93 73 -25 27 -81 85 -125 130 -72 73 -265 304 -273 327 -7
17 -22 9 -22 -11 0 -23 -41 -109 -52 -110 -5 0 -8 9 -8 19 0 11 -4 22 -9 26
-22 13 -22 66 -1 110 24 51 28 40 -46 130 -56 68 -286 397 -364 520 -98 155
-256 473 -289 583 -120 398 -187 607 -213 667 -26 58 -49 167 -58 273 0 1 -49
2 -110 2 l-110 0 0 -1940z m702 488 c-7 -7 -12 -8 -12 -2 0 14 12 26 19 19 2
-3 -1 -11 -7 -17z m376 -734 c2 -16 8 -20 28 -16 28 5 32 -13 9 -44 -12 -16
-16 -17 -24 -4 -8 12 -13 12 -29 -4 -11 -10 -23 -13 -26 -8 -3 5 -21 12 -39
14 -29 3 -41 -3 -83 -44 -54 -53 -68 -58 -84 -29 -20 39 -2 137 22 113 6 -6
17 -8 24 -5 8 3 18 -5 24 -21 5 -14 13 -26 16 -26 4 0 23 17 43 38 60 65 113
81 119 36z m153 -371 c-6 -59 -16 -178 -21 -263 -6 -85 -12 -156 -14 -158 -2
-1 -9 26 -17 63 l-13 65 -47 0 c-53 0 -72 15 -67 57 4 36 58 55 86 29 30 -26
42 -19 42 24 0 35 -3 39 -22 37 -18 -2 -24 4 -26 26 -4 34 23 48 43 21 16 -22
14 -26 41 124 9 51 18 91 21 88 3 -2 0 -53 -6 -113z m395 -75 c29 -28 30 -38
6 -38 -23 0 -56 35 -47 49 9 15 14 14 41 -11z m-46 -78 c0 -5 -2 -10 -4 -10
-3 0 -8 5 -11 10 -3 6 -1 10 4 10 6 0 11 -4 11 -10z m80 -70 c0 -5 -4 -10 -10
-10 -5 0 -10 5 -10 10 0 6 5 10 10 10 6 0 10 -4 10 -10z m-44 -52 c26 -25 30
-38 12 -38 -16 0 -48 31 -48 47 0 19 9 16 36 -9z m-471 -129 l0 -44 -38 1
c-47 2 -54 8 -33 30 10 9 24 28 33 41 23 34 38 23 38 -28z m463 -78 c3 -8 -1
-12 -9 -9 -7 2 -15 10 -17 17 -3 8 1 12 9 9 7 -2 15 -10 17 -17z m-559 -22
c14 -42 14 -49 -4 -49 -19 0 -49 46 -41 65 9 25 33 17 45 -16z"/>
<path d="M474 3851 c-1 -14 1 -20 3 -13 3 6 18 12 34 12 25 0 42 17 22 22 -44
9 -58 4 -59 -21z"/>
<path d="M1140 3869 c0 -5 11 -14 25 -19 24 -9 29 -22 26 -65 -2 -16 0 -17 8
-5 8 12 12 10 19 -10 5 -14 7 -31 5 -37 -3 -8 3 -13 16 -13 17 0 21 -6 21 -35
0 -19 4 -35 9 -35 10 0 9 -19 -2 -37 -5 -8 -3 -13 4 -13 7 0 5 -6 -6 -13 -17
-13 -17 -14 3 -19 12 -3 23 -1 25 6 2 6 2 1 1 -11 -2 -12 1 -25 7 -28 6 -4 8
-18 5 -31 -4 -14 -2 -24 4 -24 5 0 10 5 10 11 0 5 5 7 10 4 6 -4 10 7 10 24 0
18 -5 31 -12 31 -9 0 -8 4 2 10 12 8 12 12 2 19 -7 4 -15 17 -17 27 -2 10 -4
19 -5 19 -1 0 -3 9 -4 20 -5 43 -30 95 -43 91 -10 -4 -12 1 -7 18 3 15 -1 29
-11 39 -9 9 -14 21 -11 26 3 5 0 14 -8 20 -11 9 -15 9 -19 -1 -3 -7 -5 -2 -4
11 2 19 -3 24 -30 26 -18 1 -33 -1 -33 -6z"/>
<path d="M3282 3790 c-17 -52 -51 -153 -76 -225 -25 -71 -46 -143 -46 -159 0
-37 -77 -255 -136 -383 -8 -17 -14 -39 -14 -50 0 -52 -202 -375 -222 -355 -12
12 10 71 48 123 19 26 34 50 34 54 0 3 32 72 71 153 40 81 85 179 101 217 40
97 78 239 67 256 -4 8 -6 23 -3 34 5 20 1 21 -95 22 -54 1 -108 6 -119 12 -11
6 -28 8 -38 4 -14 -5 -16 -2 -12 15 6 22 -6 40 -16 23 -10 -15 15 -72 45 -102
41 -42 42 -72 3 -104 -13 -11 -39 -42 -57 -69 -31 -49 -34 -51 -142 -86 -110
-36 -110 -36 -125 -78 -19 -51 -22 -54 -91 -81 -31 -12 -80 -38 -110 -58 -29
-19 -66 -41 -81 -49 -56 -29 -168 -172 -168 -214 0 -6 17 5 38 25 48 47 146
105 177 105 25 0 82 -24 155 -65 25 -14 56 -25 70 -25 14 0 30 -4 36 -8 20
-13 10 -85 -19 -137 -15 -27 -32 -57 -36 -65 -6 -9 -21 -14 -40 -12 -29 2
-281 -45 -364 -69 -25 -7 -41 -18 -47 -35 -13 -32 -47 -32 -62 1 -17 37 -59
31 -71 -10 -5 -16 -15 -42 -23 -58 -20 -41 -3 -81 33 -74 39 7 53 -2 53 -33 0
-42 14 -44 65 -8 37 26 57 33 110 36 61 4 71 1 173 -47 59 -28 113 -51 119
-51 7 0 16 8 22 17 8 16 14 14 61 -15 28 -18 56 -32 61 -32 6 0 7 -5 4 -10 -4
-7 -12 -7 -25 0 -10 5 -29 10 -42 9 -22 -1 -21 -1 5 -11 47 -17 32 -35 -40
-47 -125 -21 -133 -23 -133 -31 0 -10 47 -30 73 -30 24 0 128 31 168 50 23 10
36 8 102 -20 42 -17 81 -38 88 -46 6 -8 27 -14 46 -14 50 0 37 -22 -23 -37
l-49 -12 55 6 c32 3 59 12 66 21 9 12 23 14 69 9 43 -4 55 -3 46 6 -6 6 -11
15 -11 19 0 14 45 9 66 -8 10 -8 12 -12 4 -8 -8 4 -12 4 -8 -1 4 -4 2 -15 -5
-23 -22 -27 16 -1 66 45 65 60 70 73 57 139 -10 47 -9 59 4 79 20 30 20 39 1
31 -9 -3 -15 0 -15 9 0 9 -6 12 -15 9 -8 -4 -15 -1 -15 5 0 6 -3 10 -7 10 -5
-1 -23 4 -41 11 -33 12 -62 53 -62 89 0 11 -7 27 -16 36 -10 9 -18 36 -19 65
-3 46 0 53 33 85 47 46 57 48 147 36 42 -6 96 -11 119 -11 l43 0 5 44 c6 50
41 129 71 164 21 23 51 29 62 13 3 -6 22 -9 43 -7 l37 2 3 55 3 56 -40 13
c-50 16 -90 17 -117 2 -12 -6 -56 -58 -97 -115 -42 -57 -83 -110 -92 -117 -11
-9 -49 -15 -109 -16 -86 -3 -92 -2 -101 19 -14 31 -49 29 -53 -3 -5 -30 -20
-50 -39 -50 -26 0 -25 30 3 62 15 18 25 25 21 15 -4 -11 -3 -16 3 -12 6 3 10
12 10 19 0 7 26 21 58 32 31 10 71 29 88 41 17 13 35 23 40 23 5 0 33 32 62
70 29 39 59 70 68 70 9 0 29 9 44 20 16 11 45 27 65 36 29 12 36 19 32 35 -3
11 1 26 9 33 8 8 14 19 14 24 0 14 -36 43 -64 50 -14 4 -26 11 -26 15 -1 4 20
25 46 46 40 33 57 40 123 50 138 20 166 18 181 -9 8 -16 6 -34 -11 -81 -21
-57 -21 -60 -4 -73 32 -23 11 -44 -52 -51 -32 -4 -71 -11 -88 -15 -29 -8 -29
-8 11 -9 22 -1 63 -8 90 -16 63 -19 83 -19 106 2 43 39 116 52 298 52 l175 0
170 47 c112 31 180 55 198 70 16 13 54 31 85 40 48 14 54 18 39 29 -23 16 -21
23 5 27 13 2 24 11 26 23 6 30 32 55 59 55 22 0 63 -31 63 -48 0 -19 -52 -56
-87 -61 l-38 -7 26 -17 c14 -10 65 -22 113 -29 l87 -11 35 -68 c24 -50 38 -67
49 -63 9 4 15 19 15 39 0 19 8 39 20 50 22 20 52 17 230 -20 41 -9 117 -20
167 -25 51 -5 106 -16 122 -24 39 -21 146 -43 271 -56 170 -18 318 -47 345
-66 15 -12 17 -18 9 -32 -14 -22 -89 -22 -234 1 -58 8 -188 23 -290 32 -102 9
-270 25 -375 35 -104 11 -228 21 -275 23 -47 3 -65 2 -40 0 87 -8 91 -38 16
-132 l-54 -68 -46 11 c-25 6 -43 12 -40 15 2 2 -6 15 -18 29 -17 18 -23 36
-23 72 0 27 3 52 7 56 4 4 29 13 55 19 l48 13 -90 8 c-161 16 -313 10 -373
-15 -29 -11 -66 -21 -83 -21 -16 0 -47 -9 -69 -20 -22 -11 -46 -20 -55 -20
-19 0 -20 -38 -1 -108 7 -29 10 -52 6 -52 -4 0 -21 28 -39 63 -41 79 -57 101
-70 92 -6 -3 -11 -17 -11 -31 0 -19 -5 -24 -24 -24 -27 0 -42 26 -25 46 9 11
5 16 -16 24 -14 5 -32 10 -38 11 -7 0 -3 4 8 9 18 8 18 9 -5 9 -14 1 -61 3
-105 5 -95 5 -184 -19 -221 -59 -30 -32 -30 -39 -3 -24 17 9 23 8 30 -2 5 -9
2 -17 -11 -24 -19 -10 -19 -11 -1 -45 26 -50 77 -60 160 -31 50 17 75 20 126
15 76 -8 81 -11 90 -49 6 -25 5 -28 -6 -17 -20 19 -116 14 -198 -10 -58 -17
-77 -19 -92 -10 -29 19 -53 15 -43 -5 8 -20 9 -61 1 -70 -3 -3 -16 2 -29 11
-31 22 -38 20 -38 -11 1 -42 22 -82 49 -96 31 -15 44 -63 39 -144 -4 -65 -27
-106 -54 -96 -11 4 -14 -7 -14 -50 0 -31 -5 -59 -11 -63 -18 -11 -49 37 -42
65 5 19 3 22 -8 15 -8 -5 -22 -10 -31 -11 -9 -2 -55 -19 -102 -38 -47 -19 -87
-35 -89 -35 -3 0 -7 9 -10 20 -4 17 5 26 46 50 29 16 75 37 102 46 70 23 75
28 64 69 -16 58 -49 123 -49 98 0 -27 -16 -38 -24 -17 -9 23 -8 26 7 18 9 -6
9 -4 1 7 -6 8 -16 33 -23 57 -13 48 -21 50 -63 21 -21 -15 -38 -20 -59 -15
-34 7 -36 3 -9 -24 11 -11 20 -29 20 -40 0 -25 -50 -57 -104 -65 -23 -4 -50
-13 -61 -20 -12 -7 -30 -15 -40 -18 -11 -3 9 -3 45 0 36 3 74 12 85 19 42 30
69 10 46 -34 -5 -9 -15 -32 -21 -49 -9 -24 -19 -33 -34 -33 -12 0 -28 -6 -35
-12 -11 -10 -14 -10 -18 0 -7 19 -33 14 -33 -7 0 -11 -8 -22 -17 -25 -10 -3
19 -3 64 0 52 3 83 1 88 -5 4 -7 -11 -11 -42 -11 -64 0 -152 -24 -176 -48 -29
-30 -15 -70 41 -115 74 -59 142 -80 230 -73 71 7 72 6 60 -13 -17 -27 -35 -33
-58 -19 -15 10 -30 9 -67 -1 -86 -24 -91 -24 -62 -5 l27 17 -52 25 c-28 14
-64 31 -79 39 -27 14 -28 13 -17 -6 9 -18 7 -23 -17 -33 -27 -12 -138 -107
-266 -228 -32 -30 -65 -59 -73 -63 -22 -13 -16 -43 12 -62 l26 -17 86 84 c137
132 233 218 256 229 22 11 -15 -25 -209 -204 -66 -61 -121 -114 -123 -118 -2
-4 7 -13 18 -19 24 -13 26 -12 143 100 l57 55 44 -23 c39 -21 47 -22 67 -10
13 7 24 20 24 28 0 10 11 15 35 16 58 2 142 54 86 54 -34 0 -57 -10 -50 -22 4
-6 0 -14 -7 -19 -21 -13 -29 -11 -29 7 0 13 -6 15 -27 9 -16 -3 -35 -13 -44
-21 -11 -10 -26 -13 -44 -8 l-27 7 29 26 c61 55 139 119 159 129 13 7 34 8 57
2 20 -4 54 -4 75 1 50 11 58 11 45 -2 -6 -6 -30 -13 -53 -14 -50 -4 -150 -35
-150 -46 0 -5 35 -9 79 -9 70 0 80 2 94 23 l16 22 0 -21 c1 -38 -58 -76 -302
-198 l-237 -117 32 -39 32 -38 58 29 c32 16 58 27 58 24 0 -2 -21 -16 -47 -29
-27 -14 -42 -25 -34 -26 7 0 87 39 178 86 l165 87 34 -17 c19 -9 41 -16 48
-16 7 0 24 -8 37 -18 13 -10 75 -39 136 -63 62 -24 113 -47 113 -51 0 -3 -49
-23 -108 -42 -87 -29 -121 -47 -172 -87 -39 -32 -88 -60 -129 -74 -36 -13 -98
-38 -138 -56 -68 -31 -72 -31 -89 -15 -11 11 -13 20 -7 24 5 4 15 17 22 30 7
12 30 30 52 38 29 12 39 22 39 39 0 27 -17 35 -71 35 -39 0 -40 0 -25 -22 20
-28 21 -44 1 -28 -12 10 -15 10 -15 -2 0 -8 -5 -19 -11 -25 -19 -19 -39 7 -28
35 6 16 4 31 -6 50 l-16 27 6 -31 c4 -22 0 -38 -15 -57 -25 -32 -35 -33 -106
-10 -41 12 -57 24 -69 47 -17 32 -34 62 -48 84 -7 10 -12 10 -22 2 -15 -12
-14 -14 -73 104 -20 39 -43 71 -53 73 -11 3 -19 9 -19 13 0 4 -11 12 -25 18
-35 16 -23 -8 15 -30 17 -9 30 -24 30 -33 0 -9 7 -27 16 -40 9 -13 13 -33 10
-43 -4 -11 0 -24 8 -31 8 -7 17 -23 20 -36 4 -14 13 -25 22 -25 8 0 23 -20 34
-44 10 -24 23 -47 29 -50 6 -4 11 -18 11 -32 0 -13 5 -24 11 -24 6 0 9 -6 6
-14 -3 -7 6 -25 19 -40 14 -14 22 -30 19 -35 -3 -5 -1 -12 5 -16 16 -10 12
-32 -12 -58 -19 -19 -29 -22 -56 -16 -38 8 -62 30 -81 77 -7 17 -16 32 -20 32
-4 0 -7 9 -8 21 -2 26 -35 78 -40 63 -2 -7 5 -35 16 -65 14 -35 17 -56 11 -64
-7 -8 -4 -20 10 -38 11 -14 20 -35 20 -46 0 -14 6 -21 18 -21 28 0 34 -11 14
-26 -12 -9 -19 -9 -24 -1 -4 7 -13 3 -26 -13 -12 -14 -23 -20 -31 -15 -11 6
-10 9 0 16 10 6 10 9 2 9 -6 0 -14 -4 -17 -9 -4 -5 -17 -6 -31 -3 -28 8 -87
100 -112 174 -8 26 -19 48 -24 48 -15 0 -10 -28 15 -78 29 -57 49 -110 45
-116 -2 -2 4 -13 15 -24 18 -20 18 -22 0 -59 -18 -35 -22 -38 -58 -36 -21 2
-45 8 -53 14 -7 7 -16 9 -20 6 -3 -4 -13 2 -23 13 -9 10 -27 21 -41 25 -14 3
-30 19 -38 36 -10 22 -18 28 -30 24 -42 -18 -51 -17 -51 4 0 11 -4 21 -10 21
-5 0 -10 -7 -10 -16 0 -13 -7 -15 -37 -9 -21 4 -43 11 -48 15 -16 14 -58 8
-73 -10 -10 -11 -15 -12 -18 -3 -4 8 -13 9 -27 4 -21 -8 -45 -7 -169 2 l-58 5
-44 -60 c-36 -49 -47 -73 -56 -129 -7 -39 -9 -85 -6 -104 4 -19 0 -87 -8 -152
-8 -65 -17 -149 -21 -188 -14 -171 -24 -335 -25 -393 l0 -63 34 3 c27 1 35 7
39 24 3 16 0 21 -10 17 -9 -3 -13 3 -13 21 0 17 5 26 15 26 12 0 14 9 10 41
-3 22 -9 49 -15 59 -11 20 -13 63 -4 72 3 3 7 43 8 89 8 211 18 300 32 288 31
-25 42 -67 37 -140 -2 -40 -10 -84 -17 -98 -14 -27 -27 -198 -14 -178 5 8 8 5
8 -6 0 -25 54 -74 89 -82 22 -5 34 -1 50 16 11 12 24 19 28 16 4 -4 -4 -15
-17 -25 -13 -9 -27 -19 -30 -22 -4 -3 -10 -31 -14 -63 l-6 -57 86 0 c80 0 85
1 79 19 -3 11 -1 22 5 26 6 4 10 -4 10 -19 l0 -26 146 0 c130 0 145 2 134 15
-16 19 -5 32 13 16 11 -8 18 -6 32 9 10 11 25 20 34 20 11 -1 4 -11 -19 -30
l-34 -30 41 0 c52 0 144 48 119 62 -9 5 -16 18 -16 28 0 13 -5 18 -15 14 -8
-4 -15 -2 -15 3 0 6 19 16 43 23 23 8 44 17 47 20 3 3 23 11 45 18 45 13 103
2 140 -25 18 -14 17 -14 -22 -8 -49 8 -156 -12 -151 -27 2 -6 19 -12 37 -14
18 -2 48 -11 66 -20 30 -14 36 -13 86 6 65 24 79 25 79 4 0 -9 -20 -24 -50
-36 -28 -12 -49 -26 -47 -32 2 -7 42 -12 101 -14 80 -3 97 -1 91 10 -6 10 -5
11 6 1 10 -10 85 -13 305 -13 272 0 292 1 290 18 -1 19 5 19 99 2 33 -6 77 -9
98 -7 20 3 37 1 37 -4 0 -5 515 -9 1225 -9 l1225 0 0 383 0 382 -102 40 c-57
21 -168 68 -248 103 -80 34 -166 72 -192 84 -47 20 -65 40 -30 32 9 -2 55 -11
102 -20 96 -18 247 -78 271 -107 11 -14 23 -18 40 -14 20 5 49 2 137 -18 20
-5 22 -2 22 34 0 36 -2 40 -32 46 -18 4 -98 31 -178 61 -80 29 -208 69 -285
88 -96 23 -179 52 -265 91 -69 31 -143 62 -165 69 -47 15 -656 261 -699 282
-38 18 -50 18 -42 -2 12 -31 -6 -35 -35 -8 -30 29 -38 54 -16 54 15 0 -38 47
-77 67 -32 17 -138 54 -142 51 -1 -2 -4 -14 -6 -27 -3 -23 4 -28 74 -55 43
-17 78 -34 78 -39 0 -10 -46 -27 -75 -27 -13 0 -59 14 -102 31 -65 27 -82 30
-106 21 -24 -9 -27 -9 -17 3 9 11 4 17 -25 30 -21 8 -43 15 -49 15 -7 0 -17 5
-23 11 -12 12 -30 15 -323 50 -107 12 -197 25 -200 27 -3 2 3 9 12 16 10 7 15
16 11 20 -4 3 8 12 25 18 l32 12 -42 37 c-24 20 -41 40 -38 43 3 3 17 -5 31
-18 49 -45 86 -58 160 -54 58 2 67 1 52 -9 -9 -7 -48 -13 -87 -14 -39 -1 -82
-4 -96 -8 -23 -7 -21 -8 15 -14 110 -19 187 -3 237 47 15 15 32 25 38 21 15
-9 12 17 -6 60 -16 38 -9 54 22 55 14 0 40 -30 48 -56 13 -41 53 -74 91 -74
19 0 76 -7 127 -16 50 -9 108 -14 129 -12 22 2 41 -2 49 -10 9 -11 28 -12 75
-7 47 5 72 2 100 -9 21 -9 39 -15 40 -14 1 2 10 32 20 67 l19 63 -27 20 c-51
37 -31 43 71 22 28 -6 29 -35 2 -72 -16 -22 -18 -37 -13 -84 5 -52 8 -57 32
-60 18 -2 25 -8 23 -20 -4 -26 86 -91 116 -83 19 5 23 3 19 -9 -8 -20 8 -29
239 -119 454 -179 455 -179 544 -188 108 -10 189 -34 455 -135 39 -15 96 -34
128 -44 l57 -18 0 210 0 210 -36 -6 c-33 -7 -35 -6 -25 13 7 13 19 18 36 17
l25 -3 0 1067 0 1068 -72 12 c-40 6 -118 15 -173 20 -55 5 -122 13 -150 18
-27 6 -86 17 -130 25 -44 8 -91 20 -105 25 -59 23 -213 67 -270 77 -64 12
-155 22 -162 19 -4 -3 -9 0 -13 6 -4 6 -62 10 -145 10 l-138 0 -6 -26 c-10
-39 2 -62 34 -69 21 -5 30 -13 30 -27 0 -17 -4 -19 -25 -14 -31 8 -81 -19 -88
-46 -3 -10 -1 -18 5 -18 5 0 6 -5 3 -10 -3 -6 6 -15 22 -21 38 -14 63 -38 56
-55 -8 -20 -64 -32 -185 -39 -106 -6 -107 -6 -124 19 -11 18 -25 26 -45 26
-15 0 -30 4 -33 9 -3 5 -23 12 -43 16 -67 12 -134 46 -144 73 -5 14 -6 29 -2
33 5 5 39 13 77 18 73 10 88 17 67 30 -7 5 -16 29 -18 55 -6 46 -6 46 -43 46
-39 0 -55 -13 -80 -62 -11 -24 -20 -28 -53 -28 -26 0 -56 -10 -86 -28 -91 -56
-218 -111 -316 -137 -55 -15 -163 -45 -240 -68 -92 -26 -161 -41 -202 -41 -50
-1 -67 -6 -89 -25 -31 -27 -113 -65 -121 -57 -4 3 4 41 16 83 13 43 26 98 31
123 7 46 55 215 66 231 3 5 -4 9 -15 9 -13 0 -21 -7 -22 -17 0 -15 -2 -15 -8
2 -6 16 -15 -1 -39 -75z m1728 -40 c0 -5 -4 -10 -10 -10 -5 0 -10 5 -10 10 0
6 5 10 10 10 6 0 10 -4 10 -10z m801 -80 c12 -7 19 -21 19 -38 0 -39 24 -68
62 -77 l33 -8 -46 -6 c-35 -5 -58 -16 -88 -44 -47 -43 -62 -45 -102 -16 -53
37 -75 112 -46 151 29 38 126 60 168 38z m-1565 -77 c22 -50 -1 -65 -151 -102
-57 -14 -202 -65 -211 -74 -4 -4 9 -7 29 -7 39 0 50 -17 35 -57 -7 -20 -4 -23
20 -23 18 0 31 7 37 21 6 12 28 28 50 36 57 20 206 25 284 8 64 -13 100 -6
101 20 1 16 48 46 55 35 3 -5 3 -14 0 -20 -3 -5 3 -15 15 -22 11 -7 20 -19 20
-26 0 -9 12 -11 50 -6 50 7 50 7 50 -22 0 -18 7 -34 20 -42 22 -14 24 -20 10
-42 -5 -9 -33 -17 -72 -21 -35 -4 -128 -20 -208 -38 -173 -37 -205 -38 -222
-11 -19 30 -36 24 -34 -12 l1 -33 -88 0 c-86 -1 -90 1 -113 28 -13 16 -24 37
-24 46 0 15 -17 22 -87 36 -95 20 -120 34 -125 70 l-3 23 -75 -24 c-108 -34
-150 -30 -150 16 0 27 29 45 125 78 96 33 399 122 416 122 6 0 26 7 45 16 34
16 130 40 170 43 12 0 25 -7 30 -16z m1392 -297 c4 -17 -24 -56 -39 -56 -8 0
-39 52 -39 64 0 2 7 12 16 21 14 14 19 14 38 2 11 -8 23 -22 24 -31z m-2375
-246 c5 -4 4 -18 -3 -29 -10 -19 -18 -22 -68 -19 -49 3 -57 6 -57 23 0 35 98
55 128 25z m-604 -64 c44 -45 36 -70 -32 -102 -51 -23 -121 -32 -131 -16 -3 5
1 19 7 33 7 13 19 44 26 69 7 25 18 48 25 53 21 14 71 -3 105 -37z m1366 4
c-3 -5 -10 -10 -16 -10 -5 0 -9 5 -9 10 0 6 7 10 16 10 8 0 12 -4 9 -10z m431
-17 c5 -17 3 -28 -4 -31 -7 -2 -33 -14 -59 -27 -49 -25 -73 -21 -73 14 0 19
49 51 78 51 12 0 24 5 27 10 11 18 24 11 31 -17z m-1708 -236 c2 -11 -3 -17
-17 -17 -25 0 -38 19 -20 31 19 12 33 6 37 -14z m1993 -78 c7 -13 8 -35 3 -58
-4 -20 -7 -51 -5 -69 3 -42 -24 -86 -49 -79 -13 3 -19 -2 -23 -22 -7 -31 -44
-74 -60 -68 -15 5 -12 189 3 217 7 13 21 20 40 20 24 0 30 4 30 22 0 21 26 58
41 58 5 0 13 -9 20 -21z m92 -43 c-1 -16 -9 -36 -17 -44 -13 -14 -16 -12 -26
13 -14 38 -4 67 23 63 18 -2 22 -9 20 -32z m-525 -13 c-4 -22 -22 -20 -26 1
-2 10 3 16 13 16 10 0 15 -7 13 -17z m949 0 c2 -6 -3 -13 -12 -16 -10 -5 -15
0 -15 14 0 21 21 22 27 2z m-2297 -2 c0 -29 -12 -40 -37 -30 -32 12 -29 13
-42 -19 -15 -37 -49 -59 -57 -37 -10 25 5 63 26 70 11 3 20 11 20 16 0 5 20 9
45 9 25 0 45 -4 45 -9z m3199 0 c17 -11 6 -31 -18 -31 -21 0 -44 23 -34 33 9
10 35 8 52 -2z m-1711 -65 c3 -20 0 -27 -10 -24 -7 3 -14 17 -16 32 -3 20 0
27 10 24 7 -3 14 -17 16 -32z m-1693 -27 c11 -49 -1 -69 -43 -69 -70 1 -94 43
-44 78 54 38 77 36 87 -9z m2375 18 c0 -14 -20 -37 -32 -37 -10 0 -11 34 -1
43 11 12 33 8 33 -6z m189 -40 c-97 -56 -159 -106 -159 -127 0 -24 29 -43 93
-61 44 -12 47 -16 46 -44 -3 -48 4 -59 41 -71 24 -7 35 -17 35 -30 0 -17 -6
-19 -54 -16 -72 4 -95 17 -87 48 4 14 2 24 -4 24 -5 0 -10 -6 -10 -14 0 -22
-32 -28 -81 -16 -24 6 -53 12 -64 15 -11 2 -40 11 -64 20 -29 11 -58 14 -83
10 -29 -5 -39 -3 -44 9 -3 8 -14 18 -23 21 -25 7 -44 48 -36 74 8 27 45 29 45
1 0 -22 28 -40 60 -40 13 0 50 26 88 61 37 34 87 73 112 87 55 33 186 81 220
81 20 0 14 -6 -31 -32z m-2729 -15 c0 -13 -31 -52 -41 -52 -16 0 -22 29 -9 45
13 16 50 21 50 7z m1537 -18 c7 -19 -20 -49 -36 -40 -12 8 -15 39 -4 49 12 12
33 7 40 -9z m-1202 -30 c22 -34 9 -46 -45 -42 -75 5 -85 68 -11 68 31 0 42 -5
56 -26z m2411 -20 c-20 -20 -35 -39 -31 -42 5 -6 -49 -32 -66 -32 -5 0 -9 11
-9 23 0 20 12 30 68 55 37 18 69 32 71 32 2 0 -13 -16 -33 -36z m-998 2 c2
-10 -1 -23 -7 -29 -14 -14 -41 9 -41 35 0 26 43 21 48 -6z m-1659 5 c13 -8 13
-14 1 -38 -8 -15 -14 -39 -14 -52 -1 -14 -12 -32 -28 -44 -22 -17 -30 -18 -43
-7 -20 17 -19 42 5 72 11 14 24 37 30 52 10 27 25 32 49 17z m1929 -105 c7
-60 -73 -100 -113 -56 -10 11 -14 20 -10 20 5 0 4 5 -3 12 -15 15 -16 28 -2
28 6 0 10 -7 10 -15 0 -21 13 -19 28 5 14 23 48 40 72 37 8 -1 16 -15 18 -31z
m-508 -1 c0 -9 -7 -18 -15 -21 -8 -4 -15 -12 -15 -19 0 -28 -27 -37 -64 -21
-55 23 -41 55 23 52 19 0 36 5 38 11 7 18 33 16 33 -2z m-340 -125 c8 -14 7
-25 -2 -39 -11 -18 -8 -25 18 -53 39 -42 58 -73 74 -122 11 -35 11 -41 -4 -52
-20 -14 -5 -29 19 -20 8 3 15 2 15 -2 0 -8 -79 -32 -106 -32 -8 0 -13 4 -10 9
3 5 -9 18 -26 29 l-32 21 27 10 c16 6 35 11 43 11 8 0 14 10 14 24 0 28 -21
36 -99 36 -30 0 -52 3 -48 6 3 4 27 6 52 6 l45 -1 -21 41 c-24 48 -44 70 -53
61 -4 -4 -13 3 -22 15 -12 18 -19 20 -40 12 -35 -14 -42 -12 -20 5 11 8 28 15
38 15 10 0 18 4 18 8 0 14 42 31 77 31 22 1 36 -5 43 -19z m1713 -36 c20 -3
37 -9 37 -13 0 -3 3 -16 6 -28 6 -20 3 -23 -26 -23 -18 0 -50 10 -71 22 -32
18 -36 24 -28 40 6 11 17 17 27 14 9 -3 34 -8 55 -12z m-2026 -9 c3 -9 3 -18
0 -21 -10 -10 -47 7 -47 22 0 19 39 18 47 -1z m803 -5 c0 -5 -7 -10 -15 -10
-8 0 -15 5 -15 10 0 6 7 10 15 10 8 0 15 -4 15 -10z m-590 -39 c0 -6 -4 -13
-10 -16 -5 -3 -10 1 -10 9 0 9 5 16 10 16 6 0 10 -4 10 -9z m2041 -1 c5 0 9
-4 9 -10 0 -14 -13 -12 -36 6 -17 14 -17 15 -1 10 10 -3 23 -6 28 -6z m-2814
-15 c3 -9 3 -18 0 -21 -11 -11 -67 8 -67 22 0 20 59 19 67 -1z m2738 -15 c18
-35 15 -36 -27 -14 -30 16 -31 17 -13 30 24 18 22 19 40 -16z m103 -22 c21
-21 13 -38 -18 -38 -22 0 -30 5 -30 18 0 32 25 43 48 20z m-732 -13 c18 -14
18 -14 -7 -15 -42 0 -84 -57 -98 -133 -7 -41 -7 -41 -20 -18 -21 38 -6 105 33
146 36 38 61 43 92 20z m-588 -11 c22 -6 31 -37 13 -48 -15 -9 -71 5 -71 18 0
12 20 36 30 36 3 0 15 -3 28 -6z m1468 -20 c24 -16 44 -60 37 -81 -8 -21 -29
-15 -41 13 -7 15 -30 33 -57 45 -44 20 -52 29 -38 43 11 10 71 -2 99 -20z
m-781 -24 c4 -6 -7 -10 -25 -10 -18 0 -29 4 -25 10 3 6 15 10 25 10 10 0 22
-4 25 -10z m-1415 -10 c0 -5 -5 -10 -11 -10 -5 0 -7 5 -4 10 3 6 8 10 11 10 2
0 4 -4 4 -10z m1365 -59 c-4 -20 -28 -64 -53 -98 -42 -56 -51 -62 -83 -63 -20
0 -42 6 -48 14 -10 12 -5 15 29 21 52 9 101 56 120 116 18 58 20 60 32 53 6
-4 7 -21 3 -43z m1013 -39 c3 -9 -3 -13 -19 -10 -12 1 -24 9 -27 16 -3 9 3 13
19 10 12 -1 24 -9 27 -16z m-1838 -16 c0 -3 -4 -8 -10 -11 -5 -3 -10 -1 -10 4
0 6 5 11 10 11 6 0 10 -2 10 -4z m1018 -14 c2 -7 -3 -12 -12 -12 -9 0 -16 7
-16 16 0 17 22 14 28 -4z m-1707 -2 c28 -16 23 -30 -6 -17 -14 7 -25 15 -25
20 0 10 8 9 31 -3z m1739 -61 c0 -11 -4 -17 -10 -14 -5 3 -10 13 -10 21 0 8 5
14 10 14 6 0 10 -9 10 -21z m490 -20 c-7 -11 -14 -19 -16 -16 -7 7 7 37 17 37
6 0 5 -9 -1 -21z m-2320 -4 c0 -6 -156 -85 -167 -85 -9 0 148 88 160 89 4 1 7
-1 7 -4z m59 -9 c-2 -2 -15 -9 -29 -15 -24 -11 -24 -11 -6 3 16 13 49 24 35
12z m2136 -25 c-3 -6 -11 -11 -17 -11 -6 0 -6 6 2 15 14 17 26 13 15 -4z
m-2125 -1 c0 -5 -4 -10 -10 -10 -5 0 -10 5 -10 10 0 6 5 10 10 10 6 0 10 -4
10 -10z m1374 -19 c18 -7 17 -9 -10 -34 l-29 -27 -6 22 c-11 43 3 56 45 39z
m-1485 -5 c-2 -2 -15 -9 -29 -15 -24 -11 -24 -11 -6 3 16 13 49 24 35 12z
m1551 -16 c10 -6 11 -10 3 -10 -7 0 -13 -5 -13 -11 0 -14 -30 -38 -48 -39 -24
0 -9 45 16 48 12 2 20 8 17 13 -8 12 6 11 25 -1z m-1610 -14 c0 -2 -7 -7 -16
-10 -8 -3 -12 -2 -9 4 6 10 25 14 25 6z m2403 -43 c3 -17 0 -34 -8 -42 -12
-12 -15 -10 -20 12 -8 29 -1 57 14 57 5 0 11 -12 14 -27z m-2528 -23 c-3 -5
-12 -10 -18 -10 -7 0 -6 4 3 10 19 12 23 12 15 0z m2275 0 c0 -5 -5 -10 -11
-10 -5 0 -7 5 -4 10 3 6 8 10 11 10 2 0 4 -4 4 -10z m-97 -27 c-7 -2 -19 -2
-25 0 -7 3 -2 5 12 5 14 0 19 -2 13 -5z m-1197 -18 c10 -8 14 -15 8 -15 -5 0
-19 7 -30 15 -10 8 -14 15 -8 15 5 0 19 -7 30 -15z m361 -51 l10 -22 -57 21
c-56 21 -57 22 -43 43 l14 22 33 -21 c18 -12 37 -32 43 -43z m-433 34 c-46
-76 -97 -148 -104 -148 -5 0 14 36 42 80 29 44 56 80 61 80 4 0 5 -6 1 -12z
m1516 4 c0 -14 -39 -46 -47 -39 -3 4 2 16 12 27 19 21 35 26 35 12z m40 -22
c0 -13 -28 -25 -38 -16 -3 4 0 11 8 16 20 13 30 12 30 0z m273 -67 c-7 -2 -19
-2 -25 0 -7 3 -2 5 12 5 14 0 19 -2 13 -5z m127 -33 c0 -5 -4 -10 -10 -10 -5
0 -10 5 -10 10 0 6 5 10 10 10 6 0 10 -4 10 -10z m-1986 -70 c25 -12 46 -23
46 -26 0 -5 -60 19 -87 35 -30 17 -8 12 41 -9z m1559 13 c-7 -2 -21 -2 -30 0
-10 3 -4 5 12 5 17 0 24 -2 18 -5z m-2672 -21 c-7 -2 -18 1 -23 6 -8 8 -4 9
13 5 13 -4 18 -8 10 -11z m1684 -90 c98 -51 134 -64 188 -69 32 -3 60 -9 62
-14 3 -4 -14 -15 -38 -24 -59 -22 -71 -44 -42 -75 12 -14 40 -35 62 -47 34
-19 46 -21 77 -12 20 5 36 16 36 23 0 28 28 39 60 26 16 -7 30 -15 30 -19 0
-11 -40 -32 -50 -26 -6 4 -10 2 -10 -3 0 -10 -64 -42 -86 -42 -20 0 -123 44
-461 196 -44 20 -65 18 -143 -15 -92 -39 -152 -48 -185 -27 -13 9 -27 16 -30
16 -4 0 -33 -25 -66 -57 l-59 -56 52 -35 c29 -19 67 -48 83 -65 17 -17 54 -41
84 -55 62 -28 71 -35 154 -119 72 -72 101 -110 104 -138 6 -44 33 -177 38
-186 4 -5 15 -9 25 -9 23 0 35 -16 18 -23 -10 -4 -10 -8 1 -15 11 -8 10 -11
-5 -15 -13 -3 -11 -5 9 -6 19 -1 30 -8 37 -25 6 -17 18 -26 37 -28 16 -2 27
-8 26 -15 -2 -7 3 -13 11 -13 15 0 42 -28 34 -36 -6 -5 -96 26 -176 62 -29 13
-55 24 -57 24 -2 0 -28 11 -57 24 -29 13 -87 38 -128 56 -113 49 -357 174
-504 258 -117 67 -276 161 -284 167 -2 1 25 14 60 28 35 14 88 36 118 50 30
14 95 42 143 62 48 21 86 39 85 40 -2 2 -99 51 -215 110 -117 58 -215 110
-218 116 -4 5 2 6 12 1 31 -12 346 -173 390 -199 58 -33 85 -26 170 49 62 54
89 68 226 123 142 57 160 62 191 53 27 -8 43 -7 73 4 40 16 49 15 118 -20z
m355 11 c0 -9 -29 -33 -39 -33 -14 0 -14 23 0 37 10 10 39 7 39 -4z m-2009
-38 c-32 -19 -47 -23 -55 -15 -16 17 21 40 63 40 l36 0 -44 -25z m3200 -16
c-13 -11 -26 -17 -29 -15 -3 3 6 14 19 25 13 11 26 17 29 14 3 -2 -6 -13 -19
-24z m-1171 -9 c8 -5 11 -10 5 -10 -5 0 -17 5 -25 10 -8 5 -10 10 -5 10 6 0
17 -5 25 -10z m50 -20 c8 -5 11 -10 5 -10 -5 0 -17 5 -25 10 -8 5 -10 10 -5
10 6 0 17 -5 25 -10z m-1781 -59 c8 -5 9 -11 3 -15 -14 -8 -43 4 -36 15 7 11
15 11 33 0z m-120 -33 c-9 -16 -14 -19 -17 -9 -2 7 2 17 9 22 20 13 21 11 8
-13z m-1072 -48 c33 0 90 -28 118 -57 19 -22 25 -38 24 -73 -1 -75 -19 -111
-73 -147 -42 -29 -57 -33 -111 -33 -35 0 -76 5 -92 11 l-28 10 25 -24 c14 -13
32 -23 40 -22 15 2 46 -23 38 -31 -7 -6 -67 25 -96 50 -31 26 -72 112 -72 149
0 34 24 89 50 112 10 9 43 26 72 39 38 15 53 26 50 36 -4 12 0 11 15 -2 11
-10 29 -18 40 -18z m1271 -5 c-2 -26 -6 -34 -20 -32 -10 2 -20 6 -24 9 -3 4
-13 4 -22 1 -10 -3 -2 4 16 16 17 11 32 25 32 31 0 5 5 10 10 10 6 0 10 -16 8
-35z m186 -20 c11 -8 15 -15 10 -15 -6 0 -19 7 -30 15 -10 8 -14 14 -9 14 6 0
19 -6 29 -14z m101 -55 c3 -6 -1 -7 -9 -4 -18 7 -21 14 -7 14 6 0 13 -4 16
-10z m-1335 -10 c13 -8 13 -10 -2 -10 -9 0 -20 5 -23 10 -8 13 5 13 25 0z
m190 -66 c38 -19 104 -88 90 -92 -7 -3 -22 8 -35 24 -14 17 -39 32 -65 38 -30
8 -45 18 -51 34 -8 21 -7 23 14 16 12 -3 33 -12 47 -20z m-146 -33 c9 -16 27
-32 42 -35 36 -9 23 -20 -14 -11 -22 4 -31 14 -40 40 -12 43 -8 45 12 6z m141
-113 c15 -29 34 -61 43 -70 13 -15 13 -18 1 -18 -8 0 -30 30 -49 68 -45 87
-44 86 -32 78 5 -3 22 -29 37 -58z m687 31 l49 -31 47 17 c26 10 52 21 57 25
32 23 64 19 113 -14 87 -58 386 -236 397 -236 2 0 34 -17 72 -38 85 -48 270
-145 478 -251 88 -45 180 -92 205 -106 25 -14 51 -25 59 -25 10 0 12 -8 7 -30
-4 -22 -1 -32 9 -36 24 -10 17 -26 -7 -19 -78 23 -272 95 -405 151 -214 89
-397 179 -703 346 -106 58 -305 158 -314 158 -4 0 -6 -7 -2 -15 4 -12 0 -14
-20 -9 -24 6 -25 5 -15 -14 15 -29 14 -30 -14 -24 -20 3 -24 1 -19 -12 3 -9 4
-16 2 -16 -10 0 -118 41 -155 60 -23 11 -59 24 -78 28 -20 4 -36 12 -37 17 0
9 193 102 216 104 5 1 31 -13 58 -30z m-862 -15 c25 -15 25 -15 -10 -8 -40 7
-65 24 -34 24 10 -1 30 -7 44 -16z m-5 -29 c23 -9 34 -24 49 -64 20 -55 41
-75 93 -86 34 -7 55 -25 30 -25 -7 0 -34 7 -58 15 -41 14 -47 21 -73 80 -24
56 -32 66 -64 76 -43 13 -72 36 -32 24 14 -4 39 -13 55 -20z m361 -15 c8 0 14
-4 14 -9 0 -11 -49 -1 -57 12 -4 7 0 8 11 4 10 -4 24 -7 32 -7z m-434 -120
c25 -68 28 -71 84 -90 41 -14 48 -22 77 -80 31 -63 34 -66 89 -84 73 -23 67
-40 -6 -17 -52 15 -57 20 -87 76 -42 80 -43 81 -93 95 -39 11 -47 18 -64 59
-11 25 -23 56 -27 69 -3 12 -10 22 -14 22 -4 0 -16 7 -27 15 -17 14 -16 14 15
3 27 -11 37 -23 53 -68z m-343 28 c-1 -39 -2 -41 -8 -13 -4 17 -5 36 -3 43 8
23 12 12 11 -30z m-29 -88 c7 -12 7 -21 0 -25 -5 -3 -10 1 -10 9 0 8 -9 18
-20 21 -11 3 -20 13 -20 21 0 20 35 1 50 -26z m266 -22 c19 -60 21 -63 66 -77
44 -13 48 -18 67 -71 25 -67 42 -84 98 -99 52 -14 71 -36 22 -26 -74 15 -100
36 -128 104 -23 55 -32 66 -66 79 -47 18 -59 33 -75 85 -6 22 -14 45 -17 53
-3 8 -1 14 4 14 5 0 18 -28 29 -62z m223 10 c13 -5 21 -11 18 -14 -8 -8 -75
15 -83 28 -6 10 11 6 65 -14z m1016 2 c-3 -5 -10 -10 -16 -10 -5 0 -9 5 -9 10
0 6 7 10 16 10 8 0 12 -4 9 -10z m135 -16 c0 -31 -20 -51 -63 -63 -48 -14 -93
-12 -90 4 1 6 20 14 43 18 23 5 44 15 47 23 3 8 11 14 19 14 8 0 14 5 14 10 0
6 7 10 15 10 8 0 15 -7 15 -16z m-765 -4 c3 -5 1 -10 -4 -10 -6 0 -11 5 -11
10 0 6 2 10 4 10 3 0 8 -4 11 -10z m40 -10 c3 -5 -1 -10 -9 -10 -9 0 -16 5
-16 10 0 6 4 10 9 10 6 0 13 -4 16 -10z m522 -12 c-3 -8 -6 -5 -6 6 -1 11 2
17 5 13 3 -3 4 -12 1 -19z m2763 -15 c-2 -23 -65 -79 -103 -91 -60 -19 -308
-61 -324 -55 -73 28 147 107 420 152 4 0 7 -2 7 -6z m-4256 -60 c-7 -21 -13
-49 -14 -62 0 -13 -3 -21 -7 -17 -10 9 -4 76 8 98 18 33 27 18 13 -19z m224 6
c-3 -8 -7 -3 -11 10 -4 17 -3 21 5 13 5 -5 8 -16 6 -23z m-158 1 c0 -5 -2 -10
-4 -10 -3 0 -8 5 -11 10 -3 6 -1 10 4 10 6 0 11 -4 11 -10z m26 -65 c7 -48 2
-151 -9 -161 -3 -3 -15 -3 -27 1 -15 5 -18 10 -11 19 9 11 17 67 23 154 3 46
16 39 24 -13z m1132 19 c-9 -9 -21 -13 -27 -9 -16 10 -3 25 22 25 20 0 20 -1
5 -16z m417 -27 c47 -30 70 -50 70 -63 0 -31 -38 -28 -102 10 -77 45 -89 59
-68 80 9 9 20 16 23 16 4 0 39 -20 77 -43z m-1621 -10 c4 -19 3 -26 -4 -22 -5
3 -10 18 -10 32 0 32 5 28 14 -10z m1356 23 c0 -13 -38 -32 -51 -25 -14 10 9
35 32 35 11 0 19 -4 19 -10z m-1032 -70 l23 -69 54 -17 c30 -10 55 -23 55 -30
0 -8 -19 -4 -60 13 -55 24 -61 30 -79 77 -29 79 -33 96 -24 96 5 0 19 -31 31
-70z m1190 -4 c99 -50 121 -69 106 -94 -17 -27 -42 -38 -55 -25 -9 9 -9 16 -1
26 10 11 2 17 -40 31 -53 17 -118 68 -118 93 0 20 14 16 108 -31z m-1548 -7
c0 -11 -4 -17 -10 -14 -5 3 -10 13 -10 21 0 8 5 14 10 14 6 0 10 -9 10 -21z
m251 -54 c9 -30 14 -55 10 -55 -7 0 -14 20 -38 105 -13 45 12 0 28 -50z m-202
0 c0 -5 -6 1 -14 15 -8 14 -14 30 -14 35 0 6 6 -1 14 -15 8 -14 14 -29 14 -35z
m1181 10 c0 -17 -31 -28 -43 -16 -7 7 -6 15 2 25 14 17 41 11 41 -9z m580 0
c0 -8 -4 -15 -10 -15 -5 0 -10 7 -10 15 0 8 5 15 10 15 6 0 10 -7 10 -15z
m-334 -6 c10 -17 -13 -36 -27 -22 -12 12 -4 33 11 33 5 0 12 -5 16 -11z
m-1546 -47 c0 -9 -5 -24 -10 -32 -7 -11 -10 -5 -10 23 0 23 4 36 10 32 6 -3
10 -14 10 -23z m1080 -36 c0 -3 -4 -8 -10 -11 -5 -3 -10 -1 -10 4 0 6 5 11 10
11 6 0 10 -2 10 -4z m-652 -18 c6 -1 12 -9 12 -19 0 -9 3 -26 6 -36 3 -10 -3
-3 -15 15 -11 17 -27 32 -35 32 -8 0 -18 5 -22 12 -5 8 0 9 17 4 13 -4 30 -8
37 -8z"/>
<path d="M5040 1039 c0 -5 9 -9 20 -9 11 0 20 2 20 4 0 2 -9 6 -20 9 -11 3
-20 1 -20 -4z"/>
<path d="M2080 1000 c-7 -5 -18 -6 -25 -4 -6 3 -18 -2 -25 -11 -7 -8 -17 -15
-22 -15 -5 0 -25 -16 -44 -35 -97 -100 35 -220 177 -161 77 32 112 134 62 183
-33 34 -101 57 -123 43z"/>
<path d="M3135 740 c-3 -5 -3 -11 2 -11 4 -1 24 -3 43 -5 33 -3 34 -2 16 11
-23 17 -52 20 -61 5z"/>
<path d="M6064 3864 c38 -7 71 -16 75 -20 6 -6 -30 -3 -129 12 -25 4 -42 3
-38 -1 5 -5 266 -65 285 -65 1 0 3 20 3 45 l0 45 -132 -1 -133 -1 69 -14z"/>
<path d="M1218 3643 c6 -2 18 -2 25 0 6 3 1 5 -13 5 -14 0 -19 -2 -12 -5z"/>
<path d="M1247 3548 c-2 -7 4 -24 15 -37 13 -17 15 -27 7 -31 -8 -6 -8 -9 0
-14 6 -4 11 -16 11 -27 0 -10 5 -19 10 -19 6 0 10 -6 10 -14 0 -8 8 -17 18
-21 14 -5 15 -4 5 6 -17 17 -16 39 1 39 9 0 13 10 12 25 -1 26 -10 32 -21 15
-14 -22 -25 -8 -25 31 0 24 -4 38 -10 34 -5 -3 -10 1 -10 9 0 19 -17 21 -23 4z"/>
<path d="M1374 3493 c10 -117 45 -281 81 -374 8 -20 11 -39 8 -43 -3 -3 -1
-11 4 -18 5 -7 15 -47 22 -88 7 -41 15 -82 18 -90 2 -8 9 -37 14 -65 5 -27 15
-61 21 -76 l12 -26 65 55 c62 52 208 152 255 173 26 12 55 52 31 43 -11 -4
-13 -2 -9 9 21 56 -181 334 -318 437 -11 8 -29 23 -39 33 -11 9 -21 17 -24 17
-7 0 -99 64 -106 74 -4 4 -9 2 -12 -5 -4 -10 -6 -10 -6 -1 -1 6 -6 12 -12 12
-8 0 -9 -21 -5 -67z"/>
<path d="M1305 3349 c-10 -15 3 -25 16 -12 7 7 7 13 1 17 -6 3 -14 1 -17 -5z"/>
<path d="M1325 3270 c3 -5 8 -10 11 -10 2 0 4 5 4 10 0 6 -5 10 -11 10 -5 0
-7 -4 -4 -10z"/>
<path d="M1345 3234 c17 -13 18 -16 5 -25 -13 -9 -13 -10 0 -6 24 6 21 43 -4
44 -21 2 -21 2 -1 -13z"/>
<path d="M1358 3164 c6 -3 12 -12 12 -20 0 -8 5 -14 11 -14 19 0 4 35 -16 37
-11 2 -14 0 -7 -3z"/>
<path d="M1371 3102 c-7 -13 -7 -22 1 -30 18 -18 26 -14 26 13 0 32 -14 41
-27 17z"/>
<path d="M1410 3092 c0 -5 8 -16 18 -25 14 -13 19 -14 19 -3 0 7 -9 18 -19 25
-10 6 -18 7 -18 3z"/>
<path d="M4528 3083 c7 -3 16 -2 19 1 4 3 -2 6 -13 5 -11 0 -14 -3 -6 -6z"/>
<path d="M1396 3028 c4 -13 6 -37 5 -55 -1 -17 4 -37 11 -45 17 -17 22 -48 8
-48 -5 0 -10 -7 -10 -15 0 -8 -5 -15 -11 -15 -6 0 -9 6 -6 14 3 8 -1 17 -9 20
-8 3 -14 14 -14 25 0 15 -5 18 -22 13 -13 -3 -29 -12 -36 -19 -11 -11 -8 -14
17 -19 17 -4 34 -11 38 -17 4 -6 -4 -8 -21 -3 -15 4 -26 2 -26 -4 0 -5 5 -10
11 -10 7 0 9 -12 7 -31 -4 -26 -2 -30 14 -26 21 6 42 -25 34 -51 -4 -11 4 -23
23 -37 28 -18 29 -20 14 -48 -8 -16 -12 -31 -9 -34 8 -9 36 17 36 33 0 8 5 14
11 14 6 0 8 9 5 20 -3 11 -9 29 -12 40 -5 18 -2 20 19 15 33 -9 41 14 23 67
-8 22 -12 46 -10 53 6 15 -22 39 -36 30 -7 -4 -9 2 -4 20 4 15 2 36 -4 48 -5
12 -15 37 -22 55 -14 36 -36 45 -24 10z m84 -213 c0 -9 -6 -12 -16 -8 -13 5
-13 7 -2 14 17 11 18 11 18 -6z m-40 -15 c0 -5 -5 -10 -11 -10 -5 0 -7 5 -4
10 3 6 8 10 11 10 2 0 4 -4 4 -10z"/>
<path d="M1303 3006 c-6 -7 -8 -19 -3 -26 5 -8 9 -9 14 -1 4 6 4 11 -1 11 -4
1 3 7 17 15 22 13 23 14 5 14 -11 0 -25 -6 -32 -13z"/>
<path d="M1446 3005 c-3 -8 -1 -15 4 -15 6 0 10 7 10 15 0 8 -2 15 -4 15 -2 0
-6 -7 -10 -15z"/>
<path d="M1311 2951 c-10 -7 -10 -10 -1 -16 6 -4 16 -3 22 3 13 13 -4 23 -21
13z"/>
<path d="M3620 2695 c0 -8 4 -15 10 -15 5 0 7 7 4 15 -4 8 -8 15 -10 15 -2 0
-4 -7 -4 -15z"/>
<path d="M1463 2648 c-6 -7 -13 -26 -17 -42 -4 -17 -15 -36 -24 -43 -16 -12
-16 -12 1 -13 9 0 17 5 17 10 0 6 6 10 13 10 10 0 13 -14 12 -50 -2 -46 0 -50
18 -44 17 5 19 3 15 -20 -4 -20 -2 -26 8 -22 8 3 21 9 30 12 12 5 9 -4 -10
-35 -28 -43 -20 -55 14 -21 11 11 20 16 20 12 0 -5 10 -14 23 -20 17 -8 18
-11 5 -11 -10 -1 -18 -5 -18 -11 0 -5 7 -7 15 -4 11 5 13 2 9 -10 -3 -9 -12
-16 -19 -16 -15 0 -28 -27 -20 -41 3 -4 25 -14 48 -20 41 -11 41 -12 17 -21
-70 -28 -87 -37 -87 -52 0 -23 14 -20 20 4 3 13 13 20 29 19 20 0 21 -1 4 -8
-12 -5 -20 -19 -21 -39 -2 -29 0 -32 27 -32 18 0 27 -4 22 -11 -3 -6 -14 -9
-23 -6 -11 3 -16 -3 -16 -18 0 -20 3 -21 29 -14 33 10 42 6 31 -11 -4 -6 -13
-9 -20 -6 -7 2 -15 -3 -18 -13 -3 -14 2 -16 32 -14 25 2 30 0 15 -5 -19 -6
-20 -10 -9 -42 6 -19 16 -35 21 -35 5 0 7 -9 5 -20 -2 -16 0 -18 10 -7 18 17
30 15 23 -3 -4 -8 -1 -15 5 -15 6 0 11 -5 11 -11 0 -6 -9 -9 -20 -6 -21 5 -28
-7 -10 -18 6 -3 10 -16 10 -29 0 -12 5 -27 12 -34 6 -6 9 -14 6 -18 -4 -3 -14
6 -23 20 -10 14 -22 26 -28 26 -5 0 -2 -9 7 -19 10 -11 20 -39 23 -63 7 -46
21 -67 41 -60 7 2 17 -10 23 -27 12 -33 29 -42 29 -15 0 13 3 14 15 4 8 -6 19
-9 25 -5 5 3 10 0 10 -9 0 -8 -6 -16 -12 -19 -7 -2 -10 -8 -6 -12 4 -4 14 -2
23 5 8 7 15 9 15 6 0 -6 25 19 76 76 11 12 23 33 27 46 5 20 2 22 -16 17 -17
-5 -15 -1 8 14 l30 21 -29 0 c-17 0 -36 -9 -46 -20 -10 -12 -20 -17 -23 -13
-8 13 33 94 43 88 13 -8 12 0 -4 60 -19 71 -94 210 -138 256 -21 22 -38 48
-38 60 0 11 -4 17 -10 14 -5 -3 -10 -3 -10 2 0 4 -12 22 -26 38 -15 17 -33 40
-41 52 -8 13 -20 20 -26 16 -5 -3 -7 -1 -3 5 8 13 -14 63 -25 57 -4 -3 -10 8
-14 25 -4 16 -11 30 -16 30 -5 0 -9 12 -9 26 0 18 -4 24 -13 21 -9 -3 -13 3
-13 17 1 12 -4 20 -11 19 -7 -2 -13 4 -13 12 0 8 -6 15 -12 15 -9 0 -8 4 2 10
13 8 13 10 -1 10 -12 0 -15 7 -11 25 5 27 -9 33 -25 13z m127 -348 c0 -5 -7
-10 -15 -10 -8 0 -15 5 -15 10 0 6 7 10 15 10 8 0 15 -4 15 -10z m58 -87 c-3
-17 -58 -38 -58 -22 0 5 6 9 14 9 8 0 16 7 20 15 7 21 28 19 24 -2z m42 -13
c0 -5 -8 -10 -17 -10 -15 0 -16 2 -3 10 19 12 20 12 20 0z m17 -22 c-3 -8 -6
-5 -6 6 -1 11 2 17 5 13 3 -3 4 -12 1 -19z m52 -15 c0 -5 -4 -17 -9 -28 -8
-18 -9 -17 -9 8 -1 15 4 27 9 27 6 0 10 -3 9 -7z m-29 -37 c0 -8 -9 -13 -24
-12 -13 0 -22 5 -19 9 3 5 11 6 19 3 8 -3 14 -1 14 4 0 6 2 10 5 10 3 0 5 -6
5 -14z m50 -54 c0 -21 -2 -24 -10 -12 -13 20 -13 53 0 45 6 -3 10 -18 10 -33z
m45 -32 c3 -6 -1 -7 -9 -4 -18 7 -21 14 -7 14 6 0 13 -4 16 -10z m36 -77 c-12
-20 -14 -14 -5 12 4 9 9 14 11 11 3 -2 0 -13 -6 -23z m19 -23 c0 -11 -4 -20
-9 -20 -5 0 -7 9 -4 20 3 11 7 20 9 20 2 0 4 -9 4 -20z m-155 -210 c3 -5 1
-10 -4 -10 -6 0 -11 5 -11 10 0 6 2 10 4 10 3 0 8 -4 11 -10z"/>
<path d="M2066 2633 c-6 -14 -5 -15 5 -6 7 7 10 15 7 18 -3 3 -9 -2 -12 -12z"/>
<path d="M2051 2594 c0 -11 3 -14 6 -6 3 7 2 16 -1 19 -3 4 -6 -2 -5 -13z"/>
<path d="M3120 2411 c13 -10 119 -16 109 -7 -2 2 -31 7 -64 10 -42 5 -56 4
-45 -3z"/>
<path d="M1890 2160 c-12 -8 -9 -10 13 -10 15 0 27 5 27 10 0 13 -20 13 -40 0z"/>
<path d="M1970 2062 c0 -5 9 -17 21 -28 11 -10 18 -26 16 -35 -4 -13 0 -16 12
-11 13 5 14 3 3 -10 -13 -16 -46 -14 -69 5 -9 6 -13 6 -13 -1 0 -14 25 -33 33
-25 4 3 7 -2 8 -13 0 -10 3 -14 5 -8 3 8 16 9 42 3 52 -12 52 -12 36 19 -7 15
-14 32 -14 37 0 6 -10 21 -21 35 -11 14 -18 19 -14 13 3 -7 2 -13 -4 -13 -5 0
-13 9 -16 20 -6 20 -25 28 -25 12z"/>
<path d="M1175 1990 c3 -5 15 -10 26 -10 11 0 17 5 14 10 -3 6 -15 10 -26 10
-11 0 -17 -4 -14 -10z"/>
<path d="M2647 1976 c-63 -12 -67 -26 -8 -26 51 0 81 10 81 26 0 8 -3 13 -7
13 -5 -1 -34 -7 -66 -13z"/>
<path d="M2360 1953 c-42 -16 -150 -87 -147 -97 7 -20 81 -10 165 24 48 19 82
38 82 47 0 24 -62 40 -100 26z"/>
<path d="M1315 1939 c-10 -15 3 -25 16 -12 7 7 7 13 1 17 -6 3 -14 1 -17 -5z"/>
<path d="M1643 1905 c0 -22 2 -30 4 -17 2 12 2 30 0 40 -3 9 -5 -1 -4 -23z"/>
<path d="M1340 1902 c-19 -21 -22 -42 -4 -42 17 0 39 39 27 50 -4 5 -15 1 -23
-8z"/>
<path d="M1610 1878 c0 -16 -4 -28 -10 -28 -5 0 -10 -19 -9 -42 l1 -43 9 38
c5 21 13 46 18 56 6 10 6 23 0 32 -6 10 -9 7 -9 -13z"/>
<path d="M2003 1868 c-18 -6 -33 -15 -33 -19 0 -14 53 -10 73 5 34 26 18 32
-40 14z"/>
<path d="M1372 1823 c2 -16 8 -27 16 -25 19 3 52 -35 59 -69 3 -16 10 -32 14
-35 17 -10 10 -34 -8 -27 -15 5 -16 3 -5 -8 9 -10 15 -10 24 -1 8 8 6 28 -10
79 -12 38 -22 74 -22 81 0 7 -5 10 -10 7 -6 -4 -22 1 -36 10 -25 16 -25 16
-22 -12z"/>
<path d="M2120 1839 c0 -8 -11 -25 -25 -37 -34 -30 -31 -42 10 -42 19 0 35 -4
35 -8 0 -4 9 -8 20 -9 11 -1 20 0 20 3 0 6 -36 74 -49 94 -9 13 -11 13 -11 -1z"/>
<path d="M2858 1788 c-42 -11 -46 -19 -22 -38 13 -11 20 -9 47 18 34 34 32 35
-25 20z"/>
<path d="M2641 1757 c19 -15 79 -47 79 -43 0 8 -62 46 -74 46 -5 0 -7 -1 -5
-3z"/>
<path d="M2809 1747 c6 -8 7 -18 3 -22 -4 -5 -1 -5 6 -1 10 6 10 11 1 22 -6 8
-14 14 -16 14 -3 0 0 -6 6 -13z"/>
<path d="M1966 1726 c-7 -6 -21 -22 -29 -36 -15 -24 -15 -25 9 -26 17 -1 26 4
30 21 3 12 20 29 37 38 l32 15 -33 0 c-18 -1 -38 -6 -46 -12z"/>
<path d="M3875 1731 c11 -5 49 -11 85 -14 47 -5 54 -4 25 2 -68 14 -132 21
-110 12z"/>
<path d="M4148 1703 c-44 -7 -33 -23 15 -23 52 0 80 14 45 23 -12 4 -25 6 -28
5 -3 0 -17 -3 -32 -5z"/>
<path d="M1760 1620 c0 -11 2 -20 4 -20 2 0 6 9 9 20 3 11 1 20 -4 20 -5 0 -9
-9 -9 -20z"/>
<path d="M1995 1625 c-7 -22 -14 -37 -29 -63 l-13 -23 -6 22 c-5 18 -9 20 -21
10 -11 -9 -15 -9 -20 1 -4 9 -5 9 -5 -2 3 -35 -1 -42 -21 -37 -28 7 -33 -6
-10 -31 24 -25 24 -29 5 -29 -8 0 -15 4 -15 9 0 5 -4 6 -10 3 -5 -3 -10 -16
-10 -28 0 -18 -2 -19 -10 -7 -8 13 -10 12 -10 -3 0 -10 -4 -16 -8 -13 -5 3
-22 -13 -38 -34 -16 -22 -32 -40 -36 -40 -5 0 -8 -6 -8 -12 1 -8 8 -4 18 7 9
11 25 19 36 17 10 -2 23 1 28 6 7 7 19 7 37 1 18 -7 27 -7 29 1 3 8 8 8 18 -1
11 -9 14 -8 15 2 0 8 4 5 9 -6 5 -11 9 -14 9 -7 1 20 30 14 69 -17 20 -16 48
-32 62 -36 l25 -6 -22 20 c-13 10 -23 26 -23 34 0 9 -6 18 -12 20 -10 4 -10 8
2 16 17 12 33 4 26 -14 -7 -19 36 -44 70 -42 22 2 30 8 32 25 4 25 -15 55 -29
46 -5 -3 -6 -10 -3 -16 4 -6 1 -9 -7 -6 -8 2 -15 17 -17 31 -2 15 -7 27 -11
27 -5 0 -11 14 -15 31 -3 17 -10 28 -15 24 -6 -3 -8 -12 -4 -20 8 -22 -10 -18
-25 5 -10 17 -9 20 12 26 13 3 33 1 44 -5 29 -15 37 -14 22 4 -7 8 -19 15 -26
15 -8 0 -14 5 -14 10 0 6 3 9 8 8 15 -3 42 15 42 29 0 8 -8 13 -17 11 -13 -2
-17 3 -15 17 2 11 1 17 -3 13 -4 -4 -23 -1 -42 7 -43 18 -43 18 -48 0z m40
-25 c3 -5 1 -10 -4 -10 -6 0 -11 5 -11 10 0 6 2 10 4 10 3 0 8 -4 11 -10z m44
-182 c0 -16 -2 -18 -6 -8 -3 8 -11 18 -17 22 -7 5 -4 8 7 8 11 0 17 -7 16 -22z
m71 -42 c0 -3 -4 -8 -10 -11 -5 -3 -10 -1 -10 4 0 6 5 11 10 11 6 0 10 -2 10
-4z"/>
<path d="M2118 1633 c6 -2 12 -11 12 -20 0 -19 32 -13 37 7 4 13 3 13 -6 0 -9
-13 -11 -13 -11 3 0 11 -7 17 -22 16 -13 0 -17 -3 -10 -6z"/>
<path d="M1450 1620 c0 -5 5 -10 10 -10 6 0 10 5 10 10 0 6 -4 10 -10 10 -5 0
-10 -4 -10 -10z"/>
<path d="M4308 1613 c7 -3 16 -2 19 1 4 3 -2 6 -13 5 -11 0 -14 -3 -6 -6z"/>
<path d="M2544 1590 c0 -11 3 -20 6 -20 6 0 22 -35 44 -95 23 -64 39 -92 60
-105 17 -11 18 -9 11 27 -4 21 -9 54 -11 73 -5 58 -14 80 -29 80 -8 0 -15 6
-15 14 0 13 -41 46 -58 46 -4 0 -8 -9 -8 -20z"/>
<path d="M3420 1600 c1 -17 21 -31 53 -37 46 -7 84 2 96 25 8 15 2 17 -70 17
-43 0 -79 -2 -79 -5z"/>
<path d="M1865 1560 c3 -5 11 -10 16 -10 6 0 7 5 4 10 -3 6 -11 10 -16 10 -6
0 -7 -4 -4 -10z"/>
<path d="M4890 1526 c0 -2 26 -14 58 -26 130 -52 300 -122 338 -141 23 -10 46
-19 51 -19 5 0 24 -7 41 -16 18 -8 39 -14 48 -12 16 3 -82 45 -365 154 -170
66 -171 66 -171 60z"/>
<path d="M2145 1511 c-6 -11 20 -33 28 -24 4 3 7 10 7 14 0 11 -29 19 -35 10z"/>
<path d="M3073 1502 c0 -10 9 -19 19 -19 15 -2 16 1 5 18 -15 24 -26 25 -24 1z"/>
<path d="M2265 1480 c3 -5 11 -10 16 -10 6 0 7 5 4 10 -3 6 -11 10 -16 10 -6
0 -7 -4 -4 -10z"/>
<path d="M2174 1424 c-10 -8 -13 -13 -6 -9 6 3 19 -1 28 -10 22 -21 30 -12 12
14 -13 19 -16 19 -34 5z"/>
<path d="M2444 1408 c-4 -6 -9 -26 -10 -42 -1 -17 -5 -47 -9 -67 -6 -30 -3
-41 16 -63 26 -30 39 -33 40 -8 0 15 2 14 10 -3 7 -15 8 -12 3 12 -3 18 -2 38
2 45 15 24 3 101 -18 120 -25 21 -25 21 -34 6z"/>
<path d="M1722 860 c0 -14 2 -19 5 -12 2 6 2 18 0 25 -3 6 -5 1 -5 -13z"/>
<path d="M1691 344 c0 -11 3 -14 6 -6 3 7 2 16 -1 19 -3 4 -6 -2 -5 -13z"/>
<path d="M1684 115 c0 -66 1 -92 3 -57 2 34 2 88 0 120 -2 31 -3 3 -3 -63z"/>
<path d="M1825 140 c-4 -7 -9 -41 -10 -76 -3 -61 -2 -64 20 -64 20 0 24 6 30
55 5 46 3 58 -13 75 -14 15 -22 18 -27 10z"/>
<path d="M1326 124 c-26 -26 -18 -39 9 -14 14 13 25 25 25 27 0 9 -20 1 -34
-13z"/>
<path d="M2585 70 c-3 -5 1 -10 10 -10 9 0 13 5 10 10 -3 6 -8 10 -10 10 -2 0
-7 -4 -10 -10z"/>
</g>
</svg>
