<svg width="0" height="0" class="hidden">
    <symbol viewBox="0 0 12 12" fill="none" xmlns="http://www.w3.org/2000/svg" id="home">
        <path d="M11.79,4.66l-1.5-1.28V1.34c0-0.23-0.18-0.42-0.4-0.42H8.94c-0.22,0-0.4,0.19-0.4,0.42V1.9L6.54,0.19C6.39,0.07,6.2,0,6,0
	C5.8,0,5.61,0.07,5.46,0.19L0.21,4.66c-0.24,0.2-0.22,0.38-0.19,0.47c0.03,0.09,0.13,0.23,0.43,0.23h0.72v5.88
	c0,0.42,0.33,0.76,0.73,0.76h2.27c0.4,0,0.71-0.33,0.71-0.76V8.83c0-0.21,0.18-0.39,0.38-0.39h1.53c0.19,0,0.35,0.18,0.35,0.39v2.41
	c0,0.41,0.34,0.76,0.74,0.76h2.23c0.4,0,0.73-0.34,0.73-0.76V5.36h0.72c0.31,0,0.4-0.15,0.43-0.23C12.01,5.04,12.03,4.86,11.79,4.66
	z" fill="currentColor"/>
    </symbol>
    <symbol viewBox="0 0 12 12" fill="none" xmlns="http://www.w3.org/2000/svg" id="edit">
            <path d="M9.66,0.16C9.56,0.06,9.42,0,9.27,0C9.13,0,8.99,0.06,8.89,0.16l-6,6c-0.1,0.1-0.16,0.24-0.16,0.39v2.18
		c0,0.3,0.24,0.55,0.55,0.55h2.18c0.14,0,0.28-0.06,0.39-0.16l6-6c0.21-0.21,0.21-0.56,0-0.77L9.66,0.16z" fill="currentColor"/>
            <path d="M11.45,5.45c-0.3,0-0.55,0.24-0.55,0.55v4.91H1.09V1.09H6c0.3,0,0.55-0.24,0.55-0.55S6.3,0,6,0H0.55
		C0.24,0,0,0.24,0,0.55v10.91C0,11.76,0.24,12,0.55,12h10.91c0.3,0,0.55-0.24,0.55-0.55V6C12,5.7,11.76,5.45,11.45,5.45z" fill="currentColor"/>
    </symbol>
    <symbol viewBox="0 0 12 12" fill="none" xmlns="http://www.w3.org/2000/svg" id="screen">
        <path d="M12,1c0-0.55-0.45-1-1-1H1C0.45,0,0,0.45,0,1v6.93c0,0.55,0.45,1,1,1h10c0.55,0,1-0.45,1-1V1z M10.5,7.05
		c0,0.2-0.18,0.38-0.38,0.38H1.88c-0.2,0-0.38-0.18-0.38-0.38V1.88c0-0.2,0.17-0.38,0.38-0.38h8.25c0.2,0,0.38,0.17,0.38,0.38V7.05z
		 M4.25,10.5c-0.55,0-1,0.45-1,1v0.12c0,0.2,0.17,0.38,0.38,0.38h4.75c0.2,0,0.38-0.18,0.38-0.38V11.5c0-0.55-0.45-1-1-1H4.25z" fill="currentColor"/>
        <path d="M4,6.18H2.97c-0.15,0-0.25-0.12-0.25-0.25V3c0-0.15,0.1-0.25,0.25-0.25H4c0.12,0,0.25,0.1,0.25,0.25v2.93
        C4.25,6.07,4.12,6.18,4,6.18z" fill="currentColor"/>
        <path d="M9.02,6.18H5.7c-0.15,0-0.25-0.1-0.25-0.25V3c0-0.15,0.1-0.25,0.25-0.25h3.32c0.12,0,0.25,0.1,0.25,0.25v2.93
        C9.27,6.07,9.15,6.18,9.02,6.18z" fill="currentColor"/>
    </symbol>
    <symbol viewBox="0 0 12 12" fill="none" xmlns="http://www.w3.org/2000/svg" id="note">
        <path d="M11.37,0.32c0-0.18-0.13-0.32-0.31-0.32H1.13C0.95,0,0.79,0.14,0.79,0.32v11.35c0,0.18,0.16,0.32,0.34,0.32h5.7
	c0.09,0,0.17-0.03,0.23-0.1l2.11-2.13l2.12-2.12c0.06-0.06,0.09-0.15,0.09-0.23c0-0.01-0.01-0.01-0.01-0.02L11.37,0.32L11.37,0.32z
	 M10.28,7.74L7.11,10.9V7.74H10.28z M3.61,1.72h4.97c0.2,0,0.35,0.17,0.35,0.37S8.77,2.45,8.58,2.45H3.61
	c-0.2,0-0.35-0.17-0.35-0.37S3.42,1.72,3.61,1.72z M3.61,3.48h4.97c0.2,0,0.35,0.17,0.35,0.37c0,0.2-0.16,0.37-0.35,0.37H3.61
	c-0.2,0-0.35-0.17-0.35-0.37C3.26,3.65,3.42,3.48,3.61,3.48z M3.26,5.63c0-0.2,0.16-0.34,0.35-0.34h4.97c0.2,0,0.35,0.15,0.35,0.34
	c0,0.2-0.16,0.34-0.35,0.34H3.61C3.42,5.98,3.26,5.83,3.26,5.63z" fill="currentColor"/>
    </symbol>
    <symbol viewBox="0 0 12 12" fill="none" xmlns="http://www.w3.org/2000/svg" id="users">
        <path d="M4.49,6.19L4.9,5.98c0.07-0.03,0.14-0.06,0.21-0.06C5.07,5.87,5.03,5.83,4.99,5.78C4.5,5.2,4.23,4.45,4.23,3.64
        c0-1.05,0.26-1.85,0.78-2.37c0.08-0.08,0.17-0.16,0.26-0.22c-0.1-0.01-0.2-0.01-0.31-0.01c-1.23,0-2.23,0.61-2.23,2.61
        C2.74,4.89,3.49,5.94,4.49,6.19z" fill="currentColor"/>
        <path d="M1.57,9.9L2.7,7.37c0.09-0.21,0.25-0.38,0.46-0.49l0.5-0.26C3.53,6.56,3.41,6.48,3.29,6.39C3.25,6.36,3.21,6.36,3.17,6.38
        L1.43,7.28c-0.11,0.06-0.2,0.15-0.25,0.27l-1.12,2.53c-0.08,0.17-0.06,0.37,0.04,0.53c0.1,0.16,0.28,0.26,0.47,0.26h1.1
        c0,0,0-0.01-0.01-0.01C1.46,10.58,1.43,10.22,1.57,9.9z" fill="currentColor"/>
        <path d="M7.04,6.25c1.23,0,2.23-1.17,2.23-2.61c0-2-1-2.61-2.23-2.61c-1.23,0-2.23,0.61-2.23,2.61C4.81,5.08,5.81,6.25,7.04,6.25z
        " fill="currentColor"/>
        <path d="M11.95,10.08l-1.12-2.53c-0.05-0.12-0.14-0.21-0.25-0.27L8.83,6.38C8.79,6.36,8.75,6.36,8.71,6.39
        C8.22,6.76,7.64,6.96,7.04,6.96c-0.6,0-1.18-0.2-1.68-0.57C5.32,6.36,5.28,6.36,5.24,6.38L3.5,7.28c-0.11,0.06-0.2,0.15-0.25,0.27
        l-1.12,2.53c-0.08,0.17-0.06,0.37,0.04,0.53c0.1,0.16,0.28,0.26,0.47,0.26h8.81c0.19,0,0.37-0.1,0.47-0.26
        C12.01,10.46,12.03,10.26,11.95,10.08z" fill="currentColor"/>
    </symbol>
    <symbol viewBox="0 0 12 12" fill="none" xmlns="http://www.w3.org/2000/svg" id="cog">
        <path d="M11.75,7.44l-1.03-0.6c0.1-0.56,0.1-1.14,0-1.7l1.03-0.6c0.12-0.07,0.17-0.21,0.13-0.34c-0.27-0.86-0.73-1.64-1.32-2.29
        c-0.09-0.1-0.24-0.12-0.36-0.06l-1.03,0.6C8.73,2.09,8.24,1.8,7.7,1.62V0.43c0-0.14-0.09-0.25-0.23-0.28c-0.89-0.2-1.8-0.19-2.64,0
        C4.69,0.17,4.6,0.29,4.6,0.43v1.19C4.06,1.81,3.56,2.1,3.13,2.47L2.1,1.87C1.98,1.8,1.83,1.83,1.74,1.93
        c-0.6,0.65-1.05,1.42-1.32,2.29C0.38,4.35,0.43,4.49,0.55,4.56l1.03,0.6c-0.1,0.56-0.1,1.14,0,1.7l-1.03,0.6
        C0.43,7.51,0.38,7.65,0.42,7.78c0.27,0.86,0.73,1.64,1.32,2.29c0.09,0.1,0.24,0.12,0.36,0.06l1.03-0.6
        c0.43,0.37,0.93,0.66,1.47,0.85v1.19c0,0.14,0.09,0.25,0.23,0.28c0.89,0.2,1.8,0.19,2.64,0c0.13-0.03,0.23-0.15,0.23-0.28v-1.19
        c0.54-0.19,1.04-0.48,1.47-0.85l1.03,0.6c0.12,0.07,0.27,0.05,0.36-0.06c0.6-0.65,1.05-1.42,1.32-2.29
        C11.92,7.65,11.86,7.51,11.75,7.44z M6.15,7.93C5.08,7.93,4.21,7.06,4.21,6s0.87-1.94,1.94-1.94S8.08,4.93,8.08,6
        S7.21,7.93,6.15,7.93z" fill="currentColor"/>
    </symbol>
    <symbol viewBox="0 0 12 12" fill="none" xmlns="http://www.w3.org/2000/svg" id="plus">
        <path d="M10.83,4.61l-3.7,0l0-3.43C7.13,0.53,6.6,0,5.95,0C5.3,0,4.78,0.53,4.78,1.17v3.43l-3.6,0C0.53,4.61,0,5.13,0,5.78
        c0,0.65,0.53,1.17,1.17,1.17h3.6v3.87C4.78,11.47,5.3,12,5.95,12s1.17-0.53,1.17-1.17V6.96h3.7c0.65,0,1.17-0.53,1.17-1.17
		C12,5.13,11.47,4.61,10.83,4.61z" fill="currentColor"/>
    </symbol>
    <symbol viewBox="0 0 12 12" fill="none" xmlns="http://www.w3.org/2000/svg" id="check">
        <path d="M11.65,3.68l-6.33,6.33c-0.47,0.47-1.23,0.47-1.7,0L0.35,6.75c-0.47-0.47-0.47-1.23,0-1.7c0.47-0.47,1.23-0.47,1.7,0
		l2.42,2.42l5.48-5.48c0.47-0.47,1.23-0.47,1.7,0C12.12,2.45,12.12,3.21,11.65,3.68z" fill="currentColor"/>
    </symbol>
    <symbol viewBox="0 0 12 12" fill="none" xmlns="http://www.w3.org/2000/svg" id="times">
        <path d="M10.4,8.43L7.78,5.81l2.43-2.43c0.46-0.46,0.46-1.2,0-1.66c-0.46-0.46-1.2-0.46-1.66,0L6.12,4.15L3.57,1.6
		c-0.46-0.46-1.2-0.46-1.66,0c-0.46,0.46-0.46,1.2,0,1.66l2.55,2.55L1.72,8.55c-0.46,0.46-0.46,1.2,0,1.66s1.2,0.46,1.66,0
		l2.74-2.74l2.62,2.62c0.46,0.46,1.2,0.46,1.66,0C10.86,9.63,10.86,8.89,10.4,8.43z" fill="currentColor"/>
    </symbol>
    <symbol viewBox="0 0 12 12" fill="none" xmlns="http://www.w3.org/2000/svg" id="left">
        <path d="M8.63,0c0.24,0,0.48,0.09,0.66,0.27c0.36,0.36,0.36,0.95,0,1.32L4.88,6l4.41,4.41
		c0.36,0.36,0.36,0.95,0,1.32c-0.36,0.36-0.95,0.36-1.32,0L2.9,6.66C2.54,6.3,2.54,5.7,2.9,5.34l5.07-5.07C8.15,0.09,8.39,0,8.63,0" fill="currentColor"/>
    </symbol>
    <symbol viewBox="0 0 12 12" fill="none" xmlns="http://www.w3.org/2000/svg" id="right">
        <path d="M3.56,12c-0.24,0-0.48-0.09-0.66-0.27c-0.36-0.36-0.36-0.95,0-1.32L7.31,6L2.9,1.59
		c-0.36-0.36-0.36-0.95,0-1.32c0.36-0.36,0.95-0.36,1.32,0l5.07,5.07c0.36,0.36,0.36,0.95,0,1.32l-5.07,5.07
		C4.04,11.91,3.8,12,3.56,12z" fill="currentColor"/>
    </symbol>
    <symbol viewBox="0 0 12 12" fill="none" xmlns="http://www.w3.org/2000/svg" id="logout">
        <path d="M0,1.33C0,0.6,0.6,0,1.33,0c0,0,1.78,0,5.33,0v1.33H1.33v9.33h5.33V12c-3.55,0-5.33,0-5.33,0
			C0.6,12,0,11.4,0,10.67C0,4.42,0,1.33,0,1.33z M9.45,5.33L7.76,3.64L8.7,2.7L12,6L8.7,9.3L7.76,8.36l1.69-1.69H5.06V5.33H9.45z" fill="currentColor"/>
    </symbol>
    <symbol viewBox="0 0 12 12" fill="none" xmlns="http://www.w3.org/2000/svg" id="filter">
        <polygon points="12,0.33 0,0.33 4.57,5.14 4.57,11.67 7.43,10.19 7.43,5.14" fill="currentColor"/>
    </symbol>
    <symbol viewBox="0 0 12 12" fill="none" xmlns="http://www.w3.org/2000/svg" id="search">
        <path d="M3.61,0.68c-1,0.58-1.72,1.51-2.02,2.63C1.3,4.43,1.45,5.6,2.03,6.6C2.8,7.94,4.24,8.77,5.78,8.77
	c0.49,0,0.97-0.08,1.43-0.25l1.95,3.38l1.39-0.8L8.61,7.72c0.66-0.56,1.13-1.31,1.36-2.17c0.3-1.12,0.15-2.29-0.43-3.29
	C8.76,0.93,7.32,0.1,5.78,0.1C5.02,0.1,4.27,0.3,3.61,0.68z M8.14,3.07C8.51,3.7,8.61,4.44,8.42,5.14C8.23,5.84,7.78,6.43,7.15,6.8
	C6.73,7.04,6.26,7.16,5.78,7.16c-0.97,0-1.88-0.52-2.37-1.36C3.05,5.17,2.96,4.43,3.15,3.73c0.19-0.7,0.64-1.29,1.27-1.66
	C4.83,1.83,5.3,1.71,5.78,1.71C6.75,1.71,7.66,2.23,8.14,3.07z" fill="currentColor"/>
    </symbol>
    <symbol viewBox="0 0 12 12" fill="none" xmlns="http://www.w3.org/2000/svg" id="website">
        <path d="M11.62,0.94H0.38C0.17,0.94,0,1.11,0,1.31v9.38c0,0.21,0.17,0.38,0.38,0.38h11.25c0.21,0,0.38-0.17,0.38-0.38V1.31
		C12,1.11,11.83,0.94,11.62,0.94z M11.25,1.69v1.5H0.75v-1.5H11.25z M0.75,10.31V3.94h10.5v6.38H0.75 z" fill="currentColor"/>
        <path d="M1.88,2.81c0.1,0,0.19-0.04,0.26-0.11c0.07-0.07,0.11-0.17,0.11-0.26S2.21,2.24,2.14,2.17C2,2.03,1.75,2.03,1.61,2.17
		C1.54,2.24,1.5,2.34,1.5,2.44S1.54,2.63,1.61,2.7C1.68,2.77,1.78,2.81,1.88,2.81 z" fill="currentColor"/>
        <path d="M3,2.81c0.1,0,0.2-0.04,0.27-0.11c0.07-0.07,0.11-0.17,0.11-0.26S3.34,2.24,3.26,2.17c-0.14-0.14-0.39-0.14-0.53,0
		C2.66,2.24,2.62,2.34,2.62,2.44S2.66,2.63,2.74,2.7C2.81,2.77,2.9,2.81,3,2.81 z" fill="currentColor"/>
        <path d="M4.12,2.81c0.1,0,0.2-0.04,0.26-0.11C4.46,2.63,4.5,2.54,4.5,2.44c0-0.1-0.04-0.19-0.11-0.27C4.25,2.03,4,2.03,3.86,2.17
		C3.79,2.24,3.75,2.34,3.75,2.44c0,0.1,0.04,0.19,0.11,0.26C3.93,2.77,4.03,2.81,4.12,2.81 z" fill="currentColor"/>
        <path d="M5.81,4.69H1.88c-0.21,0-0.38,0.17-0.38,0.38s0.17,0.38,0.38,0.38h3.94c0.21,0,0.38-0.17,0.38-0.38S6.02,4.69,5.81,4.69z" fill="currentColor"/>
        <path d="M5.81,6.19H1.88c-0.21,0-0.38,0.17-0.38,0.38s0.17,0.38,0.38,0.38h3.94c0.21,0,0.38-0.17,0.38-0.38S6.02,6.19,5.81,6.19z" fill="currentColor"/>
        <path d="M5.81,7.69H1.88c-0.21,0-0.38,0.17-0.38,0.38s0.17,0.38,0.38,0.38h3.94c0.21,0,0.38-0.17,0.38-0.38S6.02,7.69,5.81,7.69z" fill="currentColor"/>
        <path d="M10.12,4.69H7.31c-0.21,0-0.38,0.17-0.38,0.38v3c0,0.21,0.17,0.38,0.38,0.38h2.81c0.21,0,0.38-0.17,0.38-0.38v-3
		C10.5,4.86,10.33,4.69,10.12,4.69z M9.75,7.69H7.69V5.44h2.06V7.69 z" fill="currentColor"/>
    </symbol>
    <symbol viewBox="0 0 12 12" fill="none" xmlns="http://www.w3.org/2000/svg" id="mobile">
        <path class="st0" d="M9.33,0H2.67v12h6.66V0z M5.01,0.72h1.98v0.49H5.01V0.72z M6,11.39c-0.27,0-0.49-0.22-0.49-0.49
	c0-0.27,0.22-0.49,0.49-0.49c0.27,0,0.49,0.22,0.49,0.49C6.49,11.17,6.27,11.39,6,11.39z M8.4,9.83H3.6V2.17H8.4L8.4,9.83L8.4,9.83z" fill="currentColor"/>
    </symbol>
    <symbol viewBox="0 0 12 12" fill="none" xmlns="http://www.w3.org/2000/svg" id="code">
        <path d="M4.05,3.61L1.65,6l2.39,2.39c0.27,0.27,0.27,0.7,0,0.97c-0.13,0.13-0.31,0.2-0.48,0.2s-0.35-0.07-0.48-0.2L0.2,6.48
		C0.07,6.36,0,6.18,0,6c0-0.18,0.07-0.36,0.2-0.48l2.88-2.88c0.27-0.27,0.7-0.27,0.97,0C4.31,2.91,4.31,3.34,4.05,3.61z M11.8,5.52
		L8.92,2.64c-0.27-0.27-0.7-0.27-0.97,0c-0.27,0.27-0.27,0.7,0,0.97L10.35,6L7.95,8.39c-0.27,0.27-0.27,0.7,0,0.97
		c0.13,0.13,0.31,0.2,0.48,0.2s0.35-0.07,0.48-0.2l2.88-2.88C11.93,6.36,12,6.18,12,6C12,5.82,11.93,5.64,11.8,5.52z M7.2,1.31
		C6.83,1.22,6.46,1.44,6.36,1.81L4.31,9.85c-0.09,0.37,0.13,0.74,0.49,0.83c0.06,0.01,0.11,0.02,0.17,0.02
		c0.31,0,0.58-0.21,0.66-0.52l2.06-8.05C7.78,1.78,7.56,1.41,7.2,1.31z" fill="currentColor"/>
    </symbol>
    <symbol viewBox="0 0 12 12" fill="none" xmlns="http://www.w3.org/2000/svg" id="italic">
        <path d="M11.18,2.18h-3.2l-1.7,7.64h3.27V12H0.82V9.82h3.2l1.7-7.64H2.45V0h8.73V2.18z" fill="currentColor"/>
    </symbol>
    <symbol viewBox="0 0 12 12" fill="none" xmlns="http://www.w3.org/2000/svg" id="bold">
        <path d="M6.2,0c1.18,0,2.15,0.31,2.9,0.92c0.73,0.61,1.09,1.4,1.09,2.35c0,0.57-0.12,1.09-0.38,1.57c-0.27,0.48-0.6,0.81-0.99,0.99
	V5.9c0.64,0.2,1.15,0.56,1.53,1.06c0.36,0.5,0.55,1.08,0.55,1.74c0,0.95-0.35,1.75-1.06,2.39C9.15,11.69,8.25,12,7.16,12H1.09V0H6.2
	z M6.34,4.91c0.48,0,0.88-0.15,1.19-0.44c0.32-0.3,0.48-0.65,0.48-1.06c0-0.36-0.15-0.66-0.44-0.89C7.25,2.3,6.84,2.18,6.34,2.18
	H3.27v2.73H6.34z M6.95,9.82c0.5,0,0.92-0.12,1.26-0.38c0.34-0.27,0.51-0.6,0.51-0.99c0-0.43-0.16-0.76-0.48-0.99
	c-0.34-0.25-0.77-0.38-1.3-0.38H3.27v2.73H6.95z" fill="currentColor"/>
    </symbol>
    <symbol viewBox="0 0 12 12" fill="none" xmlns="http://www.w3.org/2000/svg" id="fullscreen">
        <path d="M0,0h4v1.5H1.5v2H0V0z M10.5,1.5H8V0h4v3.5h-1.5V1.5z M0,8.5h1.5v2H4V12H0V8.5z M8,10.5h2.5v-2H12V12H8V10.5z" fill="currentColor"/>
    </symbol>
    <symbol viewBox="0 0 12 12" fill="none" xmlns="http://www.w3.org/2000/svg" id="link">
        <path d="M11.21,0.96l-0.42-0.37c-0.97-0.86-2.46-0.77-3.32,0.2l-1.2,1.35C6,2.45,6.03,2.91,6.33,3.18l0.11,0.1
		c0.31,0.27,0.77,0.24,1.04-0.06l1.19-1.35c0.27-0.3,0.73-0.33,1.03-0.06l0.42,0.37c0.3,0.27,0.33,0.73,0.06,1.03L7.58,6.16
		C7.36,6.41,7,6.47,6.7,6.32C6.37,6.15,5.98,6.23,5.74,6.5L5.71,6.52C5.55,6.71,5.48,6.95,5.53,7.2c0.04,0.24,0.2,0.45,0.42,0.56
		c0.35,0.18,0.72,0.27,1.09,0.27c0.66,0,1.3-0.28,1.76-0.79l2.61-2.95C12.27,3.32,12.18,1.82,11.21,0.96z" fill="currentColor"/>
        <path d="M5.67,8.82l-0.11-0.1c-0.3-0.27-0.77-0.24-1.04,0.06l-1.19,1.35c-0.27,0.3-0.73,0.33-1.03,0.06L1.87,9.82
		c-0.3-0.27-0.33-0.73-0.06-1.03l2.61-2.95C4.64,5.6,4.99,5.53,5.29,5.68c0.34,0.17,0.75,0.09,1-0.2l0.01-0.01
		c0.16-0.18,0.23-0.42,0.19-0.66c-0.04-0.24-0.19-0.44-0.4-0.55C5.11,3.74,3.93,3.95,3.2,4.77L0.59,7.71v0
		c-0.86,0.97-0.77,2.46,0.2,3.32l0.42,0.37c0.45,0.4,1,0.59,1.56,0.59c0.65,0,1.3-0.27,1.76-0.79l1.19-1.35
		C6,9.55,5.97,9.09,5.67,8.82z" fill="currentColor"/>
    </symbol>
    <symbol viewBox="0 0 12 12" fill="none" xmlns="http://www.w3.org/2000/svg" id="bug">
        <path d="M8.96,2.96C8.88,2.83,8.8,2.71,8.71,2.6C7.99,1.64,7.03,1.12,6,1.12S4.01,1.64,3.29,2.6
		C3.2,2.71,3.12,2.83,3.04,2.96C3.6,3.85,4.72,4.45,6,4.45C7.28,4.45,8.4,3.85,8.96,2.96z" fill="currentColor"/>
        <path d="M11.58,5.6H9.76C9.74,5.25,9.69,4.91,9.61,4.58l1.43-1.43c0.16-0.16,0.16-0.43,0-0.59
		c-0.16-0.16-0.43-0.16-0.59,0L9.74,3.28c-0.2,0.36-0.48,0.68-0.81,0.97c-0.68,0.58-1.56,0.94-2.5,1.02v5.62
		c0.87-0.12,1.68-0.63,2.29-1.45c0.11-0.14,0.21-0.3,0.3-0.45l1.44,1.44c0.08,0.08,0.19,0.12,0.29,0.12c0.11,0,0.21-0.04,0.29-0.12
		c0.16-0.16,0.16-0.43,0-0.59L9.39,8.18C9.6,7.64,9.72,7.05,9.76,6.43h1.82c0.23,0,0.42-0.19,0.42-0.42C12,5.78,11.81,5.6,11.58,5.6
		z" fill="currentColor"/>
        <path d="M5.58,5.27c-0.94-0.08-1.82-0.43-2.5-1.02C2.74,3.96,2.47,3.64,2.26,3.28L1.54,2.56
		c-0.16-0.16-0.43-0.16-0.59,0c-0.16,0.16-0.16,0.43,0,0.59l1.43,1.43C2.31,4.91,2.26,5.25,2.24,5.6H0.42C0.19,5.6,0,5.78,0,6.01
		s0.19,0.42,0.42,0.42h1.82C2.28,7.05,2.4,7.64,2.61,8.18L0.96,9.83c-0.16,0.16-0.16,0.43,0,0.59c0.16,0.16,0.43,0.16,0.59,0
		l1.44-1.44c0.09,0.16,0.19,0.31,0.3,0.45c0.62,0.82,1.42,1.33,2.29,1.45L5.58,5.27L5.58,5.27z" fill="currentColor"/>
    </symbol>
    <symbol viewBox="0 0 12 12" fill="none" xmlns="http://www.w3.org/2000/svg" id="folder">
        <polygon points="10.05,10.95 0,10.95 1.95,3.87 12,3.87" fill="currentColor"/>
        <polygon points="1.52,3.3 10.05,3.3 10.05,2.22 5.03,2.22 4.52,1.05 0,1.05 0,8.84" fill="currentColor"/>
    </symbol>
    <symbol viewBox="0 0 12 12" fill="none" xmlns="http://www.w3.org/2000/svg" id="trash">
        <path d="M10.12,2.25H9v-1.5C9,0.34,8.66,0,8.25,0h-4.5C3.34,0,3,0.34,3,0.75v1.5H1.88C1.46,2.25,1.12,2.59,1.12,3v0.75h9.75V3
		C10.88,2.59,10.54,2.25,10.12,2.25z M4.5,2.25V1.5h3v0.75H4.5z" fill="currentColor"/>
        <path d="M1.88,11.25c0,0.41,0.34,0.75,0.75,0.75h6.75c0.41,0,0.75-0.34,0.75-0.75v0V4.5H1.88V11.25z M7.5,6.38
		C7.5,6.17,7.67,6,7.88,6c0.21,0,0.38,0.17,0.38,0.38v3.75c0,0.21-0.17,0.38-0.38,0.38c-0.21,0-0.38-0.17-0.38-0.38V6.38z
		 M5.62,6.38C5.62,6.17,5.79,6,6,6s0.38,0.17,0.38,0.38v3.75c0,0.21-0.17,0.38-0.38,0.38s-0.38-0.17-0.38-0.38V6.38z M3.75,6.38
		C3.75,6.17,3.92,6,4.12,6S4.5,6.17,4.5,6.38v3.75c0,0.21-0.17,0.38-0.38,0.38s-0.38-0.17-0.38-0.38V6.38z" fill="currentColor"/>
    </symbol>
    <symbol viewBox="0 0 12 12" fill="none" xmlns="http://www.w3.org/2000/svg" id="squares">
        <path d="M11.74,0H6.78C6.64,0,6.52,0.12,6.52,0.26v4.96c0,0.14,0.12,0.26,0.26,0.26h4.96c0.14,0,0.26-0.12,0.26-0.26V0.26
	C12,0.12,11.88,0,11.74,0z M11.74,6.52H6.78c-0.14,0-0.26,0.12-0.26,0.26v4.96c0,0.14,0.12,0.26,0.26,0.26h4.96
	c0.14,0,0.26-0.12,0.26-0.26V6.78C12,6.64,11.88,6.52,11.74,6.52z M5.22,0H0.26C0.12,0,0,0.12,0,0.26v4.96
	c0,0.14,0.12,0.26,0.26,0.26h4.96c0.14,0,0.26-0.12,0.26-0.26V0.26C5.48,0.12,5.36,0,5.22,0z M5.22,6.52H0.26
	C0.12,6.52,0,6.64,0,6.78v4.96C0,11.88,0.12,12,0.26,12h4.96c0.14,0,0.26-0.12,0.26-0.26V6.78C5.48,6.64,5.36,6.52,5.22,6.52z" fill="currentColor"/>
    </symbol>
    <symbol viewBox="0 0 12 12" fill="none" xmlns="http://www.w3.org/2000/svg" id="eye">
        <path d="M6,2.42c-2.29,0-4.37,1.25-5.91,3.29c-0.13,0.17-0.13,0.4,0,0.57C1.63,8.32,3.71,9.58,6,9.58s4.37-1.25,5.91-3.29
		c0.13-0.17,0.13-0.4,0-0.57C10.37,3.68,8.29,2.42,6,2.42z M6.16,8.52c-1.52,0.1-2.78-1.16-2.68-2.68c0.08-1.26,1.1-2.28,2.35-2.35
		c1.52-0.1,2.78,1.16,2.68,2.68C8.44,7.42,7.42,8.44,6.16,8.52z M6.09,7.36c-0.82,0.05-1.5-0.62-1.44-1.44
		c0.04-0.68,0.59-1.22,1.27-1.27c0.82-0.05,1.5,0.62,1.44,1.44C7.31,6.77,6.76,7.31,6.09,7.36z" fill="currentColor"/>
    </symbol>
    <symbol viewBox="0 0 12 12" fill="none" xmlns="http://www.w3.org/2000/svg" id="lock">
        <path d="M2.36,12h7.27c0.3,0,0.55-0.24,0.55-0.55V5.27c0-0.3-0.24-0.55-0.55-0.55H9.09V3.09C9.09,1.39,7.7,0,6,0
		S2.91,1.39,2.91,3.09v1.64H2.36c-0.3,0-0.55,0.24-0.55,0.55v6.18C1.82,11.76,2.06,12,2.36,12z M6.55,8.54v0.73
		c0,0.3-0.24,0.55-0.55,0.55S5.45,9.57,5.45,9.27V8.54C5.23,8.38,5.09,8.11,5.09,7.82c0-0.5,0.41-0.91,0.91-0.91
		s0.91,0.41,0.91,0.91C6.91,8.11,6.77,8.38,6.55,8.54z M4,3.09c0-1.1,0.9-2,2-2s2,0.9,2,2v1.64H4V3.09z" fill="currentColor"/>
    </symbol>
    <symbol viewBox="0 0 12 12" fill="none" xmlns="http://www.w3.org/2000/svg" id="print">
        <rect x="2.04" y="0.2" width="7.91" height="1.65" fill="currentColor"/>
        <path d="M2.44,11.8h7.12V6.73H2.44V11.8z M3.36,7.78h5.27v0.79H3.36V7.78z M3.36,9.63h5.27v0.79H3.36V9.63z" fill="currentColor"/>
        <path d="M0,2.64v7.38h1.65V5.93h8.7v4.09H12V2.64H0z M9.96,4.62c-0.22,0-0.4-0.18-0.4-0.4c0-0.22,0.18-0.4,0.4-0.4
		s0.4,0.18,0.4,0.4C10.35,4.44,10.17,4.62,9.96,4.62z" fill="currentColor"/>
    </symbol>
    <symbol viewBox="0 0 12 12" fill="none" xmlns="http://www.w3.org/2000/svg" id="sun">
            <path d="M6,2.99C4.34,2.99,2.99,4.34,2.99,6S4.34,9.01,6,9.01c1.66,0,3.01-1.35,3.01-3.01S7.66,2.99,6,2.99z" fill="currentColor"/>
            <path d="M6,2.11c-0.32,0-0.59-0.26-0.59-0.59V0.59C5.41,0.26,5.68,0,6,0s0.59,0.26,0.59,0.59v0.94C6.59,1.85,6.32,2.11,6,2.11z" fill="currentColor"/>
            <path d="M6,9.89c-0.32,0-0.59,0.26-0.59,0.59v0.94C5.41,11.74,5.68,12,6,12s0.59-0.26,0.59-0.59v-0.94
					C6.59,10.15,6.32,9.89,6,9.89z" fill="currentColor"/>
            <path d="M8.75,3.25c-0.23-0.23-0.23-0.6,0-0.83l0.66-0.66c0.23-0.23,0.6-0.23,0.83,0c0.23,0.23,0.23,0.6,0,0.83L9.58,3.25
					C9.35,3.48,8.98,3.48,8.75,3.25z" fill="currentColor"/>
            <path d="M3.25,8.75c-0.23-0.23-0.6-0.23-0.83,0L1.76,9.41c-0.23,0.23-0.23,0.6,0,0.83s0.6,0.23,0.83,0l0.66-0.66
					C3.48,9.35,3.48,8.98,3.25,8.75z" fill="currentColor"/>
            <path d="M9.89,6c0-0.32,0.26-0.59,0.59-0.59h0.94C11.74,5.41,12,5.68,12,6s-0.26,0.59-0.59,0.59h-0.94
					C10.15,6.59,9.89,6.32,9.89,6z" fill="currentColor"/>
            <path d="M2.11,6c0-0.32-0.26-0.59-0.59-0.59H0.59C0.26,5.41,0,5.68,0,6s0.26,0.59,0.59,0.59h0.94C1.85,6.59,2.11,6.32,2.11,6z" fill="currentColor"/>
            <path d="M8.75,8.75c0.23-0.23,0.6-0.23,0.83,0l0.66,0.66c0.23,0.23,0.23,0.6,0,0.83c-0.23,0.23-0.6,0.23-0.83,0L8.75,9.58
					C8.52,9.35,8.52,8.98,8.75,8.75z" fill="currentColor"/>
            <path d="M3.25,3.25c0.23-0.23,0.23-0.6,0-0.83L2.59,1.76c-0.23-0.23-0.6-0.23-0.83,0c-0.23,0.23-0.23,0.6,0,0.83l0.66,0.66
					C2.65,3.48,3.02,3.48,3.25,3.25z" fill="currentColor"/>
    </symbol>
    <symbol viewBox="0 0 12 12" fill="none" xmlns="http://www.w3.org/2000/svg" id="moon">
        <path d="M6.21,12C2.78,12,0,9.22,0,5.79c0-2.52,1.45-4.78,3.69-5.75c0.22-0.09,0.47,0,0.56,0.22c0.05,0.11,0.05,0.23,0,0.34
        C3.99,1.19,3.86,1.95,3.86,2.79c0,2.95,2.4,5.36,5.36,5.36c0.84,0,1.6-0.14,2.19-0.39c0.22-0.09,0.47,0,0.56,0.22
        c0.05,0.11,0.05,0.23,0,0.34C10.99,10.55,8.73,12,6.21,12z" fill="currentColor"/>
    </symbol>
    <symbol viewBox="0 0 12 12" fill="none" xmlns="http://www.w3.org/2000/svg" id="duplicate">
        <path d="M3.6,3.6V1.2C3.6,0.54,4.14,0,4.8,0h6C11.46,0,12,0.54,12,1.2v6c0,0.66-0.54,1.2-1.2,1.2H8.4v2.4c0,0.66-0.54,1.2-1.2,1.2
	h-6C0.54,12,0,11.46,0,10.8v-6c0-0.66,0.54-1.2,1.2-1.2H3.6z M4.8,3.6h2.4c0.66,0,1.2,0.54,1.2,1.2v2.4h2.4v-6h-6V3.6z M1.2,4.8v6h6
	v-6H1.2z M3.6,7.2V6h1.2v1.2H6v1.2H4.8v1.2H3.6V8.4H2.4V7.2H3.6z" fill="currentColor"/>
    </symbol>
    <symbol viewBox="0 0 12 12" fill="none" xmlns="http://www.w3.org/2000/svg" id="clipboard">
        <path d="M9.75,0.75H7.06C6.9,0.31,6.49,0,6,0S5.1,0.31,4.94,0.75H2.25C1.84,0.75,1.5,1.09,1.5,1.5v9.75C1.5,11.66,1.84,12,2.25,12
		h7.5c0.41,0,0.75-0.34,0.75-0.75V1.5C10.5,1.09,10.16,0.75,9.75,0.75z M6,0.75c0.21,0,0.38,0.17,0.38,0.38
		C6.38,1.33,6.21,1.5,6,1.5c-0.21,0-0.38-0.17-0.38-0.38C5.62,0.92,5.79,0.75,6,0.75z M9,10.5H3V2.25h1.88v0.38
		C4.88,2.83,5.04,3,5.25,3h1.5c0.21,0,0.38-0.17,0.38-0.38V2.25H9V10.5z" fill="currentColor"/>
        <path d="M5.62,6.44L5.03,5.84c-0.29-0.29-0.77-0.29-1.06,0c-0.29,0.29-0.29,0.77,0,1.06l1.12,1.12c0.15,0.15,0.34,0.22,0.53,0.22
		s0.38-0.07,0.53-0.22l1.88-1.88c0.29-0.29,0.29-0.77,0-1.06c-0.29-0.29-0.77-0.29-1.06,0L5.62,6.44z" fill="currentColor"/>
    </symbol>
    <symbol viewBox="0 0 12 12" fill="none" xmlns="http://www.w3.org/2000/svg" id="insert">
        <polygon points="0,0 0,4.06 1.16,4.06 1.16,1.16 4.06,1.16 4.06,0" fill="currentColor"/>
        <polygon points="7.94,0 7.94,1.16 10.84,1.16 10.84,4.06 12,4.06 12,0" fill="currentColor"/>
        <polygon points="10.84,7.94 10.84,10.84 7.94,10.84 7.94,12 12,12 12,7.94" fill="currentColor"/>
        <polygon points="1.16,10.84 1.16,7.94 0,7.94 0,12 4.06,12 4.06,10.84" fill="currentColor"/>
        <polygon points="6.58,5.42 6.58,3.29 5.42,3.29 5.42,5.42 3.29,5.42 3.29,6.58 5.42,6.58 5.42,8.71 6.58,8.71 6.58,6.58
			8.71,6.58 8.71,5.42" fill="currentColor"/>
    </symbol>
    <symbol viewBox="0 0 12 12" fill="none" xmlns="http://www.w3.org/2000/svg" id="dotsdg">
        <path d="M3.67,4.67c-0.74,0-1.33,0.6-1.33,1.33s0.6,1.33,1.33,1.33S5,6.74,5,6S4.4,4.67,3.67,4.67z M3.67,9.33
	c-0.74,0-1.33,0.6-1.33,1.33c0,0.74,0.6,1.33,1.33,1.33S5,11.4,5,10.67C5,9.93,4.4,9.33,3.67,9.33z M8.33,2.67
	c0.74,0,1.33-0.6,1.33-1.33S9.07,0,8.33,0S7,0.6,7,1.33S7.6,2.67,8.33,2.67z M3.67,0C2.93,0,2.33,0.6,2.33,1.33s0.6,1.33,1.33,1.33
	S5,2.07,5,1.33S4.4,0,3.67,0z M8.33,9.33C7.6,9.33,7,9.93,7,10.67C7,11.4,7.6,12,8.33,12s1.33-0.6,1.33-1.33
	C9.67,9.93,9.07,9.33,8.33,9.33z M8.33,4.67C7.6,4.67,7,5.26,7,6s0.6,1.33,1.33,1.33S9.67,6.74,9.67,6S9.07,4.67,8.33,4.67z" fill="currentColor"/>
    </symbol>
    <symbol viewBox="0 0 12 12" fill="none" xmlns="http://www.w3.org/2000/svg" id="h1">
        <path d="M5.17,1.63h1.67v8.33H5.17V6.63H1.83v3.33H0.17V1.63h1.67v3.33h3.33V1.63z M10.64,1.63C10.15,2.42,9.39,3.01,8.5,3.3v0.83
		h1.67v5.83h1.67V1.63H10.64z" fill="currentColor"/>
    </symbol>
    <symbol viewBox="0 0 12 12" fill="none" xmlns="http://www.w3.org/2000/svg" id="text">
        <path d="M11,0H6.75H5.32H1.03C0.67,0,0.37,0.29,0.37,0.65v1.42c0,0.36,0.29,0.65,0.65,0.65s0.65-0.29,0.65-0.65V1.29h2.98v9.41H3.88
	c-0.36,0-0.65,0.29-0.65,0.65S3.52,12,3.88,12h4.27c0.36,0,0.65-0.29,0.65-0.65s-0.29-0.65-0.65-0.65H7.36V1.29h2.98v0.78
	c0,0.36,0.29,0.65,0.65,0.65s0.65-0.29,0.65-0.65V0.65C11.63,0.29,11.36,0,11,0z" fill="currentColor"/>
    </symbol>
    <symbol viewBox="0 0 12 12" fill="none" xmlns="http://www.w3.org/2000/svg" id="expand">
        <path d="M11.26,4.12c0.41,0,0.74-0.33,0.74-0.74V0.74C12,0.33,11.67,0,11.26,0H8.63C8.22,0,7.88,0.33,7.88,0.74
	s0.33,0.74,0.74,0.74h0.83L6,4.95L2.54,1.49h0.83c0.41,0,0.74-0.33,0.74-0.74S3.78,0,3.37,0H0.74C0.33,0,0,0.33,0,0.74v2.63
	c0,0.41,0.33,0.74,0.74,0.74c0.41,0,0.74-0.33,0.74-0.74V2.54L4.95,6L1.49,9.46V8.63c0-0.41-0.33-0.74-0.74-0.74
	C0.33,7.88,0,8.22,0,8.63v2.63C0,11.67,0.33,12,0.74,12h2.63c0.41,0,0.74-0.33,0.74-0.74c0-0.41-0.33-0.74-0.74-0.74H2.54L6,7.05
	l3.46,3.46H8.63c-0.41,0-0.74,0.33-0.74,0.74S8.22,12,8.63,12h2.63c0.41,0,0.74-0.33,0.74-0.74V8.63c0-0.41-0.33-0.74-0.74-0.74
	c-0.41,0-0.74,0.33-0.74,0.74v0.83L7.05,6l3.46-3.46v0.83C10.51,3.78,10.85,4.12,11.26,4.12z" fill="currentColor"/>
    </symbol>
    <symbol viewBox="0 0 12 12" fill="none" xmlns="http://www.w3.org/2000/svg" id="underline">
        <path class="st0" d="M1.2,10.8h9.6V12H1.2V10.8z" fill="currentColor"/>
        <path class="st1" d="M3.6,0v5.37c0,1.33,1.07,2.4,2.4,2.4s2.4-1.07,2.4-2.4V0h1.2v5.37c0,1.99-1.61,3.6-3.6,3.6 c-1.99,0-3.6-1.61-3.6-3.6V0H3.6z" fill="currentColor"/>
    </symbol>
    <symbol viewBox="0 0 12 12" fill="none" xmlns="http://www.w3.org/2000/svg" id="bulletList">
        <circle cx="1.03" cy="2.57" r="0.78" fill="currentColor"/>
        <circle cx="1.03" cy="5.68" r="0.78" fill="currentColor"/>
        <circle cx="1.03" cy="8.79" r="0.78" fill="currentColor"/>
        <path d="M11.61,2.5c0-0.21-0.17-0.39-0.39-0.39H2.89v0.78h8.33C11.43,2.89,11.61,2.71,11.61,2.5z" fill="currentColor"/>
        <path d="M11.22,5.22H2.89V6h8.33c0.21,0,0.39-0.17,0.39-0.39C11.61,5.4,11.43,5.22,11.22,5.22z" fill="currentColor"/>
        <path d="M11.22,8.33H2.89v0.78h8.33c0.21,0,0.39-0.17,0.39-0.39S11.43,8.33,11.22,8.33z" fill="currentColor"/>
    </symbol>
    <symbol viewBox="0 0 12 12" fill="none" xmlns="http://www.w3.org/2000/svg" id="orderedList">
        <path d="M11.61,2.5c0-0.21-0.17-0.39-0.39-0.39H2.89v0.78h8.33C11.43,2.89,11.61,2.71,11.61,2.5z" fill="currentColor"/>
        <path d="M11.22,5.22H2.89V6h8.33c0.21,0,0.39-0.17,0.39-0.39C11.61,5.4,11.43,5.22,11.22,5.22z" fill="currentColor"/>
        <path d="M11.22,8.33H2.89v0.78h8.33c0.21,0,0.39-0.17,0.39-0.39S11.43,8.33,11.22,8.33z" fill="currentColor"/>
        <path d="M1.87,3.33c0,0.01,0,0.03,0,0.04c0,0.01-0.01,0.02-0.01,0.02c0,0.01-0.01,0.01-0.01,0.01s-0.01,0-0.02,0H1.04
		c-0.01,0-0.01,0-0.02,0c0,0-0.01-0.01-0.01-0.01S1,3.38,1,3.37s0-0.02,0-0.04S1,3.3,1,3.29c0-0.01,0.01-0.02,0.01-0.03
		s0.01-0.01,0.01-0.01c0,0,0.01-0.01,0.02-0.01h0.31V2.1L1.06,2.27C1.05,2.28,1.04,2.28,1.03,2.29c-0.01,0-0.02,0-0.02,0
		C1,2.28,1,2.27,1,2.26s0-0.03,0-0.04c0-0.01,0-0.03,0-0.03C1,2.17,1,2.16,1,2.15S1,2.14,1.01,2.14c0,0,0.01-0.01,0.02-0.01
		L1.37,1.9c0,0,0.01,0,0.01-0.01c0,0,0.01,0,0.02,0c0.01,0,0.02,0,0.02,0s0.02,0,0.04,0c0.02,0,0.03,0,0.05,0
		c0.01,0,0.02,0,0.03,0.01c0.01,0,0.01,0.01,0.01,0.01c0,0,0,0.01,0,0.01v1.33h0.27c0.01,0,0.01,0,0.02,0.01
		c0.01,0,0.01,0.01,0.01,0.01s0.01,0.01,0.01,0.03C1.87,3.3,1.87,3.31,1.87,3.33z" fill="currentColor"/>
        <path d="M2.02,6.55c0,0.01,0,0.03,0,0.04s0,0.02-0.01,0.03C2,6.62,2,6.62,1.99,6.63c-0.01,0-0.01,0-0.02,0H1.14
		c-0.01,0-0.02,0-0.03,0S1.09,6.62,1.09,6.62S1.08,6.6,1.08,6.59c0-0.01,0-0.03,0-0.04c0-0.02,0-0.03,0-0.04
		c0-0.01,0-0.02,0.01-0.03S1.09,6.46,1.1,6.45C1.1,6.44,1.11,6.43,1.12,6.42l0.3-0.31c0.07-0.07,0.13-0.14,0.17-0.19
		s0.07-0.11,0.1-0.16c0.02-0.05,0.04-0.09,0.04-0.13s0.01-0.07,0.01-0.11c0-0.03-0.01-0.06-0.02-0.09S1.7,5.37,1.68,5.35
		C1.66,5.33,1.63,5.31,1.6,5.3C1.56,5.29,1.53,5.28,1.49,5.28c-0.05,0-0.09,0.01-0.13,0.02c-0.04,0.01-0.07,0.03-0.1,0.04
		S1.2,5.37,1.18,5.39C1.16,5.4,1.14,5.4,1.13,5.4c-0.01,0-0.01,0-0.02,0S1.11,5.39,1.11,5.39s0-0.02-0.01-0.03c0-0.01,0-0.03,0-0.04
		c0-0.01,0-0.02,0-0.03s0-0.02,0-0.02c0-0.01,0-0.01,0.01-0.02c0,0,0.01-0.01,0.02-0.02c0.01-0.01,0.03-0.02,0.05-0.03
		C1.2,5.18,1.23,5.16,1.27,5.15s0.07-0.03,0.11-0.03C1.42,5.11,1.47,5.1,1.51,5.1c0.07,0,0.14,0.01,0.19,0.03s0.1,0.05,0.14,0.08
		C1.88,5.25,1.9,5.29,1.92,5.34c0.02,0.05,0.03,0.1,0.03,0.15c0,0.05,0,0.1-0.01,0.14c-0.01,0.05-0.03,0.1-0.05,0.16
		C1.85,5.85,1.81,5.91,1.76,5.98C1.71,6.05,1.64,6.12,1.55,6.21L1.31,6.46h0.66c0.01,0,0.01,0,0.02,0C1.99,6.47,2,6.48,2,6.48
		c0,0.01,0.01,0.02,0.01,0.03S2.02,6.53,2.02,6.55z" fill="currentColor"/>
        <path d="M2,9.2c0,0.07-0.01,0.13-0.04,0.19c-0.02,0.06-0.06,0.1-0.1,0.14S1.76,9.6,1.7,9.62C1.63,9.64,1.56,9.66,1.47,9.66
		c-0.05,0-0.1,0-0.14-0.01C1.29,9.63,1.25,9.62,1.21,9.61C1.18,9.6,1.15,9.59,1.13,9.58C1.11,9.57,1.09,9.56,1.09,9.55
		C1.08,9.55,1.08,9.54,1.07,9.54c0-0.01-0.01-0.01-0.01-0.02c0-0.01,0-0.02,0-0.03c0-0.01,0-0.02,0-0.04c0-0.03,0-0.05,0.01-0.06
		c0.01-0.01,0.01-0.02,0.02-0.02c0.01,0,0.02,0.01,0.04,0.02C1.15,9.4,1.18,9.42,1.21,9.43c0.03,0.01,0.07,0.03,0.12,0.04
		c0.04,0.01,0.09,0.02,0.15,0.02c0.05,0,0.1-0.01,0.14-0.02c0.04-0.01,0.07-0.03,0.1-0.06c0.03-0.02,0.05-0.05,0.06-0.08
		C1.79,9.29,1.8,9.26,1.8,9.22c0-0.04-0.01-0.08-0.03-0.12C1.76,9.07,1.73,9.04,1.7,9.02C1.66,8.99,1.62,8.97,1.57,8.96
		c-0.05-0.01-0.1-0.02-0.17-0.02H1.26c-0.01,0-0.01,0-0.02,0S1.23,8.93,1.23,8.92c0-0.01-0.01-0.01-0.01-0.02c0-0.01,0-0.02,0-0.04
		s0-0.03,0-0.04S1.22,8.8,1.23,8.8c0-0.01,0.01-0.01,0.01-0.01c0.01,0,0.01,0,0.02,0h0.13c0.05,0,0.1-0.01,0.14-0.02
		C1.57,8.75,1.6,8.73,1.63,8.7C1.66,8.68,1.68,8.65,1.7,8.61C1.71,8.58,1.72,8.54,1.72,8.5c0-0.03-0.01-0.06-0.02-0.09
		C1.69,8.38,1.68,8.36,1.66,8.33C1.64,8.31,1.61,8.3,1.58,8.29C1.55,8.27,1.51,8.27,1.47,8.27c-0.04,0-0.09,0.01-0.12,0.02
		s-0.07,0.03-0.1,0.04C1.22,8.35,1.19,8.36,1.17,8.38C1.15,8.39,1.14,8.4,1.13,8.4c-0.01,0-0.01,0-0.01,0S1.11,8.39,1.11,8.38
		c0-0.01,0-0.01-0.01-0.02c0-0.01,0-0.02,0-0.04c0-0.01,0-0.02,0-0.03c0-0.01,0-0.02,0-0.02c0-0.01,0-0.01,0.01-0.02
		c0-0.01,0.01-0.01,0.02-0.02c0.01-0.01,0.02-0.02,0.04-0.03C1.2,8.18,1.23,8.16,1.26,8.15s0.07-0.03,0.11-0.03
		C1.42,8.11,1.46,8.1,1.51,8.1c0.07,0,0.13,0.01,0.18,0.03s0.1,0.04,0.13,0.08c0.04,0.03,0.06,0.07,0.08,0.12
		c0.02,0.04,0.03,0.1,0.03,0.15c0,0.05-0.01,0.09-0.02,0.13C1.9,8.65,1.89,8.68,1.86,8.71C1.84,8.74,1.81,8.77,1.77,8.79
		C1.74,8.82,1.7,8.83,1.65,8.84v0c0.05,0.01,0.1,0.02,0.14,0.04C1.84,8.9,1.87,8.93,1.91,8.96c0.03,0.03,0.06,0.07,0.07,0.11
		C2,9.11,2,9.15,2,9.2z" fill="currentColor"/>
    </symbol>
    <symbol viewBox="0 0 12 12" fill="none" xmlns="http://www.w3.org/2000/svg" id="image">
        <path d="M24,22H0V2h24V22z M3.4,20H22v-2.6l-5-5l-5,5l-3-3L3.4,20z M2,4v14.6l7-7l3,3l5-5l5,5V4H2z" fill="currentColor"/>
        <circle cx="7" cy="8" r="2" fill="currentColor"/>
    </symbol>
    <symbol viewBox="0 0 12 12" fill="none" xmlns="http://www.w3.org/2000/svg" id="customize">
        <g id="layer1" transform="translate(0,-289.0625)">
        <path d="M2.13,289.56l-1.63,1.63l0.61,0.61l0.81-0.81l0.41,0.41l-0.81,0.81l0.81,0.81l0.81-0.81l0.41,0.41
		l-0.81,0.81l0.81,0.81l1.63-1.63L2.13,289.56z M9.62,289.81l-1.54,1.54l1.63,1.63l1.54-1.54c-0.22-0.31-0.46-0.61-0.74-0.89
		C10.23,290.28,9.93,290.03,9.62,289.81z M7.27,292.16l-6.11,6.11l-0.41,2.04l2.04-0.41l6.11-6.11L7.27,292.16z M8.44,295.88
		l-1.63,1.63l0.81,0.81l0.81-0.81l0.41,0.41l-0.81,0.81l0.81,0.81l0.81-0.81l0.41,0.41l-0.81,0.81l0.61,0.61l1.63-1.63L8.44,295.88z" fill="currentColor"/>
        </g>
    </symbol>
    <symbol viewBox="0 0 12 12" fill="none" xmlns="http://www.w3.org/2000/svg" id="valigntop">
        <path stroke="currentColor" d="M21 2L3 2" stroke-width="2" stroke-miterlimit="5.75877" stroke-linecap="round"/>
        <path stroke="currentColor" d="M6 22L6 6L10 6L10 22H6Z" stroke-width="2" stroke-miterlimit="5.75877" stroke-linecap="round" stroke-linejoin="round"/>
        <path stroke="currentColor" d="M14 16L14 6L18 6L18 16H14Z" stroke-width="2" stroke-miterlimit="5.75877" stroke-linecap="round" stroke-linejoin="round"/>
    </symbol>
    <symbol viewBox="0 0 12 12" fill="none" xmlns="http://www.w3.org/2000/svg" id="valignbottom">
        <path stroke="currentColor" d="M21 22L3 22" stroke-width="2" stroke-miterlimit="5.75877" stroke-linecap="round"/>
        <path stroke="currentColor" d="M6 18L6 2L10 2L10 18H6Z" stroke-width="2" stroke-miterlimit="5.75877" stroke-linecap="round"/>
        <path stroke="currentColor" d="M14 18L14 8L18 8L18 18H14Z" stroke-width="2" stroke-miterlimit="5.75877" stroke-linecap="round"/>
    </symbol>
    <symbol viewBox="0 0 12 12" fill="none" xmlns="http://www.w3.org/2000/svg" id="valigntop">
        <path stroke="currentColor" d="M21 22L3 22" stroke-width="2" stroke-miterlimit="5.75877" stroke-linecap="round"/>
        <path stroke="currentColor" d="M21 22L3 22" stroke-width="2" stroke-miterlimit="5.75877" stroke-linecap="round"/>
        <path stroke="currentColor" d="M21 22L3 22" stroke-width="2" stroke-miterlimit="5.75877" stroke-linecap="round"/>
        <path stroke="currentColor" d="M21 22L3 22" stroke-width="2" stroke-miterlimit="5.75877" stroke-linecap="round"/>
        <path stroke="currentColor" d="M21 22L3 22" stroke-width="2" stroke-miterlimit="5.75877" stroke-linecap="round"/>
    </symbol>
    <symbol viewBox="0 0 32 32" fill="none" xmlns="http://www.w3.org/2000/svg" id="documentation">
        <path fill="currentColor" d="M25 29h-16v-22h7v9.125l3.541-2.688 3.459 2.688v-9.125h4v20c0 1.104-0.896 2-2 2zM19.541 12.125l-2.541 2v-8.125h5v8.125l-2.459-2zM6 5v1c0 0.552 0.448 1 1 1h1v22h-1c-1.104 0-2-0.896-2-2v-22c0-1.104 0.896-2 2-2h18c0.738 0 1.376 0.404 1.723 1h-19.723c-0.552 0-1 0.447-1 1z"></path>
    </symbol>
    <symbol viewBox="0 0 24 24" fill="none" xmlns="http://www.w3.org/2000/svg" id="medias">
        <path fill="currentColor" d="M20,3H4A2,2,0,0,0,2,5V16.76l4.88-4.88A3,3,0,0,1,11,11.76l.87-.88A3,3,0,0,1,14,10a3,3,0,0,1,2.12.88L22,16.76V5A2,2,0,0,0,20,3ZM11,9a2,2,0,1,1,2-2A2,2,0,0,1,11,9ZM21.93,19.51a2,2,0,0,1-1.42,1.42A1.7,1.7,0,0,1,20,21H4a1.7,1.7,0,0,1-.51-.07,2,2,0,0,1-1.42-1.42L4,17.58l4.29-4.29a1,1,0,0,1,1.42,0L11,14.59l2.29-2.3a1,1,0,0,1,1.42,0L20,17.58Z"></path>
    </symbol>
    <symbol viewBox="0 0 58 58" fill="none" xmlns="http://www.w3.org/2000/svg" id="jpg">
        <g>
            <path fill="currentColor" d="M50.95,12.187L39.313,0.55C38.964,0.201,38.48,0,37.985,0H8.963C7.777,0,6.5,0.916,6.5,2.926V39h0.633l16.736-14.245
                c0.397-0.337,0.986-0.314,1.355,0.055l4.743,4.743l9.795-10.727c0.181-0.198,0.434-0.315,0.703-0.325
                c0.282-0.009,0.53,0.09,0.725,0.274l10,9.5l0.311,0.297V13.978C51.5,13.212,51.408,12.645,50.95,12.187z M16.5,23.638
                c-3.071,0-5.569-2.498-5.569-5.569S13.429,12.5,16.5,12.5s5.569,2.498,5.569,5.569S19.571,23.638,16.5,23.638z M48.109,14H37.5
                V3.391c0-0.458,0.553-0.687,0.877-0.363l10.095,10.095C48.796,13.447,48.567,14,48.109,14z"/>
            <path fill="currentColor" d="M31.383,30.969l4.807,4.807c0.391,0.391,0.391,1.023,0,1.414s-1.023,0.391-1.414,0L24.462,26.876L10.218,39H51.5v-7.636
                L40.551,20.928L31.383,30.969z"/>
            <path fill="currentColor" d="M16.5,14.5c-1.968,0-3.569,1.601-3.569,3.569s1.601,3.569,3.569,3.569s3.569-1.601,3.569-3.569S18.468,14.5,16.5,14.5z"/>
            <g>
                <path fill="currentColor" d="M26.946,45.858c-0.142-0.196-0.34-0.36-0.595-0.492c-0.255-0.132-0.593-0.198-1.012-0.198h-1.23v3.992h1.504
                    c0.2,0,0.398-0.034,0.595-0.103c0.196-0.068,0.376-0.18,0.54-0.335s0.296-0.371,0.396-0.649c0.1-0.278,0.15-0.622,0.15-1.032
                    c0-0.164-0.023-0.354-0.068-0.567C27.181,46.26,27.087,46.055,26.946,45.858z"/>
                <path fill="currentColor" d="M8.5,41H7.85H6.5v1.08V43v13c0,1.009,1.22,2,2.463,2h40.074c1.243,0,2.463-0.991,2.463-2V41H8.5z M20.021,51.566
                    c0,0.474-0.087,0.873-0.26,1.196c-0.173,0.323-0.406,0.583-0.697,0.779c-0.292,0.196-0.627,0.333-1.005,0.41
                    c-0.378,0.077-0.768,0.116-1.169,0.116c-0.201,0-0.436-0.021-0.704-0.062c-0.269-0.041-0.547-0.104-0.834-0.191
                    s-0.563-0.185-0.827-0.294c-0.265-0.109-0.488-0.232-0.67-0.369l0.697-1.107c0.091,0.063,0.221,0.13,0.39,0.198
                    c0.168,0.068,0.353,0.132,0.554,0.191c0.2,0.06,0.41,0.111,0.629,0.157s0.424,0.068,0.615,0.068c0.483,0,0.868-0.094,1.155-0.28
                    s0.439-0.504,0.458-0.95v-7.711h1.668V51.566z M28.621,48.429c-0.173,0.415-0.415,0.764-0.725,1.046
                    c-0.31,0.282-0.684,0.501-1.121,0.656s-0.921,0.232-1.449,0.232h-1.217V54h-1.641V43.924h2.898c0.428,0,0.852,0.068,1.271,0.205
                    c0.419,0.137,0.795,0.342,1.128,0.615c0.333,0.273,0.602,0.604,0.807,0.991s0.308,0.822,0.308,1.306
                    C28.881,47.552,28.794,48.014,28.621,48.429z M38.096,52.701c-0.21,0.265-0.444,0.48-0.704,0.649s-0.533,0.308-0.82,0.417
                    S35.988,53.954,35.683,54c-0.306,0.046-0.608,0.068-0.909,0.068c-0.602,0-1.155-0.109-1.661-0.328s-0.948-0.542-1.326-0.971
                    c-0.378-0.429-0.675-0.966-0.889-1.613c-0.214-0.647-0.321-1.395-0.321-2.242s0.107-1.593,0.321-2.235
                    c0.214-0.643,0.51-1.178,0.889-1.606c0.378-0.429,0.822-0.754,1.333-0.978c0.51-0.224,1.062-0.335,1.654-0.335
                    c0.547,0,1.057,0.091,1.531,0.273c0.474,0.183,0.897,0.456,1.271,0.82l-1.135,1.012c-0.219-0.265-0.47-0.456-0.752-0.574
                    c-0.283-0.118-0.574-0.178-0.875-0.178c-0.337,0-0.659,0.063-0.964,0.191c-0.306,0.128-0.579,0.344-0.82,0.649
                    c-0.242,0.306-0.431,0.699-0.567,1.183s-0.21,1.075-0.219,1.777c0.009,0.684,0.08,1.276,0.212,1.777
                    c0.132,0.501,0.314,0.911,0.547,1.23s0.497,0.556,0.793,0.711c0.296,0.155,0.608,0.232,0.937,0.232c0.1,0,0.234-0.007,0.403-0.021
                    c0.168-0.014,0.337-0.036,0.506-0.068c0.168-0.032,0.33-0.075,0.485-0.13c0.155-0.055,0.269-0.132,0.342-0.232v-2.488H34.76
                    v-1.121h3.336V52.701z"/>
            </g>
        </g>
    </symbol>
    <symbol viewBox="0 0 58 58" fill="none" xmlns="http://www.w3.org/2000/svg" id="png">
        <g>
            <path fill="currentColor" d="M50.95,12.187L39.313,0.55C38.964,0.201,38.48,0,37.985,0H8.963C7.777,0,6.5,0.916,6.5,2.926V39h0.633l16.736-14.245
                c0.397-0.337,0.986-0.314,1.355,0.055l4.743,4.743l9.795-10.727c0.181-0.198,0.434-0.315,0.703-0.325
                c0.282-0.009,0.53,0.09,0.725,0.274l10,9.5l0.311,0.297V13.978C51.5,13.212,51.408,12.645,50.95,12.187z M16.5,23.638
                c-3.071,0-5.569-2.498-5.569-5.569S13.429,12.5,16.5,12.5s5.569,2.498,5.569,5.569S19.571,23.638,16.5,23.638z M48.109,14H37.5
                V3.391c0-0.458,0.553-0.687,0.877-0.363l10.095,10.095C48.796,13.447,48.567,14,48.109,14z"/>
            <path fill="currentColor" d="M31.383,30.969l4.807,4.807c0.391,0.391,0.391,1.023,0,1.414s-1.023,0.391-1.414,0L24.462,26.876L10.218,39H51.5v-7.636
                L40.551,20.928L31.383,30.969z"/>
            <path fill="currentColor" d="M20.823,49.058c0.196-0.068,0.376-0.18,0.54-0.335s0.296-0.371,0.396-0.649c0.1-0.278,0.15-0.622,0.15-1.032
                c0-0.164-0.023-0.354-0.068-0.567c-0.046-0.214-0.139-0.419-0.28-0.615c-0.142-0.196-0.34-0.36-0.595-0.492
                c-0.255-0.132-0.593-0.198-1.012-0.198h-1.23v3.992h1.504C20.429,49.16,20.627,49.126,20.823,49.058z"/>
            <path fill="currentColor" d="M16.5,14.5c-1.968,0-3.569,1.601-3.569,3.569s1.601,3.569,3.569,3.569s3.569-1.601,3.569-3.569S18.468,14.5,16.5,14.5z"/>
            <path fill="currentColor" d="M7.85,41H6.5v1.08V43v13c0,1.009,1.22,2,2.463,2h40.074c1.243,0,2.463-0.991,2.463-2V41h-43H7.85z M35.302,46.679
                c0.214-0.643,0.51-1.178,0.889-1.606c0.378-0.429,0.822-0.754,1.333-0.978c0.51-0.224,1.062-0.335,1.654-0.335
                c0.547,0,1.057,0.091,1.531,0.273c0.474,0.183,0.897,0.456,1.271,0.82l-1.135,1.012c-0.219-0.265-0.47-0.456-0.752-0.574
                c-0.283-0.118-0.574-0.178-0.875-0.178c-0.337,0-0.659,0.063-0.964,0.191c-0.306,0.128-0.579,0.344-0.82,0.649
                c-0.242,0.306-0.431,0.699-0.567,1.183s-0.21,1.075-0.219,1.777c0.009,0.684,0.08,1.276,0.212,1.777
                c0.132,0.501,0.314,0.911,0.547,1.23s0.497,0.556,0.793,0.711c0.296,0.155,0.608,0.232,0.937,0.232c0.1,0,0.234-0.007,0.403-0.021
                c0.168-0.014,0.337-0.036,0.506-0.068c0.168-0.032,0.33-0.075,0.485-0.13c0.155-0.055,0.269-0.132,0.342-0.232v-2.488h-1.709
                v-1.121H42.5v3.896c-0.21,0.265-0.444,0.48-0.704,0.649s-0.533,0.308-0.82,0.417S40.392,53.954,40.087,54
                c-0.306,0.046-0.608,0.068-0.909,0.068c-0.602,0-1.155-0.109-1.661-0.328s-0.948-0.542-1.326-0.971
                c-0.378-0.429-0.675-0.966-0.889-1.613c-0.214-0.647-0.321-1.395-0.321-2.242S35.087,47.321,35.302,46.679z M25.369,43.924h1.668
                l3.951,6.945v-6.945h1.668V54h-1.668l-3.951-6.945V54h-1.668V43.924z M17.084,43.924h2.898c0.428,0,0.852,0.068,1.271,0.205
                c0.419,0.137,0.795,0.342,1.128,0.615c0.333,0.273,0.602,0.604,0.807,0.991s0.308,0.822,0.308,1.306
                c0,0.511-0.087,0.973-0.26,1.388c-0.173,0.415-0.415,0.764-0.725,1.046c-0.31,0.282-0.684,0.501-1.121,0.656
                s-0.921,0.232-1.449,0.232h-1.217V54h-1.641V43.924z"/>
        </g>
    </symbol>
    <symbol viewBox="0 0 58 58" fill="none" xmlns="http://www.w3.org/2000/svg" id="pdf">
        <g>
            <path fill="currentColor" d="M39.57,25.259c0.149-0.209,0.207-0.343,0.23-0.415c-0.123-0.065-0.286-0.197-1.175-0.197c-0.505,0-1.139,0.022-1.811,0.108
                c0.815,0.627,1.014,0.944,1.547,0.944C38.594,25.7,39.262,25.69,39.57,25.259z"/>
            <path fill="currentColor" d="M20.536,32.634c0.149-0.047,1.019-0.444,2.64-3.436c-2.138,1.201-3.008,2.188-3.07,2.744
                C20.095,32.034,20.068,32.276,20.536,32.634z"/>
            <path fill="currentColor" d="M51.5,39V13.978c0-0.766-0.092-1.333-0.55-1.792L39.313,0.55C38.964,0.201,38.48,0,37.985,0H8.963
                C7.777,0,6.5,0.916,6.5,2.926V39H51.5z M37.5,3.391c0-0.458,0.553-0.687,0.877-0.363l10.095,10.095
                C48.796,13.447,48.567,14,48.109,14H37.5V3.391z M18.432,31.755c0.182-1.628,2.195-3.332,5.985-5.068
                c1.504-3.296,2.935-7.357,3.788-10.75c-0.998-2.172-1.968-4.99-1.261-6.643c0.248-0.579,0.557-1.023,1.134-1.215
                c0.228-0.076,0.804-0.172,1.016-0.172c0.504,0,0.947,0.649,1.261,1.049c0.295,0.376,0.964,1.173-0.373,6.802
                c1.348,2.784,3.258,5.62,5.088,7.562c1.311-0.237,2.439-0.358,3.358-0.358c1.566,0,2.515,0.365,2.902,1.117
                c0.32,0.622,0.189,1.349-0.39,2.16c-0.557,0.779-1.325,1.191-2.22,1.191c-1.216,0-2.632-0.768-4.211-2.285
                c-2.837,0.593-6.151,1.651-8.828,2.822c-0.836,1.774-1.637,3.203-2.383,4.251c-1.023,1.438-1.907,2.107-2.782,2.107h0
                c-0.348,0-0.682-0.113-0.967-0.326C18.506,33.216,18.366,32.347,18.432,31.755z"/>
            <path fill="currentColor" d="M21.222,45.858c-0.142-0.196-0.34-0.36-0.595-0.492c-0.255-0.132-0.593-0.198-1.012-0.198h-1.23v3.992h1.504
                c0.2,0,0.398-0.034,0.595-0.103c0.196-0.068,0.376-0.18,0.54-0.335c0.164-0.155,0.296-0.371,0.396-0.649
                c0.1-0.278,0.15-0.622,0.15-1.032c0-0.164-0.023-0.354-0.068-0.567C21.456,46.26,21.363,46.055,21.222,45.858z"/>
            <path fill="currentColor" d="M29.343,18.174c-0.716,2.474-1.659,5.145-2.674,7.564c2.09-0.811,4.362-1.519,6.496-2.02
                C31.815,22.15,30.466,20.192,29.343,18.174z"/>
            <path fill="currentColor" d="M6.5,41v15c0,1.009,1.22,2,2.463,2h40.074c1.243,0,2.463-0.991,2.463-2V41H6.5z M22.896,48.429
                c-0.173,0.415-0.415,0.764-0.725,1.046c-0.31,0.282-0.684,0.501-1.121,0.656s-0.921,0.232-1.449,0.232h-1.217V54h-1.641V43.924
                h2.898c0.428,0,0.852,0.068,1.271,0.205c0.419,0.137,0.795,0.342,1.128,0.615c0.333,0.273,0.602,0.604,0.807,0.991
                s0.308,0.822,0.308,1.306C23.156,47.552,23.069,48.014,22.896,48.429z M32.952,50.808c-0.178,0.588-0.403,1.08-0.677,1.477
                s-0.581,0.709-0.923,0.937s-0.672,0.398-0.991,0.513c-0.319,0.114-0.611,0.187-0.875,0.219C29.222,53.984,29.026,54,28.898,54
                h-3.814V43.924h3.035c0.848,0,1.593,0.135,2.235,0.403s1.176,0.627,1.6,1.073s0.74,0.955,0.95,1.524
                c0.209,0.569,0.314,1.155,0.314,1.757C33.219,49.511,33.13,50.22,32.952,50.808z M41.9,45.168h-4.635v3.172h4.211v1.121h-4.211V54
                h-1.668V43.924H41.9V45.168z"/>
            <path fill="currentColor" d="M30.765,46.282c-0.287-0.333-0.677-0.602-1.169-0.807s-1.13-0.308-1.914-0.308h-0.957v7.629h1.627
                c1.112,0,1.914-0.355,2.406-1.066s0.738-1.741,0.738-3.09c0-0.419-0.05-0.834-0.15-1.244
                C31.245,46.986,31.052,46.615,30.765,46.282z"/>
            <path fill="currentColor" d="M28.736,9.712c-0.098,0.033-1.33,1.757,0.096,3.216C29.781,10.813,28.779,9.698,28.736,9.712z"/>
        </g>
    </symbol>
    <symbol viewBox="0 0 24 24" fill="none" xmlns="http://www.w3.org/2000/svg" id="valid">
        <g>
            <g>
                <path fill="var(--green)" fill-rule="evenodd" clip-rule="evenodd" d="M12 1.25C6.06294 1.25 1.25 6.06294 1.25 12C1.25 17.9371 6.06294 22.75 12 22.75C17.9371 22.75 22.75 17.9371 22.75 12C22.75 6.06294 17.9371 1.25 12 1.25ZM16.5303 10.0303C16.8232 9.73744 16.8232 9.26256 16.5303 8.96967C16.2374 8.67678 15.7626 8.67678 15.4697 8.96967L10.8434 13.5959C10.7458 13.6935 10.5875 13.6935 10.4899 13.5959L8.53033 11.6363C8.23744 11.3434 7.76256 11.3434 7.46967 11.6363C7.17678 11.9292 7.17678 12.4041 7.46967 12.697L9.42923 14.6566C10.1126 15.34 11.2207 15.34 11.9041 14.6566L16.5303 10.0303Z"/>
            </g>
        </g>
    </symbol>
    <symbol viewBox="0 0 24 24" fill="none" xmlns="http://www.w3.org/2000/svg" id="invalid">
        <g>
            <g>
                <path fill="var(--red)" fill-rule="evenodd" clip-rule="evenodd" d="M1.25 12C1.25 6.06294 6.06294 1.25 12 1.25C17.9371 1.25 22.75 6.06294 22.75 12C22.75 17.9371 17.9371 22.75 12 22.75C6.06294 22.75 1.25 17.9371 1.25 12ZM8.46967 8.46967C8.76257 8.17678 9.23744 8.17678 9.53033 8.46967L12 10.9393L14.4697 8.46967C14.7626 8.17678 15.2374 8.17678 15.5303 8.46967C15.8232 8.76257 15.8232 9.23744 15.5303 9.53033L13.0606 12L15.5303 14.4697C15.8232 14.7626 15.8232 15.2374 15.5303 15.5303C15.2374 15.8232 14.7625 15.8232 14.4696 15.5303L12 13.0607L9.53033 15.5303C9.23743 15.8232 8.76256 15.8232 8.46967 15.5303C8.17678 15.2374 8.17678 14.7625 8.46967 14.4696L10.9393 12L8.46967 9.53033C8.17678 9.23743 8.17678 8.76256 8.46967 8.46967Z"/>
            </g>
        </g>
    </symbol>
    <symbol viewBox="0 0 24 24" fill="none" xmlns="http://www.w3.org/2000/svg" id="seo">
        <path fill="currentColor" d="M21,4V7H3V4A1,1,0,0,1,4,3H20A1,1,0,0,1,21,4ZM3,9H21V20a1,1,0,0,1-1,1H4a.974.974,0,0,1-.46-.126l3.587-3.587,2.318,1.545a1,1,0,0,0,1.262-.125l2-2a1,1,0,0,0-1.414-1.414l-1.42,1.42L7.555,15.168a1,1,0,0,0-1.262.125L3,18.586Zm11.293,4.707a1,1,0,0,0,1.414,0l1-1a1,1,0,0,0-1.414-1.414l-1,1A1,1,0,0,0,14.293,13.707Z"/>
    </symbol>
    <symbol viewBox="0 0 512 512" fill="none" xmlns="http://www.w3.org/2000/svg" id="faq">
        <g>
            <path fill="currentColor" d="M256,0C114.616,0,0,114.612,0,256s114.616,256,256,256s256-114.612,256-256S397.385,0,256,0z M207.678,378.794
                c0-17.612,14.281-31.893,31.893-31.893c17.599,0,31.88,14.281,31.88,31.893c0,17.595-14.281,31.884-31.88,31.884
                C221.959,410.678,207.678,396.389,207.678,378.794z M343.625,218.852c-3.596,9.793-8.802,18.289-14.695,25.356
                c-11.847,14.148-25.888,22.718-37.442,29.041c-7.719,4.174-14.533,7.389-18.769,9.769c-2.905,1.604-4.479,2.95-5.256,3.826
                c-0.768,0.926-1.029,1.306-1.496,2.826c-0.273,1.009-0.558,2.612-0.558,5.091c0,6.868,0,12.512,0,12.512
                c0,6.472-5.248,11.728-11.723,11.728h-28.252c-6.475,0-11.732-5.256-11.732-11.728c0,0,0-5.645,0-12.512
                c0-6.438,0.752-12.744,2.405-18.777c1.636-6.008,4.215-11.718,7.508-16.694c6.599-10.083,15.542-16.802,23.984-21.48
                c7.401-4.074,14.723-7.455,21.516-11.281c6.789-3.793,12.843-7.91,17.302-12.372c2.988-2.975,5.31-6.05,7.087-9.52
                c2.335-4.628,3.955-10.067,3.992-18.389c0.012-2.463-0.698-5.702-2.632-9.405c-1.926-3.686-5.066-7.694-9.264-11.29
                c-8.45-7.248-20.843-12.545-35.054-12.521c-16.285,0.058-27.186,3.876-35.587,8.62c-8.36,4.776-11.029,9.595-11.029,9.595
                c-4.268,3.718-10.603,3.85-15.025,0.314l-21.71-17.397c-2.719-2.173-4.322-5.438-4.396-8.926c-0.063-3.479,1.425-6.81,4.061-9.099
                c0,0,6.765-10.43,22.451-19.38c15.62-8.992,36.322-15.488,61.236-15.429c20.215,0,38.839,5.562,54.268,14.661
                c15.434,9.148,27.897,21.744,35.851,36.876c5.281,10.074,8.525,21.43,8.533,33.38C349.211,198.042,347.248,209.058,343.625,218.852
                z"/>
        </g>
    </symbol>
    <symbol viewBox="0 0 24 24" fill="none" xmlns="http://www.w3.org/2000/svg" id="content">
        <path fill="currentColor" fill-rule="evenodd" d="M11,9 L9,9 L9,10 L7,10 L7,7 L17,7 L17,10 L15,10 L15,9 L13,9 L13,15 L14,15 L14,17 L10,17 L10,15 L11,15 L11,9 Z M4,2 L20,2 C21.1045695,2 22,2.8954305 22,4 L22,20 C22,21.1045695 21.1045695,22 20,22 L4,22 C2.8954305,22 2,21.1045695 2,20 L2,4 C2,2.8954305 2.8954305,2 4,2 Z M4,4 L4,20 L20,20 L20,4 L4,4 Z"/>
    </symbol>
    <symbol viewBox="0 0 24 24" fill="none" xmlns="http://www.w3.org/2000/svg" id="tag">
        <path fill="currentColor" fill-rule="evenodd" clip-rule="evenodd" d="M1.94971 4.44987C1.94969 3.06915 3.06898 1.94985 4.4497 1.94984L12.0209 1.94983C12.8165 1.94983 13.5796 2.2659 14.1422 2.82851L22.0417 10.728C23.6038 12.2901 23.6038 14.8228 22.0417 16.3849L16.3848 22.0417C14.8227 23.6038 12.2901 23.6038 10.728 22.0417L2.82846 14.1422C2.26586 13.5796 1.94979 12.8166 1.94978 12.0209L1.94971 4.44987ZM8.5 10C9.32843 10 10 9.32843 10 8.5C10 7.67157 9.32843 7 8.5 7C7.67157 7 7 7.67157 7 8.5C7 9.32843 7.67157 10 8.5 10Z"/>
    </symbol>
    <symbol viewBox="0 0 24 24" fill="none" xmlns="http://www.w3.org/2000/svg" id="user">
        <path fill="currentColor" d="M12 1C8.96243 1 6.5 3.46243 6.5 6.5C6.5 9.53757 8.96243 12 12 12C15.0376 12 17.5 9.53757 17.5 6.5C17.5 3.46243 15.0376 1 12 1Z"/>
        <path fill="currentColor" d="M7 14C4.23858 14 2 16.2386 2 19V22C2 22.5523 2.44772 23 3 23H21C21.5523 23 22 22.5523 22 22V19C22 16.2386 19.7614 14 17 14H7Z"/>
    </symbol>
    <symbol viewBox="0 -2 28 28" fill="none" xmlns="http://www.w3.org/2000/svg" id="nav">
        <path fill="currentColor" d="m5.216 11.998c0 1.44-1.168 2.608-2.608 2.608s-2.608-1.168-2.608-2.608 1.168-2.608 2.608-2.608 2.608 1.168 2.608 2.608z"/>
        <path fill="currentColor" d="m5.216 2.608c0 1.44-1.168 2.608-2.608 2.608s-2.608-1.168-2.608-2.608 1.168-2.608 2.608-2.608 2.608 1.168 2.608 2.608z"/>
        <path fill="currentColor" d="m5.216 21.389c0 1.44-1.168 2.608-2.608 2.608s-2.608-1.168-2.608-2.608 1.168-2.608 2.608-2.608 2.608 1.168 2.608 2.608z"/>
        <path fill="currentColor" d="m9.794 0h15.247c1.441 0 2.61 1.168 2.61 2.61s-1.168 2.61-2.61 2.61h-15.247c-1.441 0-2.61-1.168-2.61-2.61s1.168-2.61 2.61-2.61z"/>
        <path fill="currentColor" d="m9.794 9.39h15.247c1.441 0 2.61 1.168 2.61 2.61s-1.168 2.61-2.61 2.61h-15.247c-1.441 0-2.61-1.168-2.61-2.61s1.168-2.61 2.61-2.61z"/>
        <path fill="currentColor" d="m9.794 18.781h15.247c1.441 0 2.61 1.168 2.61 2.61s-1.168 2.61-2.61 2.61h-15.247c-1.441 0-2.61-1.168-2.61-2.61s1.168-2.61 2.61-2.61z"/>
    </symbol>
    <symbol viewBox="0 0 392.619 392.619" fill="none" xmlns="http://www.w3.org/2000/svg" id="button">
        <g>
            <path fill="currentColor" d="M310.723,0.929H81.896C36.738,0.929,0,37.667,0,82.825v226.969c0,45.158,36.738,81.896,81.896,81.896h228.827
                c45.158,0,81.896-36.738,81.896-81.896V82.825C392.619,37.667,355.881,0.929,310.723,0.929z M362.619,309.794
                c0,28.616-23.28,51.896-51.896,51.896H81.896C53.28,361.69,30,338.41,30,309.794V82.825c0-28.615,23.28-51.896,51.896-51.896
                h228.827c28.616,0,51.896,23.28,51.896,51.896V309.794z"/>
            <path fill="currentColor" d="M211.056,105.476h-81.993v35h10.334v111.667h-10.334v35h81.993c29.868,0,54.167-24.299,54.167-54.167
                c0-14.132-5.445-27.012-14.341-36.667c8.896-9.655,14.341-22.535,14.341-36.667C265.223,129.775,240.924,105.476,211.056,105.476z
                M211.056,140.476c10.568,0,19.167,8.598,19.167,19.167c0,10.568-8.599,19.167-19.167,19.167h-36.659v-38.333H211.056z
                M211.056,252.143h-36.659V213.81h36.659c10.568,0,19.167,8.598,19.167,19.167C230.223,243.545,221.624,252.143,211.056,252.143z"
                />
        </g>
    </symbol>
    <symbol viewBox="0 -6 16 16" fill="none" xmlns="http://www.w3.org/2000/svg" id="minus">
        <path fill="currentColor" fill-rule="evenodd" clip-rule="evenodd" d="M2 3.5H14C14.8284 3.5 15.5 2.8284 15.5 2C15.5 1.1716 14.8284 0.5 14 0.5H2C1.17157 0.5 0.5 1.1716 0.5 2C0.5 2.8284 1.17157 3.5 2 3.5z"/>
    </symbol>
    <symbol viewBox="0 0 27.333 27.332" fill="none" xmlns="http://www.w3.org/2000/svg" id="galery">
        <g>
            <path fill="currentColor" d="M25.833,0H1.5C0.672,0,0,0.671,0,1.5v24.332c0,0.828,0.672,1.5,1.5,1.5h24.333c0.828,0,1.5-0.672,1.5-1.5V1.5
                C27.333,0.672,26.661,0,25.833,0z M24.333,3v10.498l-4.998-4.999l-7,6.667l-5-3.334l-4.334,2.973V3H24.333z M5.084,7.832
                c0-1.427,1.156-2.583,2.582-2.583c1.428,0,2.584,1.156,2.584,2.583s-1.156,2.583-2.584,2.583C6.241,10.415,5.084,9.259,5.084,7.832
                z"/>
        </g>
    </symbol>
    <symbol viewBox="0 0 24 24" fill="none" xmlns="http://www.w3.org/2000/svg" id="zoom-in">
        <path fill="currentColor" fill-rule="evenodd" clip-rule="evenodd" d="M4 11C4 7.13401 7.13401 4 11 4C14.866 4 18 7.13401 18 11C18 14.866 14.866 18 11 18C7.13401 18 4 14.866 4 11ZM11 2C6.02944 2 2 6.02944 2 11C2 15.9706 6.02944 20 11 20C13.125 20 15.078 19.2635 16.6177 18.0319L20.2929 21.7071C20.6834 22.0976 21.3166 22.0976 21.7071 21.7071C22.0976 21.3166 22.0976 20.6834 21.7071 20.2929L18.0319 16.6177C19.2635 15.078 20 13.125 20 11C20 6.02944 15.9706 2 11 2Z"/>
        <path fill="currentColor" fill-rule="evenodd" clip-rule="evenodd" d="M10 14C10 14.5523 10.4477 15 11 15C11.5523 15 12 14.5523 12 14V12H14C14.5523 12 15 11.5523 15 11C15 10.4477 14.5523 10 14 10H12V8C12 7.44772 11.5523 7 11 7C10.4477 7 10 7.44772 10 8V10H8C7.44772 10 7 10.4477 7 11C7 11.5523 7.44772 12 8 12H10V14Z"/>
    </symbol>
    <symbol viewBox="0 0 24 24" fill="none" xmlns="http://www.w3.org/2000/svg" id="zoom-out">
        <g stroke-width="0"/>
        <g stroke-linecap="round" stroke-linejoin="round"/>
        <g>
            <path fill="currentColor" fill-rule="evenodd" clip-rule="evenodd" d="M4 11C4 7.13401 7.13401 4 11 4C14.866 4 18 7.13401 18 11C18 14.866 14.866 18 11 18C7.13401 18 4 14.866 4 11ZM11 2C6.02944 2 2 6.02944 2 11C2 15.9706 6.02944 20 11 20C13.125 20 15.078 19.2635 16.6177 18.0319L20.2929 21.7071C20.6834 22.0976 21.3166 22.0976 21.7071 21.7071C22.0976 21.3166 22.0976 20.6834 21.7071 20.2929L18.0319 16.6177C19.2635 15.078 20 13.125 20 11C20 6.02944 15.9706 2 11 2Z"/>
            <path fill="currentColor" fill-rule="evenodd" clip-rule="evenodd" d="M7 11C7 10.4477 7.44772 10 8 10H14C14.5523 10 15 10.4477 15 11C15 11.5523 14.5523 12 14 12H8C7.44772 12 7 11.5523 7 11Z"/>
        </g>
    </symbol>
    <symbol viewBox="0 0 48 48" fill="none" xmlns="http://www.w3.org/2000/svg" id="menu">
        <g>
            <g>
            <rect width="48" height="48" fill="none"/>
            </g>
            <g>
            <g>
                <path fill="currentColor" d="M42,12a2,2,0,0,1-2,2H8a2,2,0,0,1-2-2H6a2,2,0,0,1,2-2H40a2,2,0,0,1,2,2Z"/>
                <path fill="currentColor" d="M42,24a2,2,0,0,1-2,2H8a2,2,0,0,1-2-2H6a2,2,0,0,1,2-2H40a2,2,0,0,1,2,2Z"/>
                <path fill="currentColor" d="M42,36a2,2,0,0,1-2,2H8a2,2,0,0,1-2-2H6a2,2,0,0,1,2-2H40a2,2,0,0,1,2,2Z"/>
            </g>
            </g>
        </g>
    </symbol>
    <symbol viewBox="0 0 24 24" fill="none" xmlns="http://www.w3.org/2000/svg" id="upload">
        <g clip-path="url(#clip0_429_11157)">
            <path d="M7 12L12 17M12 17L17 12M12 17L12 4" stroke="currentColor" stroke-width="2.5" stroke-linecap="round" stroke-linejoin="round"/>
            <path d="M6 20H18" stroke="currentColor" stroke-width="2.5" stroke-linecap="round" stroke-linejoin="round"/>
        </g>
        <defs>
            <clipPath id="clip0_429_11157">
                <rect width="24" height="24" fill="white"/>
            </clipPath>
        </defs>
    </symbol>
    <symbol viewBox="0 0 24 24" fill="none" xmlns="http://www.w3.org/2000/svg" id="carousel">
        <path fill="currentColor" d="M4 19h2c0 1.103.897 2 2 2h8c1.103 0 2-.897 2-2h2c1.103 0 2-.897 2-2V7c0-1.103-.897-2-2-2h-2c0-1.103-.897-2-2-2H8c-1.103 0-2 .897-2 2H4c-1.103 0-2 .897-2 2v10c0 1.103.897 2 2 2zM20 7v10h-2V7h2zM8 5h8l.001 14H8V5zM4 7h2v10H4V7z"/>
    </symbol>
    <symbol viewBox="0 0 12 12" fill="none" xmlns="http://www.w3.org/2000/svg" id="info">
        <path d="M12,6c0,3.3-2.7,6-6,6c-3.3,0-6-2.7-6-6c0-3.3,2.7-6,6-6C9.3,0,12,2.7,12,6z M6,9.4c0.2,0,0.4-0.2,0.4-0.4V5.4
	c0-0.2-0.2-0.5-0.4-0.5S5.6,5.2,5.6,5.4V9C5.6,9.2,5.8,9.4,6,9.4z M6,3c0.3,0,0.6,0.3,0.6,0.6c0,0.3-0.3,0.6-0.6,0.6
	S5.4,3.9,5.4,3.6C5.4,3.3,5.7,3,6,3z" fill="currentColor" fill-rule="evenodd" clip-rule="evenodd"/>
    </symbol>
    <symbol viewBox="0 0 12 12" fill="none" xmlns="http://www.w3.org/2000/svg" id="sort">
        <path d="M8.7,1.2c0.1,0,0.3,0.1,0.4,0.2l2.7,2.8c0.2,0.2,0.2,0.5,0,0.7c-0.2,0.2-0.5,0.2-0.7,0L9.3,2.9v7
	c0,0.3-0.2,0.5-0.5,0.5s-0.5-0.2-0.5-0.5v-7L6.4,4.9c-0.2,0.2-0.5,0.2-0.7,0c-0.2-0.2-0.2-0.5,0-0.7l2.7-2.8
	C8.5,1.2,8.6,1.2,8.7,1.2z M3.3,1.2c0.3,0,0.5,0.2,0.5,0.5v7l1.9-1.9c0.2-0.2,0.5-0.2,0.7,0c0.2,0.2,0.2,0.5,0,0.7l-2.7,2.8
	c-0.1,0.1-0.2,0.2-0.4,0.2c-0.1,0-0.3-0.1-0.4-0.2L0.1,7.4c-0.2-0.2-0.2-0.5,0-0.7c0.2-0.2,0.5-0.2,0.7,0l1.9,1.9v-7
	C2.7,1.4,3,1.2,3.3,1.2z" fill="currentColor" fill-rule="evenodd" clip-rule="evenodd"/>
    </symbol>
    <symbol viewBox="0 0 12 12" fill="none" xmlns="http://www.w3.org/2000/svg" id="sort-up">
        <path d="M6,1.2c0.1,0,0.3,0.1,0.4,0.2l2.7,2.8c0.2,0.2,0.2,0.5,0,0.7c-0.2,0.2-0.5,0.2-0.7,0L6.5,2.9v7
	c0,0.3-0.2,0.5-0.5,0.5s-0.5-0.2-0.5-0.5v-7L3.6,4.9c-0.2,0.2-0.5,0.2-0.7,0c-0.2-0.2-0.2-0.5,0-0.7l2.7-2.8C5.7,1.2,5.9,1.2,6,1.2z" fill="currentColor" fill-rule="evenodd" clip-rule="evenodd"/>
    </symbol>
    <symbol viewBox="0 0 12 12" fill="none" xmlns="http://www.w3.org/2000/svg" id="sort-down">
        <path d="M6,10.4c-0.1,0-0.3-0.1-0.4-0.2L2.9,7.4c-0.2-0.2-0.2-0.5,0-0.7c0.2-0.2,0.5-0.2,0.7,0l1.9,1.9v-7
	c0-0.3,0.2-0.5,0.5-0.5s0.5,0.2,0.5,0.5v7l1.9-1.9c0.2-0.2,0.5-0.2,0.7,0c0.2,0.2,0.2,0.5,0,0.7l-2.7,2.8C6.3,10.4,6.1,10.4,6,10.4z" fill="currentColor" fill-rule="evenodd" clip-rule="evenodd"/>
    </symbol>
    <symbol viewBox="0 0 12 12" fill="none" xmlns="http://www.w3.org/2000/svg" id="member">
        <path d="M11.2,2v7.5H0.8V2H11.2z M12,1.3H0v9h12V1.3z" fill="currentColor" />
        <path d="M6,3.5h4.5v0.8H6V3.5z" fill="currentColor"/>
        <path d="M6,5h4.5v0.8H6V5z" fill="currentColor"/>
        <path d="M6,6.5h2.2v0.8H6V6.5z" fill="currentColor"/>
        <path d="M4.1,5H3.8V5c0.4-0.2,0.8-0.6,0.8-1.1c0-0.6-0.5-1.1-1.1-1.1S2.2,3.3,2.2,3.9C2.2,4.4,2.6,4.8,3,5V5H2.7
	C2,5,1.5,5.6,1.5,6.2V8h3.8V6.2C5.2,5.6,4.7,5,4.1,5L4.1,5z" fill="currentColor"/>
    </symbol>
</svg>
